<?xml version="1.0" encoding="UTF-8" standalone="no"?>
<!DOCTYPE svg PUBLIC "-//W3C//DTD SVG 1.1//EN" "http://www.w3.org/Graphics/SVG/1.1/DTD/svg11.dtd">
<svg xmlns="http://www.w3.org/2000/svg" version="1.1" viewBox="0.00 0.00 1291.00 1108.00">
<path fill="#000000" d="
  M 581.64 13.03
  C 581.90 12.71 582.37 12.49 582.81 12.54
  C 586.12 12.88 589.61 12.06 592.40 12.06
  Q 646.32 12.03 700.24 12.27
  Q 700.69 12.28 701.10 12.41
  C 703.13 13.05 707.51 12.60 709.79 12.60
  Q 710.26 12.60 710.45 13.02
  Q 710.50 13.14 710.56 13.25
  Q 710.65 13.43 710.86 13.43
  C 712.56 13.49 718.79 13.66 720.60 15.01
  A 1.22 1.18 -24.1 0 0 721.26 15.25
  L 729.59 15.77
  Q 730.10 15.80 730.54 16.05
  C 732.49 17.11 736.23 15.81 737.62 16.63
  C 741.35 18.83 745.32 18.33 748.47 18.86
  Q 753.12 19.65 757.74 20.65
  C 760.38 21.22 764.38 21.32 767.66 23.05
  Q 768.08 23.27 768.55 23.24
  Q 770.91 23.09 772.92 24.31
  A 1.60 1.58 -31.2 0 0 773.83 24.53
  Q 775.01 24.46 776.13 24.80
  C 779.27 25.76 782.52 26.23 785.71 27.01
  Q 786.26 27.15 786.67 27.56
  Q 788.65 29.57 791.50 29.22
  A 2.43 2.38 -37.4 0 1 792.64 29.36
  Q 793.66 29.77 794.77 29.74
  A 1.90 1.87 59.4 0 1 795.76 30.00
  C 798.98 31.89 802.14 31.82 805.40 33.18
  C 808.62 34.53 812.61 35.34 815.44 36.34
  C 817.99 37.24 820.39 37.45 822.84 38.72
  Q 823.71 39.17 824.19 39.33
  Q 847.30 46.83 863.86 54.68
  Q 867.02 56.17 869.07 57.02
  C 874.22 59.14 878.64 61.37 883.44 63.62
  Q 884.55 64.15 888.33 66.41
  C 890.56 67.74 892.94 68.43 895.10 69.73
  Q 897.45 71.15 899.97 72.23
  C 902.28 73.22 904.31 75.01 907.07 75.67
  A 1.32 1.31 79.4 0 1 907.82 76.19
  C 909.57 78.72 914.27 79.67 916.74 81.57
  C 918.85 83.18 920.88 83.99 923.12 85.32
  C 924.04 85.87 924.72 87.26 926.30 87.12
  Q 926.81 87.08 927.21 87.38
  Q 929.76 89.28 932.53 90.73
  C 933.65 91.30 934.44 92.78 935.19 93.09
  Q 937.19 93.91 939.17 94.78
  Q 939.61 94.97 939.70 95.45
  Q 939.72 95.61 939.74 95.76
  Q 939.76 95.97 939.95 96.04
  C 942.40 97.00 943.77 99.00 945.77 100.05
  Q 948.10 101.29 950.53 102.30
  Q 950.97 102.48 951.33 102.80
  C 953.84 105.01 956.60 106.70 959.20 108.78
  C 960.20 109.58 961.45 109.72 962.43 110.62
  C 963.81 111.89 964.51 112.23 965.90 113.06
  Q 966.33 113.32 966.50 113.80
  Q 967.04 115.28 968.57 115.65
  A 1.91 1.90 -17.5 0 1 969.40 116.08
  Q 973.34 119.51 977.69 122.35
  Q 978.67 122.99 980.66 124.86
  Q 981.63 125.78 982.80 126.45
  C 985.82 128.17 988.25 131.21 991.29 133.19
  Q 992.72 134.13 994.39 135.81
  C 995.70 137.13 997.30 138.07 998.57 139.38
  Q 1001.24 142.14 1004.43 144.26
  Q 1005.73 145.13 1007.34 146.94
  C 1008.56 148.31 1010.23 149.14 1011.43 150.48
  Q 1015.29 154.77 1018.26 156.80
  C 1020.89 158.58 1022.18 161.04 1023.94 162.66
  C 1025.90 164.46 1027.84 166.10 1029.69 168.11
  C 1034.14 172.94 1039.58 177.04 1043.59 182.26
  C 1046.19 185.66 1049.34 188.30 1051.83 191.91
  Q 1052.05 192.23 1052.75 192.54
  Q 1053.22 192.75 1053.37 193.24
  C 1054.38 196.47 1057.24 196.21 1058.41 199.30
  Q 1058.59 199.78 1058.95 200.13
  Q 1061.13 202.23 1062.56 204.87
  Q 1062.81 205.34 1063.28 205.62
  C 1066.43 207.46 1069.82 212.88 1071.92 216.00
  C 1073.11 217.75 1074.82 219.27 1075.96 220.75
  C 1080.44 226.62 1085.28 232.48 1089.32 238.39
  C 1099.97 253.98 1110.45 269.87 1119.55 286.43
  C 1123.09 292.89 1126.94 299.39 1130.07 305.82
  Q 1134.78 315.50 1139.27 325.29
  C 1139.68 326.17 1140.90 327.81 1141.26 329.30
  Q 1141.56 330.58 1141.83 331.16
  Q 1144.75 337.48 1147.52 343.86
  C 1148.62 346.38 1149.55 349.98 1151.69 352.86
  Q 1151.98 353.24 1152.00 353.71
  C 1152.09 355.41 1151.50 357.62 1153.56 358.48
  A 0.81 0.80 10.4 0 1 1154.06 359.19
  C 1154.18 362.56 1155.95 364.84 1156.64 367.85
  Q 1157.22 370.36 1158.40 372.65
  C 1159.93 375.62 1160.05 377.79 1160.50 380.87
  Q 1160.57 381.37 1160.95 381.71
  C 1163.96 384.32 1162.15 388.46 1164.69 391.36
  Q 1165.01 391.73 1165.08 392.23
  Q 1165.35 394.26 1166.11 396.14
  C 1166.66 397.51 1166.47 398.42 1166.53 399.83
  A 1.00 0.97 15.9 0 0 1166.98 400.61
  Q 1167.85 401.17 1167.96 402.06
  C 1168.50 406.57 1170.05 409.87 1171.05 414.02
  C 1171.54 416.08 1172.76 417.61 1172.91 419.96
  C 1173.10 422.94 1174.39 425.86 1174.70 428.76
  Q 1174.90 430.66 1175.74 432.10
  Q 1176.00 432.54 1175.86 433.04
  Q 1175.49 434.28 1176.18 435.33
  Q 1176.45 435.74 1176.36 436.23
  C 1176.13 437.57 1177.01 438.20 1177.24 439.20
  Q 1177.69 441.16 1177.67 443.18
  Q 1177.67 443.70 1177.99 444.11
  Q 1178.88 445.23 1179.17 446.68
  Q 1179.27 447.22 1178.93 447.64
  Q 1177.91 448.91 1176.10 448.74
  Q 1175.60 448.69 1175.15 448.90
  Q 1173.48 449.63 1170.98 448.89
  Q 1168.91 448.27 1162.33 448.39
  C 1161.95 448.39 1161.62 448.26 1161.37 448.01
  Q 1161.13 447.77 1160.80 447.71
  Q 1158.78 447.37 1156.77 446.95
  C 1152.17 445.99 1146.65 446.50 1141.93 446.49
  C 1141.39 446.49 1140.88 446.23 1140.25 446.21
  C 1135.37 446.06 1130.41 446.20 1125.56 445.82
  A 1.31 1.28 69.9 0 1 1124.74 445.43
  C 1122.04 442.64 1122.28 439.90 1121.21 436.50
  C 1120.19 433.29 1120.54 430.02 1119.51 426.68
  Q 1119.37 426.22 1119.03 425.87
  C 1116.79 423.57 1117.58 419.83 1116.28 417.01
  Q 1115.23 414.73 1115.04 413.84
  C 1114.69 412.30 1114.57 410.89 1113.93 409.40
  C 1111.24 403.25 1109.82 396.44 1107.51 390.63
  Q 1104.52 383.14 1102.05 375.46
  C 1101.50 373.76 1100.07 372.52 1099.77 370.77
  Q 1099.32 368.08 1098.65 366.56
  C 1094.45 356.97 1090.34 346.83 1085.84 337.91
  Q 1068.95 304.44 1047.80 273.44
  C 1045.66 270.30 1042.39 266.55 1039.90 263.04
  C 1018.50 232.90 993.63 206.90 965.99 182.26
  Q 961.69 178.43 947.36 167.48
  C 946.03 166.47 945.07 164.93 943.53 163.93
  C 938.76 160.84 934.52 157.21 929.79 154.10
  C 927.19 152.39 924.89 149.81 922.51 148.44
  C 920.47 147.27 917.00 146.90 916.18 144.46
  Q 916.02 143.97 915.58 143.71
  C 914.01 142.76 912.34 142.51 910.91 141.41
  Q 909.40 140.25 907.81 139.24
  C 884.49 124.44 865.01 114.13 839.77 102.98
  Q 825.17 96.53 805.75 89.73
  C 803.01 88.76 800.34 88.32 798.02 87.14
  C 796.40 86.32 795.08 85.61 793.26 85.16
  Q 787.36 83.70 781.51 82.06
  C 779.62 81.53 777.36 80.17 775.24 79.94
  Q 772.57 79.64 771.22 79.36
  Q 770.75 79.26 770.66 78.78
  Q 770.44 77.67 768.99 78.08
  A 1.43 1.39 -43.4 0 1 768.20 78.07
  C 765.77 77.37 763.30 77.83 761.17 76.91
  C 759.85 76.34 758.91 75.50 757.52 75.23
  Q 756.01 74.93 754.50 74.59
  C 752.49 74.12 750.11 74.67 748.15 72.59
  Q 747.82 72.24 747.34 72.28
  Q 742.14 72.67 737.07 71.70
  C 734.82 71.27 733.25 69.41 730.78 69.52
  C 725.04 69.77 721.98 68.96 717.55 68.34
  Q 716.21 68.16 715.47 67.92
  C 712.92 67.10 710.63 67.29 708.00 67.14
  C 705.56 67.00 701.64 66.04 698.00 66.37
  Q 697.60 66.41 697.29 66.13
  Q 696.94 65.80 696.46 65.75
  C 693.97 65.49 691.78 64.50 689.24 64.50
  C 687.85 64.50 686.61 64.17 685.23 64.33
  C 681.12 64.80 677.07 63.49 673.57 63.42
  Q 641.66 62.83 609.75 63.55
  Q 609.20 63.56 608.72 63.85
  Q 608.30 64.10 607.81 64.12
  C 603.24 64.38 599.05 64.36 596.44 65.92
  Q 596.02 66.17 595.52 66.15
  C 592.69 66.03 589.92 66.89 587.48 67.00
  Q 583.15 67.18 578.83 67.29
  C 576.14 67.36 574.15 68.89 571.12 68.59
  C 569.84 68.46 569.43 69.23 568.33 69.23
  C 563.78 69.22 559.97 71.08 555.92 71.52
  C 552.03 71.93 549.07 72.12 544.93 73.38
  C 542.18 74.21 539.51 74.03 536.82 75.16
  A 1.72 1.71 -50.7 0 1 535.83 75.26
  Q 533.28 74.79 531.78 76.66
  Q 531.48 77.04 531.00 77.10
  C 527.34 77.54 523.94 77.29 520.05 79.63
  Q 519.65 79.87 519.18 79.91
  L 512.50 80.43
  Q 511.98 80.47 511.74 80.94
  Q 510.90 82.58 509.05 82.62
  C 505.84 82.70 503.23 84.08 500.53 84.84
  C 497.61 85.66 495.48 87.47 492.61 87.99
  C 490.54 88.35 488.94 88.50 486.93 89.37
  Q 483.21 90.98 475.67 93.66
  Q 460.29 99.14 445.44 105.94
  Q 442.81 107.14 440.20 108.34
  Q 409.08 122.60 380.59 141.60
  C 368.84 149.43 356.91 157.50 346.04 166.07
  C 317.36 188.67 292.12 213.04 268.41 241.73
  Q 253.59 259.67 248.35 267.60
  Q 239.50 281.00 230.70 294.44
  Q 224.47 303.94 206.56 337.26
  C 205.65 338.94 205.19 341.13 204.33 342.86
  Q 199.12 353.34 194.66 364.16
  C 193.88 366.04 192.21 367.76 191.83 369.63
  Q 191.15 372.93 189.61 375.93
  C 188.82 377.48 188.75 378.84 188.28 380.47
  A 1.35 1.34 80.5 0 1 187.74 381.23
  C 185.92 382.49 186.41 384.85 185.70 386.76
  Q 181.77 397.23 178.95 408.05
  C 177.74 412.69 175.43 418.32 174.46 423.76
  C 174.38 424.22 174.23 424.37 173.96 424.73
  Q 173.74 425.01 173.69 425.38
  Q 173.11 429.23 172.33 433.05
  C 171.61 436.55 169.42 439.36 169.23 443.48
  C 169.16 444.95 168.78 445.71 167.81 446.66
  Q 167.44 447.02 167.41 447.54
  C 167.24 451.16 167.93 454.45 166.11 457.79
  C 164.35 461.02 164.52 464.71 164.21 468.00
  Q 164.05 469.71 162.34 469.80
  Q 151.97 470.33 142.91 470.61
  Q 139.94 470.70 136.22 471.70
  Q 129.19 473.58 121.88 473.53
  C 120.12 473.52 119.03 474.38 117.66 475.30
  A 1.13 1.11 34.7 0 1 116.74 475.46
  Q 115.70 475.21 115.39 476.07
  Q 115.16 476.70 114.52 476.50
  Q 113.45 476.17 112.33 476.27
  Q 111.81 476.31 111.61 475.83
  C 111.03 474.38 109.83 473.61 109.48 472.27
  Q 108.75 469.48 110.45 467.10
  Q 110.74 466.71 110.72 466.22
  C 110.65 464.18 111.24 462.48 111.26 460.50
  C 111.28 457.83 111.51 453.55 113.13 451.19
  Q 113.40 450.80 113.44 450.32
  Q 113.62 448.07 113.87 445.82
  Q 114.02 444.56 114.95 441.16
  C 116.05 437.10 115.50 433.09 117.34 428.80
  Q 117.48 428.49 117.79 428.35
  Q 117.92 428.28 118.06 428.22
  Q 118.61 428.00 118.61 427.40
  C 118.63 426.00 119.17 424.89 119.15 423.57
  Q 119.09 419.34 120.42 416.71
  C 122.16 413.29 122.19 411.07 122.60 407.54
  C 122.69 406.76 122.91 406.56 123.43 406.07
  Q 123.79 405.72 123.95 405.25
  C 125.02 402.08 125.17 398.54 125.99 395.71
  C 126.92 392.47 127.66 390.19 129.17 386.32
  C 130.00 384.18 130.41 382.00 131.31 379.87
  C 132.68 376.63 133.14 373.27 134.56 370.15
  C 136.50 365.91 137.60 361.62 139.44 357.22
  Q 140.30 355.19 141.46 352.01
  Q 146.31 338.73 154.97 320.72
  C 172.69 283.86 193.20 250.06 218.33 217.84
  C 231.68 200.71 246.70 184.15 267.33 163.43
  Q 267.55 163.22 269.84 161.31
  C 270.98 160.37 271.91 158.93 272.86 158.01
  Q 289.66 141.86 306.26 128.78
  C 328.29 111.42 353.11 94.01 376.99 80.71
  C 391.84 72.43 401.78 66.56 411.89 62.19
  Q 411.99 62.15 416.46 59.90
  C 419.69 58.27 423.41 57.69 426.75 55.85
  Q 429.34 54.42 431.11 53.71
  C 435.74 51.87 440.08 49.40 444.80 47.82
  C 447.86 46.80 450.42 45.95 453.23 44.08
  C 455.40 42.64 458.42 42.90 460.80 41.89
  C 464.03 40.51 466.50 40.12 469.15 38.87
  C 472.13 37.47 474.77 37.18 477.55 36.17
  C 481.19 34.86 484.53 34.42 487.99 32.46
  C 489.74 31.47 493.90 32.08 496.59 30.54
  C 499.59 28.83 502.49 29.94 505.68 27.75
  Q 507.59 26.43 508.99 26.50
  Q 513.24 26.70 516.95 24.75
  A 1.75 1.71 -55.4 0 1 517.92 24.56
  Q 518.96 24.65 519.73 24.01
  A 1.46 1.43 -65.7 0 1 520.60 23.67
  C 522.76 23.55 524.26 23.39 526.40 22.39
  Q 529.25 21.07 532.51 21.33
  Q 532.80 21.35 533.32 20.98
  Q 533.73 20.69 534.24 20.75
  C 537.88 21.20 540.71 19.28 543.35 18.84
  Q 547.52 18.14 550.75 18.50
  Q 553.50 18.82 554.42 16.75
  A 0.81 0.80 11.6 0 1 555.14 16.28
  C 557.18 16.22 558.91 16.37 560.94 15.97
  C 564.23 15.33 567.49 15.47 570.80 14.80
  Q 572.18 14.52 573.59 14.36
  C 576.11 14.09 578.13 13.19 580.87 13.36
  Q 581.34 13.40 581.64 13.03
  Z"
/>
<path fill="#000000" d="
  M 561.80 479.49
  A 1.00 1.00 0.0 0 0 561.57 481.17
  C 564.22 483.39 566.85 481.15 569.83 481.67
  Q 573.11 482.23 573.77 482.23
  Q 617.26 482.26 660.75 482.21
  Q 661.83 482.21 662.57 482.92
  Q 662.87 483.20 663.28 483.20
  L 674.53 483.20
  Q 675.09 483.20 675.55 482.90
  C 676.15 482.51 676.48 482.23 677.25 482.23
  Q 691.17 482.24 705.08 482.23
  Q 705.58 482.23 706.03 482.02
  Q 707.07 481.53 708.50 481.64
  C 712.38 481.92 716.58 481.26 720.33 481.27
  C 722.37 481.28 725.54 481.65 727.40 480.88
  C 731.24 479.27 736.16 481.22 739.99 480.11
  Q 740.50 479.97 741.00 479.96
  Q 755.25 479.78 769.50 479.74
  Q 770.94 479.73 772.83 478.53
  Q 773.25 478.26 773.74 478.32
  C 777.32 478.76 781.19 477.97 784.09 477.93
  C 793.57 477.80 800.61 477.10 808.33 476.69
  C 816.40 476.27 823.60 475.38 831.24 475.03
  C 832.07 474.99 832.52 474.65 833.27 474.65
  Q 841.53 474.67 849.79 474.20
  C 850.72 474.14 851.46 473.59 852.50 473.62
  C 858.90 473.78 863.40 474.00 868.15 472.97
  C 871.81 472.17 875.36 472.34 879.01 472.43
  Q 879.51 472.44 880.04 471.84
  Q 880.38 471.45 880.90 471.46
  Q 886.96 471.57 893.00 471.43
  Q 893.22 471.42 893.71 471.13
  Q 894.12 470.88 894.60 470.88
  Q 901.68 470.78 908.75 470.32
  Q 909.10 470.29 909.40 470.15
  Q 909.84 469.95 910.33 469.95
  C 913.64 469.93 916.88 468.97 919.94 468.95
  C 928.85 468.91 937.76 468.77 946.67 468.62
  Q 949.82 468.56 957.28 467.75
  Q 963.04 467.12 968.85 467.34
  A 1.03 1.00 23.5 0 0 969.57 467.07
  Q 969.67 466.99 969.77 466.90
  Q 969.83 466.85 969.91 466.84
  Q 978.21 466.45 986.52 466.41
  Q 986.97 466.41 987.30 466.23
  Q 987.45 466.15 987.59 466.06
  Q 987.89 465.86 988.24 465.86
  L 1011.37 465.46
  Q 1011.89 465.45 1012.32 465.17
  Q 1012.97 464.75 1013.74 464.76
  C 1016.92 464.82 1019.93 463.79 1022.89 463.81
  Q 1025.04 463.83 1027.20 463.79
  A 1.75 1.68 -27.1 0 1 1028.16 464.08
  Q 1029.46 464.98 1030.74 464.08
  Q 1031.11 463.82 1031.56 463.82
  C 1039.61 463.79 1047.73 464.07 1055.75 463.59
  C 1057.68 463.47 1059.67 463.89 1061.42 463.85
  Q 1070.41 463.67 1079.40 463.51
  C 1080.76 463.48 1082.41 464.00 1083.76 463.90
  Q 1091.62 463.35 1099.48 463.85
  Q 1100.37 463.90 1103.43 464.47
  C 1106.67 465.07 1109.07 463.35 1112.11 464.03
  C 1114.11 464.47 1115.50 464.65 1116.98 465.27
  Q 1117.39 465.45 1117.78 465.23
  Q 1119.76 464.11 1121.67 465.38
  A 1.60 1.57 -26.5 0 0 1122.54 465.66
  Q 1128.52 465.89 1134.50 465.68
  Q 1135.23 465.66 1135.72 466.18
  A 0.71 0.70 -19.1 0 0 1136.23 466.42
  L 1147.57 466.84
  Q 1148.02 466.85 1148.44 467.05
  Q 1148.58 467.12 1148.72 467.18
  Q 1148.97 467.28 1149.29 467.29
  C 1151.47 467.37 1153.29 468.36 1155.26 468.51
  Q 1162.14 469.03 1169.04 468.99
  Q 1171.87 468.97 1174.84 469.82
  Q 1178.87 470.98 1180.71 470.88
  Q 1182.64 470.78 1183.73 471.18
  A 1.43 0.14 21.9 0 0 1184.75 471.48
  L 1191.46 471.48
  Q 1192.06 471.48 1192.56 471.80
  Q 1194.18 472.84 1196.14 472.26
  A 0.84 0.83 63.8 0 1 1197.06 472.58
  L 1197.65 473.39
  A 0.80 0.79 -23.3 0 0 1198.47 473.71
  Q 1199.69 473.46 1200.69 474.10
  Q 1201.14 474.40 1201.68 474.37
  Q 1208.14 474.05 1210.00 474.55
  Q 1215.04 475.93 1220.20 476.66
  C 1221.14 476.79 1221.76 477.43 1222.68 477.44
  Q 1225.62 477.48 1228.56 477.49
  C 1230.40 477.50 1231.61 478.60 1233.01 479.04
  C 1235.72 479.89 1239.59 479.49 1242.82 480.10
  Q 1244.07 480.34 1245.37 480.34
  A 1.63 1.60 -28.3 0 1 1246.30 480.61
  Q 1249.78 482.87 1254.00 482.13
  Q 1254.85 481.98 1256.09 482.94
  A 1.23 1.22 59.8 0 0 1257.01 483.19
  Q 1258.64 482.97 1260.99 484.00
  Q 1263.67 485.16 1268.83 485.02
  C 1272.27 484.93 1275.09 486.32 1278.50 486.33
  A 0.44 0.44 0.0 0 1 1278.93 486.77
  L 1278.94 491.22
  Q 1278.95 491.78 1278.39 491.75
  Q 1276.10 491.61 1273.58 492.50
  C 1271.56 493.21 1269.57 492.00 1267.43 492.19
  Q 1265.23 492.39 1264.07 492.21
  Q 1259.32 491.48 1254.50 491.74
  C 1252.77 491.84 1251.57 490.96 1250.15 490.84
  C 1248.26 490.67 1246.54 490.88 1244.63 490.56
  C 1239.81 489.75 1234.46 490.30 1229.55 489.63
  C 1225.72 489.10 1221.74 489.55 1218.18 488.89
  C 1214.07 488.13 1210.54 487.01 1206.21 487.09
  C 1201.63 487.17 1197.27 486.58 1192.59 486.59
  Q 1187.39 486.59 1182.26 485.61
  C 1181.49 485.47 1180.49 485.68 1179.58 485.54
  Q 1171.22 484.27 1162.75 484.79
  C 1161.71 484.85 1160.80 484.23 1159.72 484.23
  Q 1147.25 484.25 1134.78 484.21
  C 1133.73 484.21 1132.92 483.64 1131.75 483.74
  C 1129.41 483.94 1127.14 483.23 1125.09 483.25
  Q 1123.00 483.27 1120.91 483.27
  C 1119.15 483.28 1118.50 481.99 1116.88 482.00
  Q 1107.19 482.02 1097.51 481.77
  C 1096.51 481.74 1095.71 481.45 1094.82 481.44
  C 1079.69 481.34 1064.64 481.02 1049.50 481.19
  Q 1031.88 481.38 1014.25 481.41
  C 1011.48 481.42 1008.36 482.15 1005.26 482.05
  C 1002.83 481.97 1000.77 482.80 998.31 482.81
  Q 997.81 482.81 997.36 483.04
  C 995.56 483.97 991.14 482.79 988.74 483.58
  C 984.68 484.93 978.39 484.22 974.00 484.30
  C 973.21 484.31 972.64 484.69 971.92 484.70
  Q 967.46 484.71 963.00 484.71
  Q 962.73 484.71 962.14 485.05
  Q 961.72 485.30 961.24 485.24
  Q 957.54 484.79 954.23 486.45
  A 1.65 1.62 -55.0 0 1 953.37 486.61
  C 948.70 486.25 943.71 486.96 939.58 487.00
  Q 928.97 487.09 918.50 488.90
  Q 913.79 489.71 904.66 489.31
  C 903.38 489.25 902.04 489.99 901.12 489.92
  Q 897.99 489.67 890.75 490.28
  Q 887.66 490.54 886.18 491.14
  Q 885.72 491.32 885.23 491.28
  Q 882.73 491.04 880.29 491.43
  C 874.40 492.39 868.09 491.65 862.20 492.41
  C 858.71 492.86 855.34 492.53 851.97 493.11
  Q 841.20 494.96 831.75 494.99
  Q 831.10 494.99 830.75 495.21
  Q 830.43 495.42 830.04 495.42
  Q 823.48 495.38 816.93 495.88
  C 815.78 495.97 814.45 495.69 813.03 496.30
  Q 812.56 496.50 812.06 496.45
  Q 808.40 496.07 804.80 496.60
  C 803.07 496.86 800.81 496.56 798.89 497.24
  Q 798.42 497.41 797.92 497.35
  C 795.36 497.03 792.85 497.78 790.66 497.77
  Q 778.83 497.72 775.56 497.81
  Q 775.32 497.81 774.85 498.06
  Q 774.41 498.31 773.90 498.27
  Q 771.73 498.12 769.75 499.08
  Q 769.27 499.31 768.75 499.27
  C 765.11 498.94 761.24 499.65 758.08 499.67
  Q 754.41 499.70 750.76 499.90
  C 745.79 500.16 740.84 500.15 735.87 500.31
  Q 734.67 500.35 733.47 500.37
  Q 721.09 500.55 708.72 500.57
  C 705.88 500.57 702.22 501.33 698.84 500.93
  C 694.88 500.47 691.49 501.28 687.25 500.68
  C 685.10 500.38 683.26 501.95 680.75 501.95
  Q 609.13 502.00 537.51 502.00
  Q 536.24 502.00 532.52 501.61
  C 530.29 501.37 527.78 501.89 525.64 501.30
  Q 524.69 501.03 523.82 501.04
  C 519.07 501.06 514.07 501.36 509.37 500.74
  C 508.20 500.59 507.25 501.05 506.21 501.05
  Q 498.79 501.05 491.38 501.04
  C 490.52 501.04 489.64 500.59 488.92 500.59
  Q 430.39 500.56 371.87 500.36
  Q 370.95 500.36 370.00 500.35
  Q 324.31 500.11 278.62 500.11
  C 277.87 500.11 276.98 499.68 276.11 499.68
  Q 260.80 499.63 245.50 499.67
  C 244.53 499.67 243.35 500.12 242.15 500.12
  C 229.84 500.11 217.54 499.98 205.24 500.33
  Q 197.41 500.56 189.57 500.57
  C 185.99 500.58 181.43 501.29 177.25 500.99
  Q 175.08 500.83 170.39 502.25
  C 166.73 503.36 163.24 502.53 159.48 503.31
  C 157.72 503.67 155.98 503.06 154.21 503.83
  Q 153.17 504.28 152.22 504.29
  Q 147.10 504.34 142.11 505.38
  C 138.45 506.15 135.09 506.18 131.50 506.60
  C 128.29 506.97 124.46 508.51 120.54 508.57
  C 117.50 508.61 115.25 509.19 112.47 509.66
  C 111.04 509.90 109.92 510.88 108.21 510.77
  C 107.24 510.71 107.04 511.24 106.20 511.31
  C 103.18 511.54 100.52 511.63 97.61 512.53
  C 89.16 515.15 80.39 517.28 72.29 520.35
  Q 46.16 530.27 19.80 539.61
  C 17.48 540.43 15.44 541.54 12.73 541.65
  A 0.65 0.64 -1.3 0 1 12.05 541.01
  L 12.05 535.84
  Q 12.05 535.32 12.57 535.26
  Q 12.74 535.24 12.92 535.24
  Q 13.33 535.24 13.65 534.99
  Q 26.02 525.62 39.60 518.25
  Q 46.75 514.38 57.84 510.13
  Q 68.27 506.13 78.71 502.12
  C 79.85 501.69 81.03 501.86 82.25 501.50
  C 86.53 500.27 91.62 498.41 96.01 498.05
  C 97.77 497.91 98.45 496.64 100.33 496.58
  Q 106.13 496.38 109.76 495.02
  Q 112.88 493.84 115.24 493.78
  C 116.20 493.76 116.58 493.14 117.43 493.05
  Q 120.84 492.68 124.25 492.28
  A 1.42 1.42 0.0 0 0 125.10 491.86
  Q 125.23 491.73 125.36 491.60
  Q 125.49 491.47 125.66 491.43
  Q 128.29 490.82 131.00 491.11
  Q 131.48 491.16 132.07 490.77
  Q 132.50 490.50 133.00 490.50
  C 135.81 490.52 140.36 491.20 142.66 489.40
  A 1.27 1.22 -60.2 0 1 143.55 489.14
  C 145.05 489.31 146.26 488.79 147.51 488.73
  C 152.58 488.49 157.44 487.54 162.56 487.29
  C 167.65 487.04 172.29 485.50 177.00 485.90
  Q 177.60 485.95 179.01 485.61
  C 180.96 485.13 183.17 485.53 185.19 485.29
  C 189.29 484.78 193.16 485.26 197.13 484.64
  C 199.14 484.32 200.94 484.59 203.06 484.24
  Q 204.50 484.01 205.97 484.24
  Q 206.41 484.31 206.70 483.98
  Q 206.90 483.76 207.13 483.60
  Q 207.30 483.48 207.51 483.48
  L 222.78 483.09
  A 0.74 0.73 18.9 0 0 223.32 482.83
  Q 223.82 482.24 224.25 482.24
  Q 298.00 482.21 371.75 482.24
  A 1.02 1.01 67.9 0 1 372.48 482.55
  L 372.79 482.86
  Q 373.13 483.21 373.62 483.21
  L 379.69 483.20
  Q 380.18 483.20 380.53 482.86
  L 380.80 482.59
  A 1.31 1.26 -65.8 0 1 381.72 482.22
  L 385.60 482.24
  Q 386.14 482.25 386.53 482.63
  L 386.77 482.87
  Q 387.12 483.20 387.60 483.20
  L 395.25 483.20
  Q 395.79 483.20 396.14 482.79
  Q 396.50 482.38 397.12 482.25
  A 2.27 2.09 -47.4 0 1 397.48 482.22
  C 401.71 482.32 405.53 482.47 409.74 481.37
  C 414.28 480.19 417.42 479.46 421.82 479.27
  Q 422.31 479.24 422.72 478.97
  Q 423.61 478.36 424.59 477.94
  Q 430.14 475.51 435.87 473.51
  Q 436.01 473.46 436.58 472.80
  Q 436.68 472.68 436.72 472.53
  Q 436.78 472.29 437.00 472.18
  C 440.12 470.52 443.76 470.09 446.50 468.58
  Q 449.61 466.85 453.94 463.93
  Q 458.58 460.79 474.32 451.65
  Q 482.61 446.84 491.46 441.36
  C 509.58 430.16 526.13 421.63 543.37 411.58
  Q 553.69 405.57 560.77 401.72
  Q 577.77 392.48 594.84 383.38
  C 603.89 378.55 612.42 373.61 622.00 369.80
  Q 624.69 368.73 633.26 367.26
  C 633.70 367.19 634.22 366.64 634.76 366.48
  Q 640.37 364.89 646.03 365.98
  C 648.48 366.44 649.80 368.31 652.73 368.39
  Q 653.26 368.40 653.53 368.85
  C 655.12 371.42 657.14 376.01 655.75 378.94
  A 0.85 0.85 0.0 0 0 655.83 379.81
  Q 656.53 380.78 656.23 381.74
  C 653.93 389.18 649.55 394.33 644.47 399.32
  C 619.70 423.68 601.01 440.59 579.12 461.11
  Q 571.70 468.07 564.90 475.63
  C 563.87 476.78 563.41 478.74 561.80 479.49
  Z
  M 622.95 384.81
  A 1.04 1.04 0.0 0 0 621.82 383.68
  Q 620.45 383.81 619.72 384.19
  Q 598.23 395.60 577.09 407.63
  C 540.61 428.38 502.59 449.69 468.23 468.72
  Q 464.07 471.03 460.04 473.58
  C 457.51 475.19 455.75 477.85 452.83 479.48
  Q 452.34 479.75 452.22 480.31
  Q 452.08 480.95 452.22 481.61
  Q 452.33 482.15 452.88 482.24
  Q 456.33 482.78 459.78 483.32
  C 461.10 483.53 461.66 484.44 463.09 484.46
  Q 468.91 484.53 474.73 484.49
  C 475.51 484.48 476.11 484.94 476.75 484.94
  Q 488.74 484.94 500.73 484.94
  C 503.56 484.94 505.82 484.12 508.42 483.27
  C 511.65 482.21 517.01 480.96 520.53 478.81
  Q 527.54 474.51 535.85 467.36
  C 551.63 453.80 567.72 440.66 582.69 426.19
  Q 595.73 413.58 609.19 401.45
  C 614.21 396.92 622.38 390.74 622.95 384.81
  Z"
/>
<path fill="#000000" d="
  M 1103.86 515.01
  C 1101.28 514.19 1098.99 513.84 1096.33 513.59
  C 1093.61 513.35 1091.33 512.00 1088.50 511.81
  Q 1079.73 511.21 1070.95 511.32
  Q 1070.44 511.33 1070.02 511.05
  Q 1069.56 510.75 1069.25 510.75
  Q 1062.30 510.74 1055.34 510.76
  Q 1055.00 510.76 1054.75 510.99
  Q 1054.65 511.09 1054.54 511.19
  Q 1054.51 511.22 1054.47 511.22
  L 1034.06 511.82
  Q 1033.58 511.83 1033.19 512.11
  C 1030.01 514.32 1027.27 513.26 1024.10 514.10
  Q 1018.31 515.65 1012.53 517.13
  Q 993.15 522.12 975.76 531.82
  Q 965.22 537.69 965.00 537.82
  C 955.92 542.77 948.79 548.15 940.75 553.45
  C 938.38 555.01 936.89 555.43 934.27 554.69
  C 931.00 553.78 932.09 549.04 932.42 546.53
  Q 932.74 544.02 934.36 541.93
  Q 938.90 536.04 945.59 530.59
  C 953.28 524.32 959.90 518.98 968.39 514.37
  Q 980.09 508.02 989.50 504.45
  Q 995.20 502.30 1007.70 499.12
  C 1008.89 498.82 1009.90 497.90 1011.09 497.77
  C 1016.98 497.13 1022.68 494.93 1029.10 494.30
  Q 1030.42 494.17 1032.96 493.41
  C 1036.67 492.32 1041.28 493.28 1044.87 491.91
  C 1048.64 490.48 1054.36 491.06 1058.41 491.06
  Q 1058.42 491.06 1063.05 490.67
  C 1065.20 490.49 1067.42 491.09 1069.33 491.08
  Q 1072.05 491.05 1074.77 491.05
  C 1080.80 491.03 1087.14 492.29 1093.15 492.94
  Q 1094.21 493.06 1097.25 493.85
  C 1099.16 494.34 1101.04 494.19 1102.87 494.66
  Q 1104.86 495.18 1106.89 495.54
  C 1110.55 496.19 1113.89 497.55 1117.63 498.10
  Q 1118.79 498.27 1119.60 499.06
  Q 1119.96 499.41 1120.46 499.45
  Q 1123.71 499.72 1125.52 500.97
  C 1127.10 502.06 1127.74 501.59 1129.24 501.89
  Q 1131.65 502.37 1133.84 503.38
  C 1137.93 505.28 1140.26 506.23 1143.78 507.96
  C 1153.52 512.78 1161.55 516.30 1168.03 521.01
  C 1169.75 522.26 1171.59 523.11 1173.22 524.45
  Q 1175.48 526.31 1177.96 527.85
  C 1179.40 528.74 1180.33 530.11 1181.80 531.07
  C 1183.78 532.35 1185.35 534.04 1187.54 534.92
  Q 1188.88 535.46 1190.55 538.51
  A 1.26 1.25 85.3 0 0 1191.23 539.09
  C 1192.52 539.55 1193.01 540.70 1193.70 541.40
  Q 1195.37 543.08 1196.72 544.64
  A 2.95 2.94 -49.9 0 1 1197.01 548.10
  Q 1195.45 550.66 1191.76 550.49
  Q 1189.60 550.38 1185.18 548.25
  Q 1182.68 547.04 1179.24 544.68
  Q 1167.23 536.41 1160.76 533.68
  Q 1152.65 530.26 1144.51 526.87
  C 1137.87 524.10 1130.20 521.97 1123.09 519.25
  C 1121.90 518.79 1120.14 518.92 1118.87 517.86
  Q 1118.49 517.55 1117.99 517.51
  Q 1115.82 517.34 1113.67 517.04
  C 1110.77 516.63 1108.19 514.87 1104.66 515.11
  Q 1104.24 515.13 1103.86 515.01
  Z"
/>
<path fill="#000000" d="
  M 274.35 527.44
  C 277.78 527.76 280.13 530.08 282.98 531.48
  C 284.66 532.30 286.32 534.10 288.59 534.45
  Q 289.09 534.52 289.43 534.90
  C 291.77 537.49 295.69 538.53 298.29 540.95
  Q 301.14 543.59 304.79 544.98
  Q 305.25 545.15 305.53 545.56
  Q 307.22 548.02 311.02 549.46
  C 312.90 550.18 311.93 552.84 314.67 553.61
  Q 315.14 553.75 315.46 554.11
  C 317.62 556.51 321.19 559.32 321.73 562.57
  Q 321.82 563.09 321.50 563.51
  Q 319.86 565.72 316.52 565.76
  C 314.27 565.79 314.52 565.16 312.99 564.56
  Q 308.28 562.71 303.96 560.09
  C 302.42 559.16 299.56 558.42 297.85 557.06
  Q 296.42 555.92 295.59 555.52
  Q 286.16 550.91 276.74 546.25
  C 276.01 545.89 275.50 545.15 274.61 544.77
  Q 263.67 540.18 252.61 535.85
  C 251.48 535.41 249.62 535.56 248.42 534.47
  Q 248.06 534.14 247.57 534.07
  C 242.07 533.25 236.66 531.61 231.15 531.14
  C 228.71 530.94 226.62 530.12 224.26 530.17
  Q 219.33 530.27 214.51 529.22
  Q 214.06 529.12 213.68 528.85
  A 1.31 1.31 0.0 0 0 212.96 528.59
  Q 199.35 527.61 185.77 528.70
  Q 184.79 528.78 180.36 529.78
  Q 177.76 530.37 175.02 530.00
  A 1.88 1.87 38.3 0 0 174.07 530.11
  Q 170.97 531.26 166.51 530.98
  Q 164.42 530.85 162.29 532.45
  A 1.42 1.40 -62.3 0 1 161.42 532.73
  Q 153.33 532.58 149.99 534.01
  Q 147.30 535.16 145.87 535.48
  Q 144.37 535.82 144.34 535.83
  Q 131.33 539.75 120.81 543.64
  Q 101.00 550.96 82.81 562.90
  C 81.95 563.47 80.43 563.83 79.60 565.01
  Q 79.33 565.39 78.86 565.45
  C 76.40 565.74 73.59 566.06 71.15 565.52
  A 3.10 3.10 0.0 0 1 68.93 561.37
  L 69.97 558.70
  Q 70.12 558.33 70.39 558.03
  Q 70.69 557.71 70.73 557.25
  Q 70.76 556.78 71.08 556.45
  Q 72.43 555.04 74.03 553.95
  C 76.61 552.19 78.23 549.77 80.87 548.04
  C 89.45 542.40 96.97 536.72 103.07 533.56
  Q 111.90 528.99 120.73 524.42
  Q 125.62 521.89 140.74 516.74
  Q 143.18 515.91 144.81 515.53
  Q 147.47 514.89 148.85 514.35
  Q 155.07 511.90 162.25 511.92
  C 163.66 511.92 164.67 510.90 165.99 510.65
  C 168.37 510.18 169.75 509.95 172.85 509.71
  C 174.58 509.57 176.06 508.78 177.75 508.80
  Q 180.72 508.82 183.69 508.77
  Q 184.19 508.76 184.61 508.48
  C 187.05 506.82 189.71 507.86 191.78 507.72
  Q 196.75 507.37 201.72 507.39
  C 206.03 507.42 210.92 508.77 215.75 508.81
  Q 217.01 508.81 219.68 509.41
  C 222.31 510.00 225.14 509.37 227.81 510.45
  Q 230.21 511.42 231.66 511.61
  Q 235.82 512.16 239.97 512.86
  C 242.20 513.23 243.96 514.31 246.02 515.20
  A 2.11 2.02 53.8 0 0 246.97 515.37
  C 249.20 515.21 250.76 516.64 252.42 517.13
  Q 257.59 518.68 259.33 519.66
  C 261.76 521.03 264.14 521.42 266.08 522.51
  C 268.83 524.04 271.01 525.10 273.50 527.09
  Q 273.87 527.39 274.35 527.44
  Z"
/>
<path fill="#000000" d="
  M 204.23 620.54
  Q 205.05 620.87 205.99 620.23
  C 208.70 618.39 210.86 615.91 213.64 614.40
  C 218.64 611.68 223.40 609.34 228.02 605.78
  Q 231.27 603.28 234.59 600.89
  Q 242.49 595.20 251.44 591.35
  Q 258.42 588.34 265.95 587.18
  C 267.51 586.94 269.90 586.67 271.29 586.19
  C 276.14 584.53 282.62 586.99 285.08 591.46
  C 285.57 592.35 286.43 592.86 286.27 594.21
  A 1.83 1.74 -56.6 0 0 286.45 595.22
  Q 287.06 596.47 288.26 597.26
  A 1.10 1.06 13.3 0 1 288.74 598.00
  L 290.29 607.89
  A 0.95 0.92 -23.8 0 1 289.94 608.76
  Q 289.21 609.32 289.46 610.22
  A 0.99 0.95 -38.2 0 1 289.36 610.95
  Q 288.38 612.61 287.37 614.23
  C 286.47 615.66 287.11 616.77 286.37 618.16
  Q 285.71 619.38 286.04 620.31
  A 1.12 1.11 -35.4 0 0 287.95 620.63
  Q 289.56 618.68 292.02 617.74
  Q 292.53 617.55 292.53 617.01
  Q 292.54 616.44 292.34 615.91
  A 0.36 0.36 0.0 0 1 292.83 615.45
  C 295.10 616.48 301.44 615.30 303.69 614.22
  Q 306.17 613.03 307.55 612.80
  Q 313.50 611.79 316.24 611.81
  Q 318.18 611.81 319.51 611.37
  Q 319.99 611.21 320.49 611.28
  C 325.63 612.05 329.30 612.38 332.84 615.17
  Q 333.20 615.46 333.30 615.91
  C 333.72 617.80 334.90 618.77 335.57 620.55
  Q 335.75 621.03 336.22 621.24
  L 336.64 621.44
  Q 337.07 621.64 337.28 622.06
  C 338.70 624.95 340.30 627.65 340.47 630.88
  Q 340.74 636.02 339.28 641.49
  Q 338.64 643.90 339.46 646.75
  Q 340.37 649.91 341.70 652.89
  C 344.83 659.97 352.81 656.40 358.07 655.39
  Q 358.56 655.30 358.97 655.00
  C 361.96 652.86 367.18 652.11 370.47 651.60
  Q 372.92 651.23 373.97 650.99
  Q 377.52 650.17 378.63 650.72
  A 0.97 0.95 39.3 0 0 379.64 650.63
  Q 382.23 648.65 383.49 650.25
  Q 383.92 650.79 384.19 652.41
  C 384.47 654.15 386.16 657.62 384.22 658.98
  C 380.11 661.86 376.30 665.65 372.62 668.32
  C 365.74 673.31 359.79 678.38 351.63 681.27
  C 345.35 683.49 336.65 682.52 329.93 682.50
  C 326.68 682.49 321.86 682.10 319.85 679.05
  C 318.76 677.41 317.79 676.88 316.32 675.82
  C 314.90 674.79 314.53 673.46 313.69 672.00
  C 312.91 670.64 311.33 669.71 311.25 667.51
  A 0.94 0.92 -71.8 0 0 310.92 666.84
  L 310.63 666.60
  Q 310.44 666.44 310.47 666.19
  Q 310.66 664.62 309.58 663.48
  A 1.38 1.36 -68.8 0 1 309.21 662.62
  C 308.99 658.78 306.65 656.07 306.40 652.91
  Q 306.18 650.13 306.98 647.41
  C 307.57 645.41 310.78 642.11 307.82 640.52
  Q 307.37 640.28 307.23 639.78
  C 306.88 638.51 306.77 637.02 305.57 636.32
  Q 304.29 635.57 303.07 636.55
  A 1.02 1.01 66.6 0 0 302.71 637.48
  Q 303.04 639.82 301.31 641.32
  A 1.40 1.35 73.7 0 0 300.84 642.22
  C 300.38 646.11 298.17 648.16 297.11 651.61
  C 295.93 655.48 292.77 657.14 290.53 660.09
  Q 290.23 660.48 289.75 660.58
  C 286.57 661.25 283.38 662.45 280.08 662.38
  C 273.86 662.24 267.65 664.45 262.35 661.51
  Q 261.92 661.27 261.44 661.22
  L 253.84 660.43
  A 1.24 1.23 -2.8 0 1 252.75 659.45
  Q 252.33 657.30 250.89 655.44
  C 248.55 652.42 249.24 647.87 249.29 644.28
  C 249.32 642.12 250.27 640.61 250.62 638.45
  C 251.17 635.06 252.33 631.64 253.13 628.25
  Q 253.47 626.81 253.79 625.35
  C 254.11 623.91 253.79 622.38 254.07 620.86
  C 254.63 617.85 254.51 615.41 254.82 612.24
  A 0.61 0.61 0.0 0 0 254.19 611.57
  C 252.20 611.65 250.55 612.04 248.77 613.16
  C 236.92 620.65 228.63 626.76 219.60 637.17
  C 209.88 648.39 200.22 659.87 189.04 669.67
  Q 188.97 669.73 186.88 671.28
  C 185.89 672.02 185.22 673.04 184.20 673.71
  Q 180.37 676.22 176.65 678.86
  C 171.48 682.54 168.22 682.44 162.89 683.44
  Q 162.41 683.53 161.94 683.36
  C 157.60 681.74 153.23 683.14 148.74 681.53
  A 1.64 1.63 6.3 0 1 147.68 680.21
  C 147.32 677.36 148.67 675.47 148.52 672.76
  A 1.44 1.44 0.0 0 1 148.76 671.90
  C 155.98 661.04 162.90 649.83 168.71 638.14
  C 170.53 634.48 172.78 631.02 174.68 627.33
  Q 175.93 624.90 177.35 623.04
  C 183.27 615.26 188.67 606.87 195.00 599.46
  Q 198.14 595.79 199.61 593.08
  Q 203.14 586.59 196.31 583.51
  Q 193.29 582.16 191.55 582.88
  Q 185.32 585.46 179.72 589.21
  Q 161.25 601.55 147.09 618.62
  C 146.01 619.91 145.17 621.43 144.34 622.89
  Q 144.14 623.25 143.75 623.41
  Q 143.59 623.47 143.43 623.54
  Q 143.07 623.69 142.92 624.06
  C 142.19 625.90 141.21 627.28 139.10 627.72
  C 136.95 628.17 134.90 628.77 132.68 628.67
  Q 131.97 628.64 131.35 628.97
  Q 130.92 629.21 130.43 629.25
  Q 128.04 629.47 125.64 629.70
  C 123.39 629.91 121.42 631.38 119.10 629.07
  Q 118.74 628.72 118.24 628.77
  Q 113.36 629.31 110.21 624.76
  Q 109.46 623.67 106.29 621.28
  Q 103.78 619.38 104.40 615.50
  C 105.54 608.27 108.80 604.13 113.63 599.62
  Q 113.98 599.29 114.45 599.23
  C 116.58 598.92 118.08 597.04 119.83 596.88
  Q 122.58 596.64 125.34 596.24
  Q 125.90 596.16 126.06 595.62
  Q 126.25 594.97 126.15 594.29
  Q 126.07 593.75 126.47 593.39
  C 130.13 590.07 132.01 587.63 137.76 587.01
  Q 141.18 586.64 143.21 585.44
  Q 159.67 575.73 164.86 573.10
  C 168.70 571.16 174.73 569.91 179.72 567.20
  Q 180.49 566.77 181.40 566.75
  Q 186.17 566.60 190.85 565.68
  Q 191.34 565.58 191.69 565.22
  C 192.75 564.06 194.25 564.36 195.54 564.10
  C 200.52 563.08 207.36 563.78 212.55 563.78
  C 215.17 563.77 217.70 564.26 220.31 564.59
  C 223.05 564.95 224.66 566.14 226.79 567.67
  Q 227.19 567.96 227.17 568.45
  Q 226.98 572.80 228.37 576.85
  Q 229.38 579.78 229.47 581.80
  C 229.70 587.18 230.27 590.33 226.76 594.02
  Q 217.92 603.30 209.01 612.52
  Q 205.98 615.66 203.96 619.84
  A 0.52 0.51 -66.4 0 0 204.23 620.54
  Z"
/>
<path fill="#000000" d="
  M 557.39 623.71
  C 555.28 623.82 554.05 622.77 552.15 622.76
  C 549.09 622.75 544.15 623.56 541.88 621.07
  Q 541.57 620.74 541.13 620.63
  L 535.76 619.38
  Q 535.38 619.29 535.10 619.04
  C 533.10 617.22 530.94 618.58 528.84 619.13
  C 525.58 619.99 521.16 619.52 517.75 619.52
  C 515.44 619.53 513.68 617.55 511.94 616.51
  A 3.00 2.97 -74.9 0 1 510.49 613.96
  L 510.46 608.29
  Q 510.46 607.77 510.83 607.40
  Q 511.36 606.88 511.59 606.19
  Q 511.77 605.65 512.30 605.43
  Q 516.40 603.74 520.79 603.86
  C 523.43 603.94 525.08 603.16 527.40 602.36
  Q 527.75 602.23 531.56 601.37
  C 533.67 600.89 534.97 599.64 537.00 599.33
  C 540.13 598.86 542.13 598.47 545.87 597.36
  Q 549.89 596.18 553.81 597.52
  Q 557.99 598.95 558.85 599.07
  Q 562.48 599.56 566.16 599.15
  Q 566.71 599.09 567.06 598.66
  Q 567.80 597.78 568.81 597.24
  Q 569.29 596.98 569.30 596.43
  Q 569.34 593.57 569.30 590.72
  Q 569.30 590.65 568.85 587.35
  Q 568.35 583.74 571.69 581.11
  A 1.57 1.56 43.0 0 1 573.54 581.05
  Q 574.29 581.56 575.15 581.25
  Q 575.64 581.08 576.13 581.24
  Q 579.96 582.45 583.77 583.64
  C 588.21 585.03 590.57 590.88 590.54 595.34
  Q 590.54 595.87 590.93 596.23
  Q 591.78 596.99 592.87 597.35
  Q 593.41 597.53 593.65 598.05
  Q 594.26 599.33 595.78 599.25
  A 1.20 1.19 66.1 0 1 596.70 599.61
  L 598.22 601.15
  A 1.10 1.08 -21.1 0 0 598.98 601.48
  Q 604.98 601.70 607.24 602.52
  C 612.11 604.28 614.86 603.62 619.30 603.98
  Q 622.13 604.20 621.53 606.98
  L 621.06 609.15
  Q 620.43 612.05 617.46 611.99
  Q 610.29 611.83 604.88 612.64
  Q 604.22 612.73 603.76 613.33
  Q 603.45 613.72 602.97 613.78
  C 598.67 614.36 596.60 616.86 593.28 619.32
  C 590.73 621.21 590.21 622.88 588.85 625.55
  C 586.86 629.45 588.34 633.26 587.11 637.60
  Q 586.97 638.08 587.18 638.55
  Q 587.82 639.95 587.75 641.49
  A 1.50 1.46 31.2 0 0 587.97 642.33
  C 589.24 644.37 590.46 645.92 590.99 648.38
  Q 591.89 652.60 593.94 656.41
  A 1.77 1.77 0.0 0 0 594.65 657.12
  Q 596.49 658.09 596.65 660.25
  A 1.09 1.08 -2.2 0 0 597.75 661.26
  L 600.73 661.25
  Q 601.22 661.24 601.30 660.76
  C 601.48 659.70 601.74 659.12 602.74 658.58
  C 606.48 656.57 609.66 654.16 613.26 652.04
  Q 617.61 649.49 619.52 648.15
  Q 627.69 642.38 634.90 635.41
  C 636.85 633.52 642.61 629.82 646.37 629.62
  C 649.43 629.46 652.99 628.38 656.38 629.23
  C 658.24 629.70 659.55 629.48 661.37 629.64
  Q 661.88 629.69 662.27 630.01
  C 666.37 633.49 670.41 636.69 675.58 632.53
  C 677.69 630.83 678.38 631.30 680.45 632.90
  Q 682.12 634.18 684.44 634.74
  A 1.47 1.47 0.0 0 1 685.56 636.39
  C 685.04 639.96 687.11 641.28 688.23 644.09
  C 688.98 645.99 689.66 647.37 690.08 649.61
  C 690.62 652.47 692.31 652.55 693.66 654.71
  Q 693.91 655.12 694.35 655.31
  Q 695.88 655.98 697.45 656.32
  C 700.04 656.89 702.55 655.33 704.75 655.44
  C 708.25 655.62 709.68 656.03 712.83 654.16
  C 721.42 649.04 733.10 640.26 735.45 630.23
  Q 736.65 625.13 738.82 621.59
  C 740.81 618.32 745.17 617.52 747.04 615.30
  C 748.96 613.03 751.96 608.22 751.69 604.69
  Q 751.65 604.16 751.29 603.78
  Q 749.47 601.86 747.09 600.82
  C 745.72 600.21 744.29 598.58 743.39 598.33
  C 740.24 597.47 737.65 594.96 733.34 595.26
  Q 732.85 595.29 732.44 595.02
  Q 729.83 593.32 727.73 593.33
  Q 723.03 593.35 719.64 591.69
  C 717.43 590.62 716.34 588.42 714.13 587.28
  Q 709.47 584.87 704.64 582.87
  Q 699.03 580.56 697.50 579.17
  Q 694.11 576.10 694.24 571.23
  Q 694.29 569.19 696.95 567.47
  C 700.65 565.08 704.56 563.12 708.57 563.85
  Q 710.95 564.28 712.51 564.24
  C 718.23 564.10 723.21 564.74 728.69 566.33
  C 731.34 567.11 734.10 566.82 736.70 567.74
  C 741.85 569.54 745.93 570.91 750.00 574.79
  Q 750.34 575.12 750.42 575.58
  Q 750.77 577.62 752.82 577.78
  Q 753.35 577.82 753.76 578.14
  Q 756.08 579.96 758.40 581.71
  C 759.43 582.50 761.09 582.72 761.69 584.53
  Q 761.84 584.98 762.24 585.23
  C 767.36 588.46 774.68 577.71 777.62 574.62
  C 778.99 573.18 779.83 571.66 781.60 570.67
  Q 783.85 569.41 785.96 567.93
  C 788.52 566.13 791.12 565.94 793.88 564.45
  Q 794.32 564.21 794.83 564.25
  Q 797.37 564.46 799.74 563.76
  Q 801.54 563.23 806.17 564.87
  Q 811.78 566.85 813.49 567.22
  A 1.11 1.07 -17.4 0 1 813.95 567.45
  Q 815.85 569.16 818.05 570.44
  C 822.97 573.33 822.19 578.73 817.10 580.68
  Q 816.64 580.85 816.31 581.22
  Q 813.65 584.15 810.49 586.55
  C 807.38 588.92 805.94 592.06 803.63 595.06
  Q 803.19 595.63 800.55 598.10
  C 799.10 599.45 798.23 601.39 796.97 602.78
  Q 791.30 609.07 787.99 616.88
  Q 787.80 617.32 787.88 617.80
  C 788.62 621.90 792.79 625.03 794.82 628.82
  Q 795.06 629.26 795.51 629.49
  Q 796.38 629.95 796.63 630.39
  Q 798.66 634.02 800.81 637.58
  Q 801.26 638.32 803.12 640.47
  C 804.24 641.77 804.76 643.42 805.92 644.60
  Q 808.58 647.27 810.98 650.17
  Q 811.33 650.59 811.86 650.49
  Q 813.05 650.27 813.76 651.18
  Q 814.06 651.56 814.54 651.48
  Q 816.23 651.21 817.71 650.29
  A 1.00 1.00 0.0 0 0 818.18 649.54
  Q 818.42 647.30 820.44 646.43
  Q 820.85 646.25 821.02 645.83
  C 822.90 641.18 819.51 636.89 824.11 633.05
  Q 824.49 632.74 824.97 632.79
  Q 826.14 632.91 827.04 632.22
  Q 827.45 631.91 827.95 631.89
  Q 831.89 631.71 835.66 630.65
  C 838.56 629.84 841.34 629.84 844.25 629.19
  A 1.69 1.66 -40.1 0 1 845.26 629.27
  Q 846.19 629.63 847.20 629.58
  Q 847.71 629.56 848.17 629.79
  C 850.10 630.74 854.20 630.40 854.74 632.78
  A 1.41 1.39 13.1 0 0 855.22 633.54
  C 859.45 636.92 859.25 641.14 859.54 646.75
  Q 859.57 647.26 860.07 647.31
  C 861.80 647.51 863.22 647.61 864.71 646.45
  Q 867.04 644.65 869.42 642.93
  A 1.61 1.58 -59.8 0 1 870.48 642.64
  Q 873.01 642.84 874.88 641.15
  Q 875.20 640.87 875.61 640.76
  L 883.40 638.67
  Q 883.92 638.53 884.22 638.09
  Q 884.45 637.76 884.83 637.63
  Q 889.24 636.03 894.00 636.66
  C 895.46 636.85 898.37 635.87 900.33 635.86
  Q 905.98 635.84 913.50 636.67
  C 916.38 636.99 914.47 640.73 918.51 640.44
  A 1.37 1.36 -88.5 0 0 919.78 639.23
  Q 920.14 636.30 921.94 633.95
  A 1.54 1.52 64.8 0 0 922.26 633.04
  Q 922.30 629.55 925.64 629.12
  Q 928.49 628.76 937.49 628.64
  C 939.80 628.61 942.26 627.65 945.00 628.04
  Q 951.23 628.91 953.75 629.71
  C 957.33 630.84 960.70 633.75 963.40 637.81
  C 965.20 640.52 964.34 643.92 964.81 647.05
  C 965.42 651.19 957.43 651.79 955.70 653.38
  C 953.91 655.04 953.85 657.72 954.84 660.19
  C 955.66 662.26 959.50 661.18 960.44 659.95
  C 962.27 657.57 962.72 658.60 965.09 658.01
  C 968.59 657.14 968.18 653.87 969.51 651.74
  Q 971.42 648.69 975.00 644.58
  C 976.15 643.25 976.83 641.44 977.97 640.24
  Q 980.58 637.48 983.17 634.70
  C 984.83 632.93 987.09 632.18 988.90 630.31
  A 1.67 1.64 15.2 0 1 989.72 629.85
  Q 994.41 628.83 999.06 627.85
  C 1002.78 627.06 1006.64 628.53 1010.40 628.79
  C 1012.37 628.93 1014.09 628.80 1015.95 629.64
  Q 1019.79 631.38 1023.80 632.66
  Q 1024.30 632.82 1024.56 633.26
  L 1027.79 638.61
  Q 1028.05 639.05 1027.97 639.56
  L 1027.09 645.14
  A 0.67 0.61 -26.3 0 1 1026.98 645.42
  Q 1025.35 647.66 1025.17 650.43
  Q 1025.13 650.93 1024.80 651.30
  Q 1020.83 655.61 1015.18 657.33
  Q 1012.00 658.31 1010.51 659.41
  Q 1006.83 662.15 1011.40 661.80
  C 1012.58 661.71 1013.78 661.84 1015.14 661.23
  Q 1022.14 658.11 1029.13 654.97
  C 1032.31 653.55 1036.46 652.74 1039.95 650.96
  C 1048.01 646.84 1057.11 641.58 1062.05 633.77
  Q 1064.16 630.43 1065.52 629.67
  C 1069.08 627.67 1074.01 629.26 1077.21 631.20
  Q 1077.65 631.46 1078.16 631.47
  C 1079.28 631.49 1079.76 631.58 1080.60 632.40
  Q 1083.28 635.01 1086.54 636.79
  Q 1086.99 637.04 1087.14 637.53
  C 1087.68 639.26 1089.24 639.76 1090.14 640.69
  C 1093.55 644.24 1094.54 646.37 1095.66 650.21
  C 1096.12 651.79 1097.50 652.11 1097.83 653.58
  Q 1098.60 657.02 1098.26 660.75
  A 1.11 1.11 0.0 0 0 1099.74 661.89
  Q 1102.55 660.88 1103.97 658.33
  Q 1104.22 657.89 1104.66 657.65
  C 1108.43 655.62 1113.23 656.51 1116.25 655.03
  Q 1118.18 654.09 1120.78 651.36
  C 1124.76 647.19 1130.26 644.18 1134.79 640.52
  C 1138.70 637.35 1141.62 633.19 1144.86 629.23
  Q 1145.23 628.77 1145.81 628.82
  L 1153.93 629.45
  Q 1154.41 629.48 1154.82 629.74
  Q 1158.65 632.19 1162.40 634.72
  C 1163.33 635.34 1163.83 636.39 1165.22 636.62
  A 0.83 0.83 0.0 0 1 1165.82 637.03
  L 1166.79 638.77
  Q 1167.01 639.15 1167.39 639.36
  C 1170.70 641.19 1171.17 643.09 1173.40 646.10
  C 1174.18 647.17 1174.38 648.73 1175.00 649.92
  Q 1175.97 651.76 1176.49 653.78
  Q 1176.93 655.48 1177.91 657.58
  Q 1179.74 661.50 1178.66 666.22
  A 0.20 0.20 0.0 0 0 1178.86 666.47
  L 1180.71 666.43
  Q 1181.29 666.41 1181.67 665.97
  C 1183.69 663.66 1186.50 663.63 1188.66 662.94
  Q 1190.95 662.22 1193.35 662.16
  C 1198.65 662.04 1201.64 661.37 1204.67 665.03
  Q 1205.74 666.32 1204.80 667.74
  C 1203.02 670.40 1200.07 672.03 1198.05 674.08
  C 1195.32 676.86 1192.03 678.34 1188.94 680.35
  C 1186.95 681.65 1185.40 682.01 1183.20 682.59
  C 1181.12 683.14 1179.53 684.59 1177.38 685.22
  C 1172.52 686.63 1169.52 688.36 1163.99 688.38
  Q 1162.51 688.39 1161.52 689.68
  Q 1161.21 690.08 1160.72 690.17
  C 1158.69 690.57 1156.73 690.10 1154.88 691.09
  Q 1154.52 691.29 1154.08 691.31
  Q 1152.47 691.40 1149.26 692.06
  Q 1142.28 693.51 1130.50 692.27
  C 1129.54 692.16 1126.24 691.44 1125.31 690.97
  Q 1120.74 688.67 1117.61 684.62
  Q 1117.31 684.23 1117.32 683.73
  C 1117.36 682.24 1117.02 680.67 1117.85 679.40
  C 1119.23 677.27 1121.50 677.33 1123.73 676.53
  C 1128.07 674.97 1133.33 675.10 1137.88 675.33
  Q 1138.38 675.36 1138.81 675.09
  Q 1140.49 674.05 1142.19 673.19
  C 1146.82 670.87 1149.78 659.80 1150.02 654.71
  Q 1150.04 654.20 1149.59 653.99
  Q 1148.64 653.53 1148.03 654.54
  Q 1145.95 658.01 1145.12 658.89
  C 1141.22 662.97 1135.83 667.96 1130.84 668.80
  C 1127.54 669.36 1125.28 671.14 1122.11 671.97
  Q 1119.59 672.62 1118.18 673.76
  C 1116.51 675.11 1115.04 676.71 1113.45 677.97
  Q 1111.39 679.61 1109.39 681.37
  A 1.51 1.47 22.3 0 1 1108.50 681.73
  Q 1104.40 681.97 1101.03 684.33
  A 1.65 1.59 25.1 0 1 1100.15 684.63
  C 1097.15 684.75 1094.29 687.12 1091.20 687.49
  Q 1087.25 687.97 1083.49 689.18
  C 1080.55 690.12 1077.89 690.41 1074.95 691.15
  Q 1072.80 691.69 1071.52 691.85
  Q 1064.17 692.79 1054.37 692.55
  Q 1053.02 692.52 1052.33 692.08
  Q 1051.92 691.82 1051.43 691.76
  L 1047.45 691.27
  Q 1047.00 691.21 1046.60 690.98
  C 1045.29 690.21 1043.77 689.81 1042.63 689.02
  Q 1039.52 686.89 1037.46 683.68
  Q 1037.20 683.27 1037.20 682.78
  L 1037.18 680.67
  Q 1037.17 679.07 1038.64 678.42
  L 1045.92 675.21
  A 1.22 1.21 42.1 0 1 1046.82 675.17
  Q 1047.29 675.33 1047.51 675.24
  C 1050.55 674.08 1053.45 676.52 1056.99 675.52
  C 1062.34 674.00 1066.33 671.53 1068.05 665.95
  C 1068.86 663.30 1071.64 656.94 1070.81 654.43
  A 0.88 0.88 0.0 0 0 1069.21 654.27
  C 1062.84 665.08 1052.85 670.06 1040.55 670.71
  C 1038.43 670.83 1036.72 669.85 1034.63 669.83
  Q 1033.59 669.82 1032.65 669.43
  C 1028.60 667.75 1021.60 670.81 1018.35 673.40
  Q 1015.42 675.74 1011.66 676.57
  Q 1011.14 676.68 1010.86 677.14
  Q 1010.48 677.76 1009.70 677.76
  A 0.98 0.98 0.0 0 0 1008.89 678.16
  L 1008.57 678.57
  Q 1008.45 678.73 1008.25 678.76
  L 1001.08 679.94
  Q 1000.88 679.97 1000.79 680.14
  L 1000.66 680.37
  Q 1000.48 680.69 1000.12 680.62
  C 996.58 679.98 994.26 681.74 991.44 682.02
  C 984.29 682.72 980.01 681.44 974.47 677.78
  C 972.51 676.49 971.46 674.70 970.04 672.89
  Q 969.75 672.52 969.31 672.39
  C 968.17 672.06 967.41 671.67 966.20 672.01
  Q 959.24 673.95 952.86 677.27
  Q 950.54 678.47 947.68 679.58
  C 944.37 680.87 941.75 683.15 937.77 682.12
  Q 931.64 680.54 929.01 674.75
  C 925.05 666.00 925.40 659.37 932.74 653.18
  Q 935.56 650.81 931.89 651.05
  Q 930.43 651.15 928.40 653.40
  C 924.53 657.69 919.67 661.44 915.76 665.09
  C 910.69 669.82 904.74 673.83 899.60 677.73
  Q 895.12 681.14 891.44 683.06
  C 885.94 685.93 881.89 687.34 875.90 688.57
  Q 874.91 688.77 873.03 689.70
  C 870.95 690.72 868.01 690.46 866.10 690.82
  Q 864.29 691.15 862.44 691.20
  Q 861.96 691.21 861.52 691.01
  C 859.76 690.20 856.33 691.55 855.05 692.87
  C 853.65 694.32 853.40 697.47 852.02 699.48
  A 1.85 1.78 -26.1 0 0 851.69 700.38
  Q 851.41 703.92 849.27 706.74
  C 848.48 707.77 848.41 708.41 848.41 709.63
  Q 848.42 710.13 848.18 710.56
  C 845.49 715.54 842.26 720.20 839.85 725.31
  C 839.09 726.93 837.86 728.14 837.06 729.78
  C 835.69 732.54 834.34 734.13 831.66 734.94
  Q 825.94 736.69 822.05 739.10
  Q 821.67 739.33 821.23 739.35
  L 817.05 739.53
  A 2.31 2.30 75.8 0 1 814.87 738.22
  C 813.28 734.90 810.84 731.83 810.72 728.13
  C 810.47 720.44 815.58 714.64 820.63 708.91
  C 827.14 701.52 828.41 692.65 830.74 683.46
  Q 830.84 683.07 831.11 682.78
  Q 831.25 682.63 831.40 682.49
  A 1.33 1.30 -19.8 0 0 831.74 681.79
  Q 832.08 679.26 833.17 676.96
  Q 833.33 676.62 833.26 675.99
  Q 833.21 675.48 833.45 675.03
  Q 834.23 673.54 834.95 672.02
  Q 835.29 671.31 835.93 668.85
  C 836.59 666.35 838.46 663.88 837.63 660.98
  Q 837.49 660.49 836.98 660.57
  C 832.62 661.22 828.57 660.28 824.94 663.09
  A 1.00 1.00 0.0 0 0 825.19 664.81
  Q 827.77 665.84 828.26 668.69
  Q 828.29 668.90 828.11 669.37
  Q 828.06 669.51 827.95 669.63
  Q 827.83 669.76 827.83 669.94
  Q 827.80 672.63 827.14 675.26
  Q 827.02 675.71 826.56 675.70
  C 824.91 675.68 823.77 675.64 822.22 676.38
  C 817.95 678.43 814.90 679.77 810.35 679.78
  Q 810.05 679.78 809.83 679.99
  Q 809.71 680.10 809.60 680.20
  Q 809.51 680.29 809.39 680.32
  C 806.38 681.09 801.46 681.87 798.66 679.82
  Q 798.26 679.53 797.78 679.45
  C 793.62 678.75 791.85 676.26 789.17 673.73
  C 784.90 669.71 782.16 665.07 780.47 659.44
  C 780.01 657.94 778.88 656.94 778.40 655.81
  Q 777.52 653.73 777.34 649.06
  Q 777.32 648.58 777.04 648.19
  Q 776.82 647.88 776.81 647.49
  Q 776.65 643.29 775.33 639.30
  Q 775.18 638.84 774.72 638.68
  Q 774.06 638.45 773.35 638.49
  Q 772.86 638.51 772.68 638.96
  Q 771.83 641.05 769.43 643.70
  C 768.16 645.11 767.26 647.58 765.72 649.27
  Q 762.29 653.08 758.42 656.43
  Q 758.28 656.55 758.14 656.76
  Q 757.87 657.19 757.47 657.50
  L 736.87 673.43
  Q 736.43 673.77 735.87 673.76
  Q 735.28 673.76 734.85 674.15
  Q 734.48 674.49 734.01 674.67
  Q 732.30 675.36 730.52 675.72
  C 728.88 676.04 726.77 677.05 724.54 676.74
  A 1.76 1.67 -50.9 0 0 723.62 676.86
  C 722.32 677.39 721.13 677.32 719.89 677.94
  Q 715.90 679.94 711.41 679.70
  C 710.23 679.63 708.68 680.29 707.76 680.03
  Q 705.81 679.47 702.52 680.02
  Q 697.55 680.85 691.32 679.41
  A 1.80 1.78 -16.6 0 1 690.50 678.97
  C 687.38 675.97 683.93 674.94 679.58 676.21
  C 677.08 676.93 675.33 677.55 672.68 677.82
  Q 672.19 677.87 671.76 678.11
  Q 668.87 679.74 665.49 679.79
  Q 664.97 679.80 664.54 680.06
  Q 664.21 680.25 663.84 680.34
  Q 654.29 682.51 650.00 682.50
  Q 640.96 682.49 632.62 682.51
  A 6.59 6.53 65.5 0 1 628.24 680.85
  C 625.80 678.68 621.83 676.89 620.56 673.52
  A 2.18 2.17 70.0 0 0 617.80 672.23
  C 614.86 673.26 613.27 675.37 610.57 676.23
  C 608.24 676.98 606.50 677.59 603.92 678.80
  C 602.16 679.64 600.61 679.59 598.77 680.39
  C 596.41 681.41 593.11 681.23 590.53 681.76
  C 586.74 682.55 584.52 681.50 581.00 680.70
  C 570.52 678.32 564.35 670.15 559.43 661.64
  A 6.74 6.73 30.5 0 1 558.54 658.22
  C 558.59 654.27 559.37 646.75 556.67 643.46
  Q 556.34 643.06 556.30 642.53
  Q 556.20 640.92 557.21 639.69
  A 0.92 0.86 67.1 0 0 557.41 639.15
  L 557.98 624.29
  Q 558.00 623.68 557.39 623.71
  Z
  M 1006.6195 642.3649
  A 8.48 2.61 -38.9 0 0 998.3810 645.6588
  A 8.48 2.61 -38.9 0 0 993.4205 653.0151
  A 8.48 2.61 -38.9 0 0 1001.6590 649.7212
  A 8.48 2.61 -38.9 0 0 1006.6195 642.3649
  Z
  M 661.57 664.18
  C 662.25 663.02 662.47 662.09 663.79 661.31
  Q 664.22 661.06 664.34 660.56
  C 665.43 655.90 664.27 651.36 664.97 646.83
  A 1.51 1.50 -81.9 0 0 663.68 645.11
  C 658.89 644.50 657.93 648.18 655.10 650.78
  Q 652.61 653.06 650.08 655.31
  C 648.51 656.70 648.03 658.39 647.46 660.27
  A 2.45 2.44 14.5 0 0 649.29 663.37
  C 650.65 663.67 651.76 664.27 653.27 664.21
  Q 657.03 664.08 660.80 664.56
  Q 661.31 664.63 661.57 664.18
  Z
  M 887.86 653.29
  C 885.12 653.88 882.42 654.18 879.72 654.90
  Q 877.22 655.57 874.79 657.53
  C 871.90 659.87 868.17 662.10 866.01 665.15
  Q 864.80 666.84 863.56 668.52
  C 862.18 670.38 860.83 675.78 864.75 675.75
  Q 867.74 675.74 870.11 675.45
  Q 872.45 675.17 875.06 673.65
  Q 881.61 669.86 886.57 667.34
  Q 893.87 663.63 892.96 655.70
  Q 892.90 655.19 892.54 654.84
  Q 890.45 652.75 887.86 653.29
  Z"
/>
<path fill="#000000" d="
  M 386.35 626.49
  Q 383.12 625.14 379.54 625.60
  A 1.39 1.34 56.1 0 1 378.62 625.40
  C 375.14 623.23 367.95 622.17 371.06 616.02
  Q 371.27 615.59 371.70 615.39
  L 378.71 612.07
  Q 379.24 611.82 379.59 611.36
  C 381.02 609.48 384.35 609.96 386.91 609.98
  Q 388.77 609.99 391.55 609.71
  Q 398.44 609.03 405.25 610.38
  Q 405.75 610.48 406.08 610.86
  C 407.59 612.56 409.61 613.47 410.68 615.84
  C 411.99 618.76 410.83 621.88 411.70 625.01
  C 412.51 627.95 406.12 630.38 404.48 630.59
  Q 402.94 630.78 401.55 629.15
  A 1.07 1.07 0.0 0 0 400.71 628.77
  Q 395.04 628.79 389.46 628.04
  C 388.00 627.84 387.31 626.89 386.35 626.49
  Z"
/>
<path fill="#000000" d="
  M 515.73 653.60
  A 3.65 0.14 54.2 0 0 517.67 656.08
  Q 518.33 656.61 520.25 656.39
  Q 520.79 656.32 522.73 655.82
  Q 527.52 654.59 532.19 656.38
  Q 532.67 656.56 532.89 657.02
  L 534.25 659.83
  A 0.89 0.88 -13.8 0 0 535.08 660.33
  L 535.96 660.30
  Q 536.36 660.28 536.39 660.68
  Q 536.64 664.04 535.85 667.22
  C 535.48 668.76 534.40 669.66 533.78 671.22
  A 0.78 0.77 -78.4 0 1 533.05 671.71
  C 529.36 671.65 526.66 673.38 523.41 673.73
  Q 519.99 674.09 516.59 674.55
  C 514.90 674.78 512.27 675.73 510.25 675.50
  Q 508.52 675.31 507.44 675.35
  Q 506.98 675.37 506.56 675.20
  Q 503.58 674.01 500.40 674.08
  Q 499.90 674.09 499.53 674.42
  C 497.61 676.07 493.84 679.95 491.23 679.72
  Q 490.71 679.68 490.33 680.04
  L 490.09 680.28
  Q 489.83 680.52 489.48 680.51
  C 487.24 680.47 485.37 680.44 483.09 680.97
  Q 476.13 682.60 468.96 682.55
  C 463.39 682.50 454.68 683.70 450.08 680.12
  C 447.92 678.42 446.29 678.20 443.89 679.14
  Q 443.43 679.32 442.94 679.27
  C 440.07 678.97 438.67 680.86 436.59 681.44
  Q 431.08 682.98 425.33 683.10
  Q 425.16 683.10 424.84 683.26
  Q 424.42 683.46 423.96 683.46
  C 417.70 683.43 407.31 684.47 401.76 681.20
  C 396.35 678.02 389.75 675.42 389.72 668.15
  C 389.70 661.64 390.01 656.74 387.89 649.60
  C 386.74 645.73 381.41 642.87 385.29 638.51
  Q 385.65 638.11 386.15 637.92
  L 388.74 636.96
  Q 389.20 636.79 389.67 636.90
  C 390.44 637.06 390.84 637.44 391.60 637.52
  C 393.83 637.76 395.80 636.95 397.81 636.92
  Q 400.72 636.88 403.41 636.35
  A 2.41 2.41 0.0 0 1 405.23 636.73
  Q 407.27 638.15 409.00 640.13
  Q 409.82 641.07 410.97 643.71
  C 411.78 645.56 413.04 646.65 413.68 648.57
  Q 415.31 653.49 418.35 657.72
  Q 418.82 658.37 418.80 660.22
  Q 418.80 660.66 419.06 661.02
  Q 419.90 662.15 421.31 662.26
  A 1.44 1.42 -21.2 0 1 422.16 662.63
  C 425.59 665.83 429.73 663.21 433.19 661.86
  C 435.57 660.93 439.28 658.48 440.68 656.30
  C 445.71 648.41 453.41 637.70 461.39 632.68
  C 462.83 631.77 464.81 631.45 466.49 630.49
  Q 467.57 629.87 468.52 629.73
  C 476.61 628.53 481.41 628.22 488.95 630.90
  Q 489.46 631.08 489.41 631.62
  Q 489.33 632.52 489.64 633.37
  Q 489.79 633.79 490.24 633.84
  C 494.38 634.26 497.85 634.48 500.16 631.71
  A 1.33 1.33 0.0 0 1 502.45 632.20
  Q 502.54 632.52 503.50 633.00
  Q 506.49 634.47 509.27 636.35
  A 0.63 0.62 26.0 0 1 509.51 637.04
  Q 508.31 641.13 511.03 644.14
  Q 511.36 644.49 511.42 644.97
  C 511.65 646.64 511.72 649.94 513.77 650.34
  A 0.91 0.91 0.0 0 1 514.48 651.01
  Q 514.85 652.40 515.73 653.60
  Z
  M 488.36 649.90
  C 488.82 648.21 489.46 643.01 485.99 644.23
  C 482.14 645.58 479.24 649.40 477.07 651.24
  C 474.97 653.01 472.80 654.55 471.52 657.13
  Q 470.82 658.52 469.87 659.77
  Q 469.57 660.16 469.67 660.64
  C 470.19 663.02 471.94 663.66 474.27 664.46
  Q 474.76 664.63 475.25 664.50
  Q 478.18 663.76 480.98 664.82
  A 3.57 3.46 25.9 0 0 485.27 663.41
  Q 485.53 662.98 486.44 662.47
  C 489.69 660.67 488.78 653.39 488.32 650.79
  Q 488.24 650.34 488.36 649.90
  Z"
/>
<path fill="#000000" d="
  M 185.00 715.34
  L 185.25 715.41
  Q 185.39 715.45 185.42 715.60
  L 186.60 721.59
  Q 186.71 722.16 187.17 722.52
  Q 188.95 723.94 189.25 725.51
  Q 190.29 730.90 192.55 734.72
  C 193.69 736.65 194.13 738.27 194.78 740.26
  C 195.38 742.07 196.89 743.68 196.78 746.22
  Q 196.76 746.68 197.01 747.08
  C 198.01 748.64 199.07 749.63 199.51 751.50
  C 200.30 754.86 202.55 758.02 204.21 761.04
  C 205.08 762.61 205.41 764.86 206.68 766.59
  Q 206.98 767.00 207.07 767.50
  Q 207.42 769.41 208.31 771.14
  C 208.97 772.42 210.23 772.88 210.65 774.57
  Q 210.75 774.97 211.08 775.23
  Q 211.64 775.67 211.55 776.46
  Q 211.49 776.98 211.78 777.42
  Q 212.79 778.97 213.71 780.56
  C 214.18 781.37 214.27 782.56 215.28 783.29
  Q 215.75 783.62 215.96 784.16
  L 216.51 785.66
  A 0.94 0.83 -81.3 0 0 216.71 785.97
  Q 218.40 787.66 218.64 790.05
  Q 218.68 790.49 218.95 790.85
  C 221.35 794.04 223.39 798.03 225.30 800.83
  C 226.59 802.71 227.03 804.97 228.74 806.78
  Q 229.14 807.21 229.28 807.79
  L 229.59 809.18
  A 1.37 1.34 10.8 0 0 230.16 810.00
  C 231.99 811.17 232.49 812.93 233.71 814.47
  C 234.84 815.91 235.07 817.40 236.19 818.75
  Q 238.60 821.66 240.44 824.96
  C 241.23 826.36 242.44 827.27 243.34 828.68
  Q 243.81 829.43 245.11 831.01
  C 246.00 832.09 246.26 833.50 247.02 834.57
  C 249.01 837.35 250.83 840.50 253.21 842.95
  C 253.97 843.74 254.38 844.90 255.02 845.67
  Q 257.47 848.68 259.85 851.75
  C 260.33 852.38 261.89 853.56 262.40 854.75
  C 263.92 858.26 267.43 860.30 269.45 863.29
  C 270.63 865.03 271.98 866.61 273.05 868.70
  Q 273.58 869.72 274.84 870.34
  Q 275.29 870.56 275.57 870.96
  C 277.30 873.41 279.79 875.88 281.39 877.75
  C 285.37 882.38 290.62 886.71 294.32 892.28
  A 1.67 1.64 82.3 0 0 295.15 892.92
  Q 297.64 893.79 298.72 896.21
  Q 298.93 896.67 299.38 896.90
  C 301.39 897.92 301.70 899.63 303.79 900.61
  Q 304.24 900.82 304.19 901.31
  Q 304.18 901.46 304.19 901.60
  Q 304.22 902.06 304.67 902.14
  Q 305.54 902.30 305.91 902.84
  Q 308.00 905.85 310.89 907.35
  Q 311.42 907.63 311.78 908.11
  L 313.98 911.02
  A 0.93 0.93 0.0 0 0 314.71 911.40
  Q 315.43 911.43 315.55 912.16
  Q 315.63 912.67 316.00 913.04
  Q 317.24 914.26 318.68 915.19
  C 320.82 916.58 322.17 918.29 324.13 919.79
  C 324.52 920.10 324.59 920.32 324.76 920.75
  Q 324.90 921.11 325.25 921.27
  C 327.32 922.23 328.64 924.01 330.33 925.07
  C 331.61 925.87 332.57 926.41 333.64 927.67
  C 334.97 929.24 337.09 930.20 338.25 932.01
  Q 338.52 932.44 338.99 932.65
  Q 342.62 934.27 343.67 935.34
  Q 347.60 939.34 350.20 940.82
  Q 350.63 941.07 350.87 941.49
  L 351.63 942.83
  A 1.08 1.08 0.0 0 0 352.29 943.35
  Q 356.76 944.54 357.39 949.16
  Q 357.45 949.64 356.99 949.77
  Q 352.27 951.08 347.24 951.20
  C 345.71 951.23 343.97 953.35 342.22 953.68
  C 341.12 953.88 339.97 953.77 339.00 954.32
  Q 334.34 956.95 329.83 959.84
  Q 321.58 965.14 313.44 974.96
  Q 310.37 978.67 306.15 975.36
  Q 299.91 970.48 279.83 952.12
  Q 279.75 952.04 277.14 949.93
  C 275.82 948.86 274.81 947.52 273.76 946.54
  C 241.51 916.42 212.84 881.98 188.97 844.88
  C 187.26 842.21 184.73 837.58 182.21 834.16
  C 180.71 832.12 179.88 829.86 178.55 827.68
  C 165.79 806.87 156.27 786.42 145.73 763.50
  C 144.65 761.14 144.01 758.25 142.84 755.69
  Q 141.98 753.79 141.57 752.15
  C 140.49 747.79 137.96 743.80 137.10 740.21
  Q 137.01 739.83 136.46 739.50
  Q 136.03 739.24 135.98 738.74
  C 135.65 735.73 134.38 734.19 133.83 731.77
  C 133.06 728.38 132.23 726.11 130.69 722.37
  C 129.96 720.57 129.89 718.79 129.09 717.04
  Q 127.02 712.50 126.52 707.49
  A 1.71 1.67 23.4 0 0 126.16 706.61
  Q 125.40 705.64 125.26 705.00
  Q 124.48 701.22 122.23 696.94
  A 0.80 0.79 72.9 0 1 122.84 695.78
  L 123.44 695.72
  Q 123.75 695.69 123.91 695.43
  C 125.96 692.20 129.76 694.46 131.90 696.34
  Q 132.27 696.67 132.77 696.68
  Q 136.67 696.70 139.00 697.75
  Q 141.92 699.05 144.32 698.96
  Q 144.98 698.93 145.66 699.11
  C 148.44 699.82 156.36 700.04 159.07 699.30
  C 161.64 698.60 164.46 698.93 167.15 698.45
  Q 167.61 698.36 167.95 698.03
  C 169.57 696.38 174.83 696.53 176.88 696.77
  C 181.35 697.31 180.16 701.54 180.60 704.37
  Q 180.68 704.87 181.02 705.24
  C 183.56 708.00 183.54 711.42 184.44 714.76
  A 0.83 0.82 -89.5 0 0 185.00 715.34
  Z"
/>
<path fill="#000000" d="
  M 1139.97 709.19
  C 1141.81 707.34 1143.83 707.92 1145.78 707.67
  Q 1148.56 707.33 1151.40 707.48
  Q 1151.90 707.51 1152.32 707.22
  C 1155.43 705.02 1158.57 705.22 1162.14 704.70
  C 1163.96 704.43 1165.34 704.93 1165.83 706.73
  C 1166.22 708.14 1165.46 709.39 1165.15 710.90
  Q 1164.99 711.68 1164.53 712.49
  Q 1163.05 715.10 1162.77 719.26
  C 1162.63 721.39 1160.85 723.85 1160.25 726.34
  C 1159.83 728.09 1158.90 729.43 1158.45 730.95
  Q 1157.24 734.95 1156.05 738.95
  C 1155.51 740.80 1154.15 742.29 1153.70 744.37
  Q 1153.59 744.87 1153.30 745.27
  C 1152.39 746.49 1152.46 747.94 1152.05 749.07
  C 1150.95 752.08 1150.27 754.35 1148.45 757.38
  C 1146.97 759.86 1146.40 762.77 1145.28 765.09
  C 1142.93 769.99 1140.90 775.68 1138.89 779.99
  C 1125.51 808.62 1109.62 836.10 1091.84 862.21
  Q 1086.55 869.98 1080.09 878.37
  C 1062.40 901.35 1048.37 916.59 1026.39 939.64
  Q 1020.43 945.89 995.13 967.68
  C 992.28 970.13 988.62 972.86 985.24 976.25
  C 982.61 978.89 979.43 976.52 977.27 973.73
  Q 974.56 970.24 967.18 965.55
  C 964.92 964.12 961.97 963.55 959.14 962.12
  Q 954.39 959.73 946.23 958.71
  Q 945.74 958.64 945.36 958.33
  C 943.17 956.50 937.57 956.29 934.77 956.19
  C 932.09 956.10 930.12 955.70 927.92 954.64
  A 1.23 1.23 0.0 0 1 927.37 952.95
  L 928.30 951.20
  Q 928.49 950.86 928.83 950.67
  Q 930.01 950.01 932.87 947.86
  C 956.67 930.01 978.03 912.38 997.28 892.15
  Q 1015.66 872.83 1028.76 856.25
  Q 1033.64 850.07 1046.49 832.47
  C 1054.90 820.95 1062.56 808.46 1069.48 796.03
  C 1070.99 793.32 1072.57 791.13 1074.01 788.13
  C 1074.81 786.47 1076.02 784.95 1076.77 783.45
  C 1082.84 771.37 1089.55 758.51 1094.41 747.19
  Q 1100.34 733.37 1105.54 719.27
  C 1106.35 717.08 1106.42 714.53 1108.01 712.90
  C 1109.54 711.32 1110.84 710.50 1113.22 710.62
  Q 1122.04 711.07 1130.82 710.12
  Q 1131.21 710.08 1131.55 709.89
  Q 1131.96 709.65 1132.49 709.70
  Q 1135.83 710.03 1139.14 709.60
  Q 1139.63 709.54 1139.97 709.19
  Z"
/>
<path fill="#000000" d="
  M 399.58 992.86
  L 399.95 992.95
  Q 400.18 993.01 400.20 993.24
  Q 400.39 995.63 400.04 996.26
  Q 398.29 999.43 398.27 1004.99
  C 398.26 1007.52 394.35 1008.47 392.40 1009.32
  Q 391.94 1009.52 391.50 1009.28
  Q 390.35 1008.63 389.85 1008.62
  C 387.27 1008.51 381.09 1007.87 379.15 1006.12
  Q 378.88 1005.87 378.52 1005.83
  Q 372.08 1004.97 365.89 1003.04
  Q 364.96 1002.76 361.58 1002.17
  C 359.46 1001.81 357.77 1000.62 355.88 1000.32
  Q 352.83 999.84 349.77 1000.12
  C 346.83 1000.40 346.42 1002.07 345.44 1004.44
  Q 340.58 1016.12 339.57 1022.81
  Q 339.16 1025.53 341.77 1029.02
  Q 342.04 1029.39 342.49 1029.49
  Q 346.16 1030.34 351.75 1032.50
  Q 357.48 1034.73 366.12 1036.29
  C 370.44 1037.08 374.76 1039.26 379.13 1039.47
  Q 379.92 1039.51 380.47 1040.05
  Q 380.82 1040.38 381.28 1040.51
  Q 382.60 1040.88 383.98 1040.78
  Q 384.56 1040.74 385.03 1041.09
  L 387.11 1042.63
  Q 387.50 1042.92 387.52 1043.41
  Q 387.57 1044.83 387.52 1046.22
  C 387.45 1048.06 386.27 1049.20 386.58 1051.39
  Q 386.65 1051.89 386.37 1052.32
  Q 385.85 1053.10 385.09 1053.67
  Q 384.65 1054.00 384.66 1054.55
  L 384.71 1057.33
  Q 384.72 1057.91 384.27 1058.28
  Q 383.56 1058.85 383.17 1059.70
  A 1.91 1.90 17.6 0 1 381.12 1060.76
  Q 376.88 1060.03 372.78 1058.99
  C 369.76 1058.22 366.03 1056.60 362.04 1056.43
  A 1.86 1.86 0.0 0 1 361.15 1056.16
  Q 358.13 1054.29 354.65 1053.79
  Q 352.45 1053.47 350.52 1052.66
  C 347.14 1051.26 344.03 1051.60 340.62 1050.28
  C 338.25 1049.37 335.85 1049.46 333.56 1048.63
  C 331.18 1047.76 328.85 1047.33 326.42 1046.32
  C 325.22 1045.82 323.79 1045.61 322.72 1044.94
  Q 319.62 1043.00 316.80 1040.68
  C 314.50 1038.78 314.26 1036.72 312.89 1034.22
  C 311.21 1031.14 311.67 1026.61 311.78 1023.20
  Q 311.86 1020.74 313.00 1017.46
  C 314.15 1014.15 314.45 1010.77 315.86 1007.55
  Q 316.93 1005.11 317.23 1003.50
  C 319.33 992.22 324.57 978.32 337.74 976.06
  C 340.27 975.62 342.48 976.55 344.74 976.53
  C 348.72 976.48 352.79 978.33 356.26 978.73
  Q 358.51 978.99 359.84 980.45
  Q 360.18 980.82 360.68 980.88
  Q 365.05 981.36 369.20 982.70
  C 372.61 983.81 375.37 984.24 378.65 984.67
  Q 379.16 984.74 379.44 985.17
  Q 380.79 987.30 383.50 986.68
  A 1.76 1.70 47.9 0 1 384.51 986.75
  C 386.50 987.53 388.04 987.35 390.04 988.33
  C 393.39 989.96 397.17 988.48 398.95 992.33
  Q 399.14 992.75 399.58 992.86
  Z"
/>
<path fill="#000000" d="
  M 886.88 1017.62
  C 885.75 1013.07 885.08 1010.37 886.09 1005.71
  C 886.54 1003.59 886.36 1001.30 886.95 999.46
  C 888.04 995.99 890.39 995.05 892.20 992.57
  Q 892.53 992.14 892.95 991.80
  L 894.94 990.20
  Q 895.36 989.86 895.89 989.80
  Q 897.92 989.55 901.70 987.91
  Q 903.45 987.14 908.56 986.43
  A 1.63 1.59 -69.7 0 0 909.42 986.02
  C 911.70 983.90 915.78 983.73 918.75 982.72
  C 926.60 980.03 934.80 977.01 942.74 975.98
  C 945.75 975.58 949.03 976.27 952.43 976.58
  C 955.70 976.87 958.07 978.58 960.61 980.21
  C 962.96 981.71 964.19 984.12 965.10 986.64
  C 966.13 989.46 967.87 991.95 967.22 995.76
  A 1.92 1.91 40.5 0 0 967.30 996.74
  C 968.43 999.97 967.44 1002.18 969.79 1005.05
  Q 970.11 1005.44 970.15 1005.95
  Q 970.27 1007.92 970.97 1008.75
  Q 976.31 1015.07 977.44 1021.03
  Q 977.79 1022.90 977.43 1029.24
  A 2.00 1.91 63.6 0 1 977.15 1030.14
  C 975.80 1032.36 975.80 1034.84 974.62 1036.83
  C 972.65 1040.19 970.56 1041.21 968.07 1043.28
  Q 966.57 1044.52 965.05 1044.97
  C 960.70 1046.25 956.36 1047.04 952.24 1049.08
  C 949.87 1050.25 947.71 1050.36 945.16 1051.13
  C 943.85 1051.53 942.69 1051.22 941.49 1051.65
  C 939.89 1052.24 938.72 1053.22 937.07 1053.52
  Q 932.29 1054.39 929.77 1055.62
  C 925.88 1057.51 922.97 1056.69 919.02 1058.41
  C 914.57 1060.34 908.25 1058.24 903.78 1056.91
  C 902.12 1056.42 901.46 1055.47 900.43 1054.20
  Q 900.11 1053.79 899.60 1053.67
  L 897.72 1053.19
  Q 897.23 1053.07 897.05 1052.60
  C 895.67 1049.01 892.61 1044.43 892.49 1040.72
  C 892.39 1037.54 891.56 1035.35 892.36 1031.82
  C 893.02 1028.93 892.00 1026.96 890.03 1024.42
  Q 887.86 1021.62 886.88 1017.62
  Z
  M 917.73 1010.92
  Q 923.08 1008.91 927.96 1008.35
  C 929.64 1008.15 930.47 1007.47 931.55 1006.31
  Q 931.90 1005.94 932.40 1005.81
  C 934.67 1005.21 939.52 1004.56 939.21 1001.32
  A 2.40 2.39 -5.1 0 0 936.63 999.17
  C 933.82 999.40 931.41 1001.12 929.34 1001.74
  Q 926.25 1002.67 923.06 1003.14
  C 918.96 1003.75 916.59 1004.77 913.62 1007.17
  A 1.35 1.35 0.0 0 0 913.83 1009.42
  L 916.48 1010.84
  Q 917.09 1011.16 917.73 1010.92
  Z
  M 946.37 1029.02
  L 948.50 1026.19
  Q 949.73 1024.57 947.70 1024.48
  C 944.45 1024.32 942.02 1024.19 938.72 1025.42
  C 935.60 1026.58 932.57 1026.61 929.75 1028.70
  Q 928.59 1029.55 926.13 1029.60
  C 922.71 1029.67 920.70 1030.91 920.64 1034.47
  Q 920.63 1034.98 921.01 1035.30
  C 922.24 1036.34 923.42 1036.59 924.98 1036.03
  C 926.29 1035.57 927.50 1035.76 928.78 1035.24
  Q 932.93 1033.57 937.29 1032.65
  C 939.30 1032.22 941.00 1030.92 943.15 1030.76
  Q 945.16 1030.62 946.37 1029.02
  Z"
/>
<path fill="#000000" d="
  M 858.36 1058.90
  Q 857.24 1056.37 857.43 1055.25
  C 857.78 1053.10 857.00 1051.17 856.95 1049.24
  Q 856.90 1047.05 856.40 1044.91
  Q 856.31 1044.50 856.01 1044.22
  L 855.76 1043.97
  Q 855.73 1043.95 855.71 1043.91
  C 854.07 1039.78 854.74 1035.94 853.56 1032.04
  C 852.65 1029.03 851.77 1024.05 849.29 1022.06
  Q 848.90 1021.74 848.40 1021.71
  Q 842.18 1021.29 840.05 1015.94
  C 839.01 1013.34 838.17 1011.50 838.54 1009.00
  A 1.58 1.54 -54.4 0 0 838.40 1008.09
  Q 837.43 1006.16 837.90 1004.03
  A 1.02 1.01 -6.1 0 1 838.47 1003.33
  Q 839.40 1002.90 840.02 1002.07
  Q 840.30 1001.69 840.74 1001.51
  Q 845.14 999.73 846.60 999.60
  C 850.80 999.25 854.79 997.87 858.73 997.41
  Q 861.24 997.11 863.76 996.83
  C 865.63 996.63 867.10 994.47 869.60 995.52
  C 873.87 997.31 873.33 1000.79 874.24 1004.01
  Q 875.19 1007.39 875.46 1012.00
  Q 875.57 1013.88 876.64 1015.98
  Q 877.70 1018.08 877.92 1019.82
  Q 878.21 1022.13 878.63 1024.43
  Q 878.77 1025.20 879.82 1028.91
  Q 880.83 1032.53 881.08 1037.40
  Q 881.17 1039.26 882.90 1040.95
  Q 883.24 1041.29 883.30 1041.76
  L 884.47 1051.50
  A 1.47 1.43 -72.1 0 0 884.91 1052.39
  C 885.42 1052.88 885.65 1053.18 885.66 1053.95
  Q 885.69 1058.10 886.67 1062.13
  Q 886.80 1062.66 886.52 1063.13
  Q 885.79 1064.40 885.64 1065.86
  A 1.56 1.56 0.0 0 1 884.03 1067.27
  C 881.98 1067.19 875.74 1067.54 873.92 1068.72
  Q 873.47 1069.01 872.94 1069.06
  Q 870.17 1069.31 867.59 1070.34
  Q 867.20 1070.49 866.78 1070.43
  L 862.56 1069.83
  A 2.83 2.83 0.0 0 1 860.18 1067.53
  C 859.67 1064.60 859.63 1061.79 858.36 1058.90
  Z"
/>
<path fill="#000000" d="
  M 432.70 1021.92
  L 432.73 1022.54
  A 2.67 2.67 0.0 0 0 435.04 1025.07
  C 437.13 1025.36 438.51 1026.56 440.36 1026.93
  Q 441.24 1027.10 442.11 1027.32
  C 443.77 1027.73 445.01 1027.10 446.66 1028.06
  Q 447.10 1028.31 447.60 1028.33
  C 450.35 1028.42 452.90 1029.67 455.20 1030.01
  C 458.44 1030.49 461.76 1030.42 464.79 1031.81
  C 466.30 1032.51 467.81 1032.53 469.20 1033.44
  Q 471.49 1034.94 473.79 1036.41
  Q 474.17 1036.66 474.18 1037.12
  C 474.20 1038.59 475.13 1039.26 475.56 1040.33
  C 477.97 1046.42 478.49 1054.31 477.01 1060.38
  C 475.91 1064.89 474.06 1067.04 471.69 1070.16
  C 469.96 1072.45 466.73 1072.89 464.36 1074.61
  C 461.41 1076.75 454.49 1076.31 451.12 1075.59
  C 449.48 1075.24 446.76 1075.71 444.97 1074.02
  A 1.32 1.30 -22.1 0 0 444.08 1073.65
  Q 436.60 1073.54 429.55 1071.39
  Q 428.55 1071.08 426.41 1071.02
  C 424.74 1070.97 423.71 1070.20 422.18 1070.06
  C 416.99 1069.61 411.85 1067.35 406.64 1067.32
  Q 403.68 1067.31 401.53 1065.14
  A 0.97 0.96 -26.5 0 0 400.71 1064.87
  Q 396.43 1065.56 393.52 1062.44
  Q 393.15 1062.04 393.41 1061.56
  C 395.53 1057.59 395.73 1052.92 395.79 1048.64
  A 1.99 1.99 0.0 0 1 397.55 1046.69
  Q 398.48 1046.58 399.05 1045.88
  A 1.18 1.17 -65.8 0 1 400.11 1045.47
  Q 401.23 1045.62 402.17 1046.26
  Q 402.53 1046.50 402.95 1046.50
  C 406.43 1046.49 409.47 1046.14 412.86 1047.38
  C 416.39 1048.67 419.66 1048.84 422.57 1049.49
  C 424.10 1049.83 425.81 1049.63 427.31 1050.29
  C 429.75 1051.35 432.18 1052.19 434.60 1052.22
  Q 438.61 1052.27 442.99 1053.74
  Q 446.67 1054.98 448.85 1051.96
  Q 449.16 1051.52 448.84 1051.08
  L 446.94 1048.46
  A 0.88 0.87 62.6 0 0 445.95 1048.14
  Q 443.34 1049.05 441.06 1047.48
  A 1.22 1.22 0.0 0 0 440.23 1047.29
  Q 439.08 1047.44 438.31 1046.70
  A 1.32 1.32 0.0 0 0 437.43 1046.34
  C 432.77 1046.30 427.21 1044.75 423.98 1044.08
  C 419.24 1043.09 414.13 1041.56 410.24 1038.55
  Q 408.42 1037.14 406.54 1035.81
  Q 406.11 1035.51 406.03 1035.00
  C 405.75 1033.18 404.71 1032.02 404.57 1030.28
  C 404.04 1023.66 403.47 1016.39 405.41 1010.29
  C 405.70 1009.38 406.49 1008.77 406.70 1007.65
  Q 406.79 1007.18 407.14 1006.85
  C 409.65 1004.55 412.03 1001.71 414.73 999.93
  Q 417.34 998.21 419.00 997.69
  C 421.53 996.91 425.33 997.98 428.00 997.88
  Q 433.50 997.70 436.75 998.70
  Q 442.32 1000.42 446.19 1000.34
  C 448.08 1000.30 449.57 1000.71 451.39 1000.77
  Q 451.87 1000.79 452.26 1001.07
  Q 453.55 1001.97 454.35 1002.17
  Q 458.89 1003.34 466.25 1004.26
  Q 466.89 1004.34 467.94 1005.08
  A 1.77 1.71 62.6 0 0 468.86 1005.39
  Q 472.51 1005.52 476.12 1005.88
  Q 478.69 1006.14 480.68 1007.45
  Q 482.50 1008.64 484.21 1009.97
  Q 484.62 1010.30 484.64 1010.82
  Q 484.72 1014.24 483.84 1017.45
  C 482.71 1021.56 483.66 1027.55 477.26 1027.24
  Q 474.36 1027.10 468.84 1025.67
  C 463.46 1024.28 458.26 1024.21 453.11 1022.47
  C 448.93 1021.05 444.37 1021.94 441.00 1021.49
  Q 437.92 1021.08 434.63 1020.32
  Q 432.62 1019.86 432.70 1021.92
  Z"
/>
<path fill="#000000" d="
  M 382.34 1021.22
  L 381.04 1029.56
  Q 380.98 1029.98 380.68 1030.29
  C 378.07 1032.99 376.03 1032.11 373.01 1032.40
  A 1.17 1.16 -26.8 0 1 372.15 1032.12
  C 370.19 1030.37 366.97 1029.95 363.94 1029.48
  C 359.21 1028.73 354.71 1026.76 350.40 1025.83
  Q 345.59 1024.80 346.13 1020.03
  Q 346.99 1012.41 349.27 1007.71
  C 351.40 1003.31 357.57 1007.18 360.86 1008.23
  C 362.89 1008.87 367.43 1008.38 368.66 1010.60
  Q 368.92 1011.05 369.44 1011.08
  Q 371.62 1011.17 373.79 1011.18
  C 376.49 1011.21 377.80 1012.60 380.21 1013.26
  C 383.08 1014.05 386.35 1018.13 382.79 1020.52
  Q 382.41 1020.77 382.34 1021.22
  Z"
/>
<path fill="#000000" d="
  M 816.39 1007.93
  Q 818.77 1008.22 821.08 1008.87
  C 822.98 1009.40 823.74 1010.98 825.08 1011.69
  Q 826.50 1012.45 826.98 1013.40
  Q 827.21 1013.84 827.61 1014.13
  C 828.80 1014.99 828.84 1016.63 829.43 1017.68
  Q 831.95 1022.21 832.65 1027.31
  C 833.02 1029.95 834.24 1032.17 834.49 1034.90
  Q 834.69 1037.13 835.11 1038.98
  C 835.53 1040.86 835.45 1042.51 836.04 1044.41
  Q 836.98 1047.46 836.70 1050.66
  C 836.66 1051.04 836.77 1051.36 836.99 1051.62
  Q 837.20 1051.89 837.20 1052.23
  C 837.23 1054.75 837.86 1057.22 837.59 1059.60
  Q 837.23 1062.79 836.60 1065.93
  C 836.29 1067.48 835.21 1068.42 834.79 1070.08
  A 1.43 1.36 -13.7 0 1 834.31 1070.83
  Q 833.08 1071.84 832.30 1073.21
  Q 832.15 1073.48 831.84 1073.49
  Q 831.57 1073.49 831.32 1073.59
  A 1.93 0.54 -13.0 0 0 830.64 1073.96
  C 828.28 1075.94 826.00 1076.15 823.48 1077.55
  C 821.43 1078.69 817.81 1078.86 815.51 1078.88
  A 2.05 1.99 30.6 0 0 814.59 1079.10
  C 812.89 1079.98 811.18 1079.71 809.52 1080.18
  Q 807.63 1080.71 805.65 1080.81
  Q 805.15 1080.84 804.75 1081.14
  C 803.59 1081.97 800.53 1081.80 798.48 1081.69
  Q 797.96 1081.66 797.51 1081.92
  Q 796.50 1082.49 795.27 1082.19
  A 1.43 1.42 40.8 0 0 794.43 1082.25
  C 792.78 1082.93 791.38 1083.55 789.51 1083.52
  Q 785.73 1083.47 781.98 1083.87
  Q 772.80 1084.84 769.75 1084.55
  Q 768.29 1084.41 763.00 1082.44
  Q 759.93 1081.30 757.35 1077.81
  C 756.24 1076.31 754.00 1074.75 754.01 1072.59
  Q 754.02 1069.40 753.22 1066.31
  Q 753.16 1066.06 753.01 1065.91
  Q 752.92 1065.81 752.82 1065.73
  Q 752.64 1065.58 752.57 1065.36
  Q 750.86 1059.94 751.31 1054.25
  Q 751.45 1052.56 750.76 1051.04
  A 1.92 1.86 36.6 0 1 750.61 1050.13
  C 750.80 1047.73 750.18 1045.43 750.25 1043.24
  C 750.32 1040.51 750.88 1032.59 749.52 1030.50
  Q 749.22 1030.03 749.76 1029.89
  Q 749.90 1029.85 750.00 1029.73
  Q 750.18 1029.53 750.22 1029.42
  C 751.57 1025.36 751.20 1020.63 755.21 1017.55
  C 758.33 1015.16 761.67 1014.49 764.99 1013.22
  C 771.79 1010.61 777.40 1011.65 783.61 1010.36
  Q 788.32 1009.37 789.99 1009.25
  Q 801.14 1008.43 805.00 1007.60
  Q 810.88 1006.35 814.85 1006.79
  Q 815.33 1006.84 815.58 1007.24
  L 815.75 1007.52
  Q 815.97 1007.87 816.39 1007.93
  Z
  M 794.12 1029.82
  C 790.50 1030.34 787.19 1029.47 783.76 1031.13
  C 782.23 1031.87 780.81 1031.80 779.26 1032.55
  Q 778.82 1032.77 778.59 1033.21
  C 776.55 1037.25 776.30 1040.20 777.16 1045.00
  Q 778.14 1050.49 778.43 1056.09
  C 778.51 1057.71 779.87 1058.73 780.64 1060.18
  C 782.13 1062.96 785.07 1062.90 788.34 1062.81
  C 789.80 1062.77 791.24 1061.91 793.03 1062.55
  Q 793.51 1062.72 794.01 1062.59
  Q 798.56 1061.41 803.16 1060.47
  C 808.87 1059.30 810.54 1053.20 809.69 1048.26
  Q 808.93 1043.82 807.87 1039.45
  C 807.40 1037.50 807.47 1035.68 807.34 1033.68
  Q 807.31 1033.16 806.89 1032.86
  L 802.95 1029.99
  Q 802.49 1029.66 801.93 1029.61
  Q 798.00 1029.26 794.12 1029.82
  Z"
/>
<path fill="#000000" d="
  M 564.66 1037.05
  Q 564.52 1037.22 564.33 1037.36
  Q 564.22 1037.44 564.05 1037.45
  C 561.59 1037.52 559.38 1036.73 556.83 1036.54
  Q 555.42 1036.44 554.07 1036.01
  C 549.05 1034.39 543.36 1035.66 538.12 1034.70
  C 536.18 1034.34 534.23 1034.30 532.34 1033.91
  Q 522.66 1031.90 512.75 1032.22
  Q 511.25 1032.27 508.44 1031.30
  C 506.35 1030.58 504.18 1030.89 502.04 1029.78
  A 1.40 1.36 50.0 0 0 501.03 1029.68
  Q 496.60 1030.99 493.10 1028.20
  A 1.12 1.09 16.4 0 1 492.68 1027.45
  Q 492.56 1026.41 491.98 1025.55
  Q 491.68 1025.10 492.02 1024.68
  C 492.35 1024.27 492.59 1023.99 492.55 1023.41
  Q 492.07 1016.83 494.94 1011.26
  A 2.00 1.98 -75.6 0 1 496.73 1010.19
  C 500.88 1010.26 504.95 1011.15 509.15 1011.16
  Q 515.28 1011.19 521.28 1012.61
  Q 521.76 1012.72 522.13 1013.05
  Q 522.28 1013.18 522.44 1013.31
  Q 522.59 1013.44 522.79 1013.47
  C 525.88 1014.05 529.64 1013.93 532.07 1014.12
  Q 535.71 1014.40 539.35 1014.62
  Q 541.92 1014.78 546.58 1015.62
  C 551.26 1016.48 555.71 1016.00 560.38 1016.61
  C 562.38 1016.88 564.33 1016.31 566.06 1017.30
  C 569.05 1019.00 569.45 1021.40 569.13 1024.84
  Q 568.74 1028.92 568.39 1032.98
  Q 568.17 1035.43 565.15 1036.69
  A 1.28 1.26 8.4 0 0 564.66 1037.05
  Z"
/>
<path fill="#000000" d="
  M 741.66 1069.46
  Q 742.41 1069.75 742.44 1070.74
  Q 742.52 1073.62 744.16 1076.55
  Q 744.44 1077.04 744.37 1077.59
  Q 744.02 1080.56 744.63 1083.46
  Q 744.72 1083.91 744.56 1084.35
  C 743.22 1087.88 740.96 1089.07 737.12 1089.25
  Q 728.28 1089.66 719.49 1090.36
  Q 719.00 1090.40 718.63 1090.73
  Q 717.62 1091.62 716.00 1091.64
  Q 686.44 1092.11 664.23 1091.92
  Q 663.54 1091.91 663.67 1091.24
  L 663.93 1089.92
  Q 664.03 1089.41 663.75 1088.98
  Q 662.38 1086.88 662.57 1084.37
  C 662.69 1082.72 661.97 1081.84 661.97 1080.42
  Q 661.97 1075.18 661.97 1069.94
  C 661.96 1065.67 664.44 1061.66 664.68 1057.50
  Q 664.75 1056.19 665.53 1055.53
  Q 665.93 1055.19 666.14 1054.70
  Q 667.05 1052.62 669.07 1051.56
  A 1.87 1.84 0.4 0 0 669.84 1050.81
  C 671.59 1047.69 677.10 1046.73 680.81 1046.51
  Q 690.33 1045.94 692.99 1045.16
  C 697.42 1043.85 703.57 1042.77 708.08 1043.97
  C 709.56 1044.36 711.25 1043.66 711.52 1042.03
  C 712.03 1039.04 706.97 1037.96 704.75 1038.09
  C 699.73 1038.40 694.67 1038.40 689.69 1039.12
  C 687.95 1039.37 686.57 1039.02 684.83 1039.61
  C 682.33 1040.45 678.90 1041.11 676.42 1039.78
  A 1.42 1.37 -29.7 0 0 675.75 1039.61
  L 669.90 1039.69
  A 2.14 2.14 0.0 0 1 667.73 1037.46
  Q 667.78 1036.30 667.06 1035.40
  Q 666.75 1035.00 666.75 1034.49
  L 666.75 1023.98
  Q 666.75 1023.45 666.99 1022.98
  Q 667.38 1022.23 667.64 1020.97
  C 668.27 1018.03 670.67 1019.49 672.21 1019.49
  Q 682.72 1019.49 693.23 1019.50
  C 694.67 1019.50 696.08 1019.03 697.25 1018.99
  C 702.11 1018.85 707.59 1017.73 711.61 1017.54
  Q 720.58 1017.13 726.65 1018.83
  Q 727.98 1019.20 731.33 1021.57
  C 732.87 1022.67 734.19 1024.47 735.86 1025.76
  Q 736.25 1026.06 736.46 1026.50
  C 737.63 1028.99 739.31 1030.99 739.70 1033.70
  Q 740.99 1042.45 739.37 1051.14
  C 739.05 1052.83 738.21 1053.44 737.03 1054.54
  Q 736.68 1054.87 736.55 1055.33
  C 735.66 1058.43 731.61 1060.15 729.21 1062.01
  Q 728.81 1062.32 728.31 1062.36
  C 724.43 1062.71 720.70 1062.86 716.86 1063.92
  Q 713.27 1064.91 712.00 1064.91
  C 708.57 1064.91 692.14 1064.03 691.33 1068.81
  A 1.80 1.79 16.1 0 0 692.42 1070.77
  L 694.51 1071.64
  Q 695.01 1071.85 695.52 1071.66
  C 698.60 1070.53 700.50 1072.15 702.98 1071.59
  Q 708.03 1070.45 713.24 1070.75
  C 714.65 1070.83 715.62 1070.25 716.92 1070.29
  Q 720.39 1070.40 722.27 1069.46
  Q 724.85 1068.17 726.70 1068.69
  Q 728.52 1069.20 730.31 1068.87
  C 733.90 1068.19 737.27 1068.53 740.88 1068.28
  Q 741.43 1068.25 741.46 1068.79
  L 741.49 1069.23
  Q 741.50 1069.40 741.66 1069.46
  Z"
/>
<path fill="#000000" d="
  M 528.02 1086.86
  C 525.59 1086.56 523.13 1087.22 520.92 1085.96
  Q 520.48 1085.71 519.98 1085.77
  Q 515.80 1086.20 512.80 1083.78
  C 508.59 1080.39 512.19 1076.07 512.35 1072.05
  Q 512.60 1065.35 512.85 1058.63
  Q 512.86 1058.15 513.10 1057.73
  Q 513.66 1056.75 513.49 1055.63
  Q 513.42 1055.13 513.69 1054.70
  C 515.26 1052.17 514.75 1049.24 515.08 1047.14
  C 515.50 1044.41 515.05 1041.31 517.44 1039.21
  Q 517.81 1038.88 518.31 1038.83
  C 523.50 1038.31 528.34 1038.85 533.50 1039.15
  Q 535.84 1039.28 538.58 1040.50
  C 539.21 1040.79 539.97 1041.62 540.97 1041.73
  Q 541.47 1041.78 541.54 1042.27
  C 542.03 1045.62 542.28 1051.69 540.01 1054.00
  Q 539.66 1054.36 539.66 1054.86
  C 539.75 1060.31 538.81 1065.65 538.77 1071.02
  Q 538.73 1076.79 537.77 1082.50
  C 537.52 1084.01 536.35 1084.95 535.85 1086.19
  Q 535.05 1088.15 532.99 1087.68
  Q 530.87 1087.20 528.65 1087.29
  A 0.35 0.34 -20.4 0 1 528.36 1087.16
  Q 528.27 1087.06 528.19 1086.95
  Q 528.12 1086.87 528.02 1086.86
  Z"
/>
<path fill="#000000" d="
  M 576.89 1089.55
  Q 575.45 1089.40 574.96 1087.87
  Q 574.81 1087.41 574.81 1086.93
  Q 574.80 1082.56 574.80 1078.24
  C 574.81 1076.51 575.27 1074.94 575.45 1073.27
  A 1.65 1.64 -87.9 0 1 577.01 1071.81
  C 579.12 1071.72 580.86 1071.17 583.00 1071.36
  Q 590.43 1072.01 597.87 1071.66
  Q 598.43 1071.64 598.40 1072.20
  Q 598.34 1073.74 600.02 1073.68
  A 1.34 1.33 0.2 0 1 601.40 1075.06
  L 600.84 1091.50
  A 0.46 0.46 0.0 0 1 600.38 1091.95
  Q 589.48 1091.96 578.68 1091.95
  Q 577.76 1091.95 577.45 1091.55
  Q 577.10 1091.11 577.38 1090.35
  Q 577.66 1089.63 576.89 1089.55
  Z"
/>
</svg>
