<?xml version="1.0" encoding="UTF-8" standalone="no"?>
<!DOCTYPE svg PUBLIC "-//W3C//DTD SVG 1.1//EN" "http://www.w3.org/Graphics/SVG/1.1/DTD/svg11.dtd">
<svg xmlns="http://www.w3.org/2000/svg" version="1.1" viewBox="0.00 0.00 480.00 482.00">
<g stroke-width="2.00" fill="none" stroke-linecap="butt">
<path stroke="#4d4b4e" stroke-opacity="0.996" vector-effect="non-scaling-stroke" d="
  M 231.70 11.02
  L 204.21 13.36"
/>
<path stroke="#4d4b4e" stroke-opacity="0.996" vector-effect="non-scaling-stroke" d="
  M 249.53 11.07
  L 269.07 12.33"
/>
<path stroke="#4d4b4e" stroke-opacity="0.996" vector-effect="non-scaling-stroke" d="
  M 276.14 13.46
  Q 278.39 14.36 280.49 14.61
  Q 281.43 14.73 281.75 14.39"
/>
<path stroke="#4d4b4e" stroke-opacity="0.996" vector-effect="non-scaling-stroke" d="
  M 283.52 14.69
  Q 283.35 14.63 283.29 14.73
  Q 283.20 14.89 283.37 14.96
  Q 285.02 15.61 286.83 15.51"
/>
<path stroke="#4d4b4e" stroke-opacity="0.996" vector-effect="non-scaling-stroke" d="
  M 286.88 15.43
  Q 289.80 16.99 292.32 16.65"
/>
<path stroke="#4d4b4e" stroke-opacity="0.996" vector-effect="non-scaling-stroke" d="
  M 296.91 17.74
  Q 300.05 19.33 303.34 19.39"
/>
<path stroke="#4d4b4e" stroke-opacity="0.996" vector-effect="non-scaling-stroke" d="
  M 309.75 21.46
  Q 312.18 22.96 315.34 23.20"
/>
<path stroke="#4d4b4e" stroke-opacity="0.996" vector-effect="non-scaling-stroke" d="
  M 334.24 30.66
  L 357.76 43.01"
/>
<path stroke="#4d4b4e" stroke-opacity="0.996" vector-effect="non-scaling-stroke" d="
  M 357.76 43.01
  Q 362.65 46.55 367.81 49.74
  C 369.19 50.60 370.54 52.28 372.52 52.76"
/>
<path stroke="#4d4b4e" stroke-opacity="0.996" vector-effect="non-scaling-stroke" d="
  M 390.85 66.90
  Q 396.76 72.92 402.70 78.87
  C 413.80 90.00 422.86 101.19 431.73 114.00
  C 432.50 115.11 432.93 116.29 433.59 117.23
  Q 436.96 121.94 439.54 127.13
  C 439.96 127.98 440.70 128.73 441.24 129.76
  Q 447.11 141.04 448.94 145.20
  Q 455.84 160.93 461.16 177.36"
/>
<path stroke="#808080" vector-effect="non-scaling-stroke" d="
  M 461.16 177.36
  Q 466.84 198.11 469.18 219.60
  C 469.52 222.67 469.49 226.67 469.97 230.22"
/>
<path stroke="#808080" vector-effect="non-scaling-stroke" d="
  M 469.99 253.06
  Q 468.64 270.81 465.41 288.55"
/>
<path stroke="#808080" vector-effect="non-scaling-stroke" d="
  M 463.56 297.31
  Q 457.22 320.23 447.30 341.66
  C 445.15 346.30 442.30 351.21 439.78 355.97"
/>
<path stroke="#4d4b4e" stroke-opacity="0.996" vector-effect="non-scaling-stroke" d="
  M 439.78 355.97
  Q 428.12 375.44 420.57 384.32
  Q 414.59 391.34 412.48 394.59"
/>
<path stroke="#4d4b4e" stroke-opacity="0.996" vector-effect="non-scaling-stroke" d="
  M 408.55 398.81
  Q 397.74 409.40 391.19 415.15
  Q 377.99 426.75 361.28 437.33
  Q 357.13 439.97 343.43 447.50
  Q 343.08 447.69 342.19 448.07
  Q 341.05 448.56 341.14 449.01"
/>
<path stroke="#4d4b4e" stroke-opacity="0.996" vector-effect="non-scaling-stroke" d="
  M 340.75 449.09
  Q 340.18 448.81 339.62 449.12
  Q 335.28 451.43 330.72 453.29
  Q 330.32 453.45 329.84 453.82
  Q 329.42 454.15 328.94 454.38"
/>
<path stroke="#4d4b4e" stroke-opacity="0.996" vector-effect="non-scaling-stroke" d="
  M 324.27 456.34
  Q 320.66 457.05 314.45 459.45
  Q 310.41 461.02 296.12 465.12
  Q 291.20 466.53 277.07 468.84
  C 264.10 470.95 251.29 471.39 238.18 471.83"
/>
<path stroke="#4d4b4e" stroke-opacity="0.996" vector-effect="non-scaling-stroke" d="
  M 227.56 471.92
  L 192.92 467.42"
/>
<path stroke="#4d4b4e" stroke-opacity="0.996" vector-effect="non-scaling-stroke" d="
  M 192.11 467.39
  Q 189.63 466.04 186.88 465.48
  Q 181.73 464.43 181.69 464.42
  Q 165.20 459.79 153.75 455.19
  C 134.68 447.53 115.71 436.56 98.72 423.31
  C 85.31 412.86 72.76 400.95 62.22 387.60
  Q 60.29 385.16 57.97 383.11"
/>
<path stroke="#4d4b4e" stroke-opacity="0.996" vector-effect="non-scaling-stroke" d="
  M 54.75 378.81
  Q 53.04 374.86 49.84 371.88"
/>
<path stroke="#4d4b4e" stroke-opacity="0.996" vector-effect="non-scaling-stroke" d="
  M 49.72 371.73
  Q 38.71 353.71 33.90 343.99
  Q 26.14 328.34 22.29 315.99
  Q 19.03 305.57 15.75 294.79"
/>
<path stroke="#4d4b4e" stroke-opacity="0.996" vector-effect="non-scaling-stroke" d="
  M 14.50 288.83
  Q 13.76 281.94 12.44 275.19
  C 11.71 271.48 11.53 267.61 10.94 263.81
  C 10.44 260.53 10.69 256.94 10.03 253.48"
/>
<path stroke="#4d4b4e" stroke-opacity="0.996" vector-effect="non-scaling-stroke" d="
  M 10.07 230.26
  C 10.87 225.33 10.82 219.64 11.31 215.45
  C 14.00 192.57 19.84 171.83 28.70 150.44
  Q 28.86 150.08 28.85 149.68
  Q 28.84 149.33 29.00 148.99
  Q 34.79 136.54 41.61 124.62
  Q 43.83 120.75 46.44 117.15
  C 47.53 115.65 48.33 113.76 49.37 112.37
  Q 52.52 108.15 55.69 103.94
  C 56.81 102.46 57.52 100.42 59.09 98.91
  Q 60.63 97.44 61.38 96.21
  C 62.64 94.16 64.41 92.79 65.75 91.04
  Q 67.35 88.94 67.67 88.59
  Q 74.87 80.88 77.64 78.26
  Q 82.90 73.29 85.59 70.07"
/>
<path stroke="#4d4b4e" stroke-opacity="0.996" vector-effect="non-scaling-stroke" d="
  M 94.80 62.08
  Q 97.44 60.93 99.78 58.45
  Q 99.88 58.35 99.89 58.24
  Q 99.92 58.04 99.78 58.00"
/>
<path stroke="#4d4b4e" stroke-opacity="0.996" vector-effect="non-scaling-stroke" d="
  M 100.31 57.80
  Q 100.43 57.87 100.67 57.89
  Q 101.08 57.93 101.40 57.66
  L 107.14 52.87"
/>
<path stroke="#4d4b4e" stroke-opacity="0.996" vector-effect="non-scaling-stroke" d="
  M 107.52 52.64
  C 109.21 52.39 109.40 51.75 110.52 50.94
  Q 117.52 45.88 125.10 41.73
  C 125.61 41.46 125.95 41.03 126.65 40.66
  Q 138.21 34.60 146.58 30.64
  Q 148.40 29.78 154.12 27.69
  Q 157.96 26.29 161.52 24.29"
/>
<path stroke="#4d4b4e" stroke-opacity="0.996" vector-effect="non-scaling-stroke" d="
  M 173.45 20.41
  L 203.11 13.60"
/>
<path stroke="#cdcbce" stroke-opacity="0.996" vector-effect="non-scaling-stroke" d="
  M 461.51 177.18
  Q 461.33 177.27 461.16 177.36"
/>
<path stroke="#cdcbce" stroke-opacity="0.996" vector-effect="non-scaling-stroke" d="
  M 440.16 355.99
  Q 440.04 356.06 439.78 355.97"
/>
<path stroke="#808080" vector-effect="non-scaling-stroke" d="
  M 238.8618 458.8070
  A 217.38 217.18 90.3 0 0 457.1770 242.5671
  A 217.38 217.18 90.3 0 0 241.1382 24.0530
  A 217.38 217.18 90.3 0 0 22.8230 240.2929
  A 217.38 217.18 90.3 0 0 238.8618 458.8070"
/>
<path stroke="#808080" vector-effect="non-scaling-stroke" d="
  M 203.62 155.75
  C 218.88 157.56 232.32 165.59 242.32 176.98
  A 1.09 1.08 -42.3 0 0 243.88 177.05
  C 256.57 165.08 274.88 159.66 292.08 159.18
  C 304.33 158.84 314.16 159.75 324.39 164.36
  C 345.14 173.74 356.93 191.03 362.01 213.00
  Q 363.19 218.13 363.21 225.18
  Q 363.46 313.12 363.52 402.11
  A 0.23 0.23 0.0 0 0 363.90 402.29
  C 376.14 392.32 387.92 381.17 397.76 368.91
  C 450.84 302.74 457.41 210.63 414.17 137.61
  C 363.54 52.09 258.31 16.38 165.46 52.55
  A 0.73 0.72 79.5 0 0 165.00 53.23
  L 164.99 163.57
  A 0.34 0.33 71.1 0 0 165.53 163.84
  C 175.98 155.50 190.12 154.14 203.62 155.75"
/>
<path stroke="#808080" vector-effect="non-scaling-stroke" d="
  M 262.50 312.29
  L 214.67 312.60
  A 0.68 0.68 0.0 0 1 213.99 311.95
  Q 213.91 310.22 213.91 308.50
  Q 213.90 266.25 213.99 224.00
  Q 213.99 221.90 212.58 219.93
  C 201.54 204.58 181.89 203.66 168.72 216.47
  C 165.24 219.85 165.18 223.93 165.11 229.00
  C 164.77 256.49 165.18 284.04 164.99 311.52
  A 0.99 0.99 0.0 0 1 164.00 312.50
  L 117.18 312.45
  A 1.27 1.27 0.0 0 1 115.91 311.18
  L 116.00 81.63
  A 0.51 0.51 0.0 0 0 115.17 81.24
  Q 104.35 90.28 94.32 100.57
  C 28.20 168.45 18.58 275.19 71.25 353.79
  Q 107.49 407.87 168.35 431.32
  C 214.65 449.16 268.37 448.75 314.55 430.26
  Q 315.04 430.06 315.04 429.53
  Q 314.82 326.89 314.35 224.25
  Q 314.35 223.00 313.05 220.95
  C 302.90 204.91 281.22 202.78 268.35 217.00
  C 264.99 220.72 263.53 222.64 263.53 227.50
  Q 263.51 269.52 263.12 311.66
  A 0.63 0.62 -90.0 0 1 262.50 312.29"
/>
</g>
<path fill="#9a969c" fill-opacity="0.992" d="
  M 231.70 11.02
  L 204.21 13.36
  Q 217.84 10.74 231.70 11.02
  Z"
/>
<path fill="#000000" d="
  M 231.70 11.02
  L 249.53 11.07
  L 269.07 12.33
  L 276.14 13.46
  Q 278.39 14.36 280.49 14.61
  Q 281.43 14.73 281.75 14.39
  Q 282.60 14.38 283.52 14.69
  Q 283.35 14.63 283.29 14.73
  Q 283.20 14.89 283.37 14.96
  Q 285.02 15.61 286.83 15.51
  Q 286.85 15.47 286.88 15.43
  Q 289.80 16.99 292.32 16.65
  Q 294.63 16.74 296.91 17.74
  Q 300.05 19.33 303.34 19.39
  L 309.75 21.46
  Q 312.18 22.96 315.34 23.20
  L 334.24 30.66
  L 357.76 43.01
  Q 362.65 46.55 367.81 49.74
  C 369.19 50.60 370.54 52.28 372.52 52.76
  Q 373.00 52.95 373.00 52.77
  Q 382.40 59.29 390.85 66.90
  Q 396.76 72.92 402.70 78.87
  C 413.80 90.00 422.86 101.19 431.73 114.00
  C 432.50 115.11 432.93 116.29 433.59 117.23
  Q 436.96 121.94 439.54 127.13
  C 439.96 127.98 440.70 128.73 441.24 129.76
  Q 447.11 141.04 448.94 145.20
  Q 455.84 160.93 461.16 177.36
  Q 466.84 198.11 469.18 219.60
  C 469.52 222.67 469.49 226.67 469.97 230.22
  L 469.99 253.06
  Q 468.64 270.81 465.41 288.55
  L 463.56 297.31
  Q 457.22 320.23 447.30 341.66
  C 445.15 346.30 442.30 351.21 439.78 355.97
  Q 428.12 375.44 420.57 384.32
  Q 414.59 391.34 412.48 394.59
  L 408.55 398.81
  Q 397.74 409.40 391.19 415.15
  Q 377.99 426.75 361.28 437.33
  Q 357.13 439.97 343.43 447.50
  Q 343.08 447.69 342.19 448.07
  Q 341.05 448.56 341.14 449.01
  Q 341.30 449.23 340.75 449.09
  Q 340.18 448.81 339.62 449.12
  Q 335.28 451.43 330.72 453.29
  Q 330.32 453.45 329.84 453.82
  Q 329.42 454.15 328.94 454.38
  L 324.27 456.34
  Q 320.66 457.05 314.45 459.45
  Q 310.41 461.02 296.12 465.12
  Q 291.20 466.53 277.07 468.84
  C 264.10 470.95 251.29 471.39 238.18 471.83
  L 227.56 471.92
  L 192.92 467.42
  L 192.11 467.39
  Q 189.63 466.04 186.88 465.48
  Q 181.73 464.43 181.69 464.42
  Q 165.20 459.79 153.75 455.19
  C 134.68 447.53 115.71 436.56 98.72 423.31
  C 85.31 412.86 72.76 400.95 62.22 387.60
  Q 60.29 385.16 57.97 383.11
  L 54.75 378.81
  Q 53.04 374.86 49.84 371.88
  Q 49.78 371.80 49.72 371.73
  Q 38.71 353.71 33.90 343.99
  Q 26.14 328.34 22.29 315.99
  Q 19.03 305.57 15.75 294.79
  L 14.50 288.83
  Q 13.76 281.94 12.44 275.19
  C 11.71 271.48 11.53 267.61 10.94 263.81
  C 10.44 260.53 10.69 256.94 10.03 253.48
  L 10.07 230.26
  C 10.87 225.33 10.82 219.64 11.31 215.45
  C 14.00 192.57 19.84 171.83 28.70 150.44
  Q 28.86 150.08 28.85 149.68
  Q 28.84 149.33 29.00 148.99
  Q 34.79 136.54 41.61 124.62
  Q 43.83 120.75 46.44 117.15
  C 47.53 115.65 48.33 113.76 49.37 112.37
  Q 52.52 108.15 55.69 103.94
  C 56.81 102.46 57.52 100.42 59.09 98.91
  Q 60.63 97.44 61.38 96.21
  C 62.64 94.16 64.41 92.79 65.75 91.04
  Q 67.35 88.94 67.67 88.59
  Q 74.87 80.88 77.64 78.26
  Q 82.90 73.29 85.59 70.07
  L 94.80 62.08
  Q 97.44 60.93 99.78 58.45
  Q 99.88 58.35 99.89 58.24
  Q 99.92 58.04 99.78 58.00
  Q 99.81 57.74 100.31 57.80
  Q 100.43 57.87 100.67 57.89
  Q 101.08 57.93 101.40 57.66
  L 107.14 52.87
  Q 107.18 52.79 107.52 52.64
  C 109.21 52.39 109.40 51.75 110.52 50.94
  Q 117.52 45.88 125.10 41.73
  C 125.61 41.46 125.95 41.03 126.65 40.66
  Q 138.21 34.60 146.58 30.64
  Q 148.40 29.78 154.12 27.69
  Q 157.96 26.29 161.52 24.29
  L 173.45 20.41
  L 203.11 13.60
  Q 203.50 13.33 204.21 13.36
  L 231.70 11.02
  Z
  M 238.8618 458.8070
  A 217.38 217.18 90.3 0 0 457.1770 242.5671
  A 217.38 217.18 90.3 0 0 241.1382 24.0530
  A 217.38 217.18 90.3 0 0 22.8230 240.2929
  A 217.38 217.18 90.3 0 0 238.8618 458.8070
  Z"
/>
<path fill="#9a969c" fill-opacity="0.992" d="
  M 249.53 11.07
  Q 259.36 10.74 269.07 12.33
  L 249.53 11.07
  Z"
/>
<path fill="#9a969c" fill-opacity="0.992" d="
  M 203.11 13.60
  L 173.45 20.41
  Q 187.95 15.72 203.11 13.60
  Z"
/>
<path fill="#9a969c" fill-opacity="0.992" d="
  M 276.14 13.46
  L 281.75 14.39
  Q 281.43 14.73 280.49 14.61
  Q 278.39 14.36 276.14 13.46
  Z"
/>
<path fill="#9a969c" fill-opacity="0.992" d="
  M 283.52 14.69
  Q 285.46 14.64 286.83 15.51
  Q 285.02 15.61 283.37 14.96
  Q 283.20 14.89 283.29 14.73
  Q 283.35 14.63 283.52 14.69
  Z"
/>
<path fill="#9a969c" fill-opacity="0.992" d="
  M 286.88 15.43
  L 292.32 16.65
  Q 289.80 16.99 286.88 15.43
  Z"
/>
<path fill="#9a969c" fill-opacity="0.992" d="
  M 296.91 17.74
  L 303.34 19.39
  Q 300.05 19.33 296.91 17.74
  Z"
/>
<path fill="#9a969c" fill-opacity="0.992" d="
  M 309.75 21.46
  L 315.34 23.20
  Q 312.18 22.96 309.75 21.46
  Z"
/>
<path fill="#9a969c" fill-opacity="0.992" d="
  M 161.52 24.29
  Q 157.96 26.29 154.12 27.69
  Q 148.40 29.78 146.58 30.64
  Q 138.21 34.60 126.65 40.66
  C 125.95 41.03 125.61 41.46 125.10 41.73
  Q 117.52 45.88 110.52 50.94
  C 109.40 51.75 109.21 52.39 107.52 52.64
  Q 107.64 52.00 108.23 51.73
  Q 109.10 51.34 109.19 51.28
  Q 133.49 34.26 161.52 24.29
  Z"
/>
<path fill="#ffffff" d="
  M 238.8618 458.8070
  A 217.38 217.18 90.3 0 1 22.8230 240.2929
  A 217.38 217.18 90.3 0 1 241.1382 24.0530
  A 217.38 217.18 90.3 0 1 457.1770 242.5671
  A 217.38 217.18 90.3 0 1 238.8618 458.8070
  Z
  M 203.62 155.75
  C 218.88 157.56 232.32 165.59 242.32 176.98
  A 1.09 1.08 -42.3 0 0 243.88 177.05
  C 256.57 165.08 274.88 159.66 292.08 159.18
  C 304.33 158.84 314.16 159.75 324.39 164.36
  C 345.14 173.74 356.93 191.03 362.01 213.00
  Q 363.19 218.13 363.21 225.18
  Q 363.46 313.12 363.52 402.11
  A 0.23 0.23 0.0 0 0 363.90 402.29
  C 376.14 392.32 387.92 381.17 397.76 368.91
  C 450.84 302.74 457.41 210.63 414.17 137.61
  C 363.54 52.09 258.31 16.38 165.46 52.55
  A 0.73 0.72 79.5 0 0 165.00 53.23
  L 164.99 163.57
  A 0.34 0.33 71.1 0 0 165.53 163.84
  C 175.98 155.50 190.12 154.14 203.62 155.75
  Z
  M 262.50 312.29
  L 214.67 312.60
  A 0.68 0.68 0.0 0 1 213.99 311.95
  Q 213.91 310.22 213.91 308.50
  Q 213.90 266.25 213.99 224.00
  Q 213.99 221.90 212.58 219.93
  C 201.54 204.58 181.89 203.66 168.72 216.47
  C 165.24 219.85 165.18 223.93 165.11 229.00
  C 164.77 256.49 165.18 284.04 164.99 311.52
  A 0.99 0.99 0.0 0 1 164.00 312.50
  L 117.18 312.45
  A 1.27 1.27 0.0 0 1 115.91 311.18
  L 116.00 81.63
  A 0.51 0.51 0.0 0 0 115.17 81.24
  Q 104.35 90.28 94.32 100.57
  C 28.20 168.45 18.58 275.19 71.25 353.79
  Q 107.49 407.87 168.35 431.32
  C 214.65 449.16 268.37 448.75 314.55 430.26
  Q 315.04 430.06 315.04 429.53
  Q 314.82 326.89 314.35 224.25
  Q 314.35 223.00 313.05 220.95
  C 302.90 204.91 281.22 202.78 268.35 217.00
  C 264.99 220.72 263.53 222.64 263.53 227.50
  Q 263.51 269.52 263.12 311.66
  A 0.63 0.62 -90.0 0 1 262.50 312.29
  Z"
/>
<path fill="#9a969c" fill-opacity="0.992" d="
  M 334.24 30.66
  Q 346.58 35.93 357.76 43.01
  L 334.24 30.66
  Z"
/>
<path fill="#000000" d="
  M 242.32 176.98
  C 232.32 165.59 218.88 157.56 203.62 155.75
  C 190.12 154.14 175.98 155.50 165.53 163.84
  A 0.34 0.33 71.1 0 1 164.99 163.57
  L 165.00 53.23
  A 0.73 0.72 79.5 0 1 165.46 52.55
  C 258.31 16.38 363.54 52.09 414.17 137.61
  C 457.41 210.63 450.84 302.74 397.76 368.91
  C 387.92 381.17 376.14 392.32 363.90 402.29
  A 0.23 0.23 0.0 0 1 363.52 402.11
  Q 363.46 313.12 363.21 225.18
  Q 363.19 218.13 362.01 213.00
  C 356.93 191.03 345.14 173.74 324.39 164.36
  C 314.16 159.75 304.33 158.84 292.08 159.18
  C 274.88 159.66 256.57 165.08 243.88 177.05
  A 1.09 1.08 -42.3 0 1 242.32 176.98
  Z"
/>
<path fill="#9a969c" fill-opacity="0.992" d="
  M 357.76 43.01
  Q 365.25 47.09 372.10 52.17
  Q 372.25 52.28 372.52 52.76
  C 370.54 52.28 369.19 50.60 367.81 49.74
  Q 362.65 46.55 357.76 43.01
  Z"
/>
<path fill="#9a969c" fill-opacity="0.992" d="
  M 107.14 52.87
  L 101.40 57.66
  Q 101.08 57.93 100.67 57.89
  Q 100.43 57.87 100.31 57.80
  L 107.14 52.87
  Z"
/>
<path fill="#9a969c" fill-opacity="0.992" d="
  M 99.78 58.00
  Q 99.92 58.04 99.89 58.24
  Q 99.88 58.35 99.78 58.45
  Q 97.44 60.93 94.80 62.08
  L 99.78 58.00
  Z"
/>
<path fill="#9a969c" fill-opacity="0.992" d="
  M 390.85 66.90
  C 425.00 96.54 448.59 133.77 461.51 177.18
  Q 461.33 177.27 461.16 177.36
  Q 455.84 160.93 448.94 145.20
  Q 447.11 141.04 441.24 129.76
  C 440.70 128.73 439.96 127.98 439.54 127.13
  Q 436.96 121.94 433.59 117.23
  C 432.93 116.29 432.50 115.11 431.73 114.00
  C 422.86 101.19 413.80 90.00 402.70 78.87
  Q 396.76 72.92 390.85 66.90
  Z"
/>
<path fill="#9a969c" fill-opacity="0.992" d="
  M 85.59 70.07
  Q 82.90 73.29 77.64 78.26
  Q 74.87 80.88 67.67 88.59
  Q 67.35 88.94 65.75 91.04
  C 64.41 92.79 62.64 94.16 61.38 96.21
  Q 60.63 97.44 59.09 98.91
  C 57.52 100.42 56.81 102.46 55.69 103.94
  Q 52.52 108.15 49.37 112.37
  C 48.33 113.76 47.53 115.65 46.44 117.15
  Q 43.83 120.75 41.61 124.62
  Q 34.79 136.54 29.00 148.99
  Q 28.84 149.33 28.85 149.68
  Q 28.86 150.08 28.70 150.44
  C 19.84 171.83 14.00 192.57 11.31 215.45
  C 10.82 219.64 10.87 225.33 10.07 230.26
  C 9.62 216.24 12.66 201.39 15.84 187.77
  C 26.51 142.09 50.92 101.44 85.59 70.07
  Z"
/>
<path fill="#000000" d="
  M 262.50 312.29
  A 0.63 0.62 90.0 0 0 263.12 311.66
  Q 263.51 269.52 263.53 227.50
  C 263.53 222.64 264.99 220.72 268.35 217.00
  C 281.22 202.78 302.90 204.91 313.05 220.95
  Q 314.35 223.00 314.35 224.25
  Q 314.82 326.89 315.04 429.53
  Q 315.04 430.06 314.55 430.26
  C 268.37 448.75 214.65 449.16 168.35 431.32
  Q 107.49 407.87 71.25 353.79
  C 18.58 275.19 28.20 168.45 94.32 100.57
  Q 104.35 90.28 115.17 81.24
  A 0.51 0.51 0.0 0 1 116.00 81.63
  L 115.91 311.18
  A 1.27 1.27 0.0 0 0 117.18 312.45
  L 164.00 312.50
  A 0.99 0.99 0.0 0 0 164.99 311.52
  C 165.18 284.04 164.77 256.49 165.11 229.00
  C 165.18 223.93 165.24 219.85 168.72 216.47
  C 181.89 203.66 201.54 204.58 212.58 219.93
  Q 213.99 221.90 213.99 224.00
  Q 213.90 266.25 213.91 308.50
  Q 213.91 310.22 213.99 311.95
  A 0.68 0.68 0.0 0 0 214.67 312.60
  L 262.50 312.29
  Z"
/>
<path fill="#ffffff" d="
  M 461.16 177.36
  Q 461.33 177.27 461.51 177.18
  Q 466.24 194.16 468.90 213.56
  Q 470.14 222.67 469.97 230.22
  C 469.49 226.67 469.52 222.67 469.18 219.60
  Q 466.84 198.11 461.16 177.36
  Z"
/>
<path fill="#ffffff" d="
  M 469.99 253.06
  C 470.13 264.51 468.14 277.61 465.41 288.55
  Q 468.64 270.81 469.99 253.06
  Z"
/>
<path fill="#9a969c" fill-opacity="0.992" d="
  M 10.03 253.48
  C 10.69 256.94 10.44 260.53 10.94 263.81
  C 11.53 267.61 11.71 271.48 12.44 275.19
  Q 13.76 281.94 14.50 288.83
  C 11.92 277.41 9.83 265.20 10.03 253.48
  Z"
/>
<path fill="#9a969c" fill-opacity="0.992" d="
  M 49.72 371.73
  Q 25.51 336.65 15.75 294.79
  Q 19.03 305.57 22.29 315.99
  Q 26.14 328.34 33.90 343.99
  Q 38.71 353.71 49.72 371.73
  Z"
/>
<path fill="#ffffff" d="
  M 463.56 297.31
  Q 456.11 328.24 440.16 355.99
  Q 440.04 356.06 439.78 355.97
  C 442.30 351.21 445.15 346.30 447.30 341.66
  Q 457.22 320.23 463.56 297.31
  Z"
/>
<path fill="#9a969c" fill-opacity="0.992" d="
  M 439.78 355.97
  Q 440.04 356.06 440.16 355.99
  Q 428.51 376.78 412.48 394.59
  Q 414.59 391.34 420.57 384.32
  Q 428.12 375.44 439.78 355.97
  Z"
/>
<path fill="#9a969c" fill-opacity="0.992" d="
  M 49.84 371.88
  Q 53.04 374.86 54.75 378.81
  L 49.84 371.88
  Z"
/>
<path fill="#9a969c" fill-opacity="0.992" d="
  M 192.11 467.39
  C 138.87 455.86 91.30 426.43 57.97 383.11
  Q 60.29 385.16 62.22 387.60
  C 72.76 400.95 85.31 412.86 98.72 423.31
  C 115.71 436.56 134.68 447.53 153.75 455.19
  Q 165.20 459.79 181.69 464.42
  Q 181.73 464.43 186.88 465.48
  Q 189.63 466.04 192.11 467.39
  Z"
/>
<path fill="#9a969c" fill-opacity="0.992" d="
  M 408.55 398.81
  Q 379.65 430.20 341.14 449.01
  Q 341.05 448.56 342.19 448.07
  Q 343.08 447.69 343.43 447.50
  Q 357.13 439.97 361.28 437.33
  Q 377.99 426.75 391.19 415.15
  Q 397.74 409.40 408.55 398.81
  Z"
/>
<path fill="#9a969c" fill-opacity="0.992" d="
  M 340.75 449.09
  L 328.94 454.38
  Q 329.42 454.15 329.84 453.82
  Q 330.32 453.45 330.72 453.29
  Q 335.28 451.43 339.62 449.12
  Q 340.18 448.81 340.75 449.09
  Z"
/>
<path fill="#9a969c" fill-opacity="0.992" d="
  M 324.27 456.34
  C 297.31 467.45 266.89 472.92 238.18 471.83
  C 251.29 471.39 264.10 470.95 277.07 468.84
  Q 291.20 466.53 296.12 465.12
  Q 310.41 461.02 314.45 459.45
  Q 320.66 457.05 324.27 456.34
  Z"
/>
<path fill="#9a969c" fill-opacity="0.992" d="
  M 227.56 471.92
  Q 210.14 471.28 192.92 467.42
  L 227.56 471.92
  Z"
/>
</svg>
