<?xml version="1.0" encoding="UTF-8" standalone="no"?>
<!DOCTYPE svg PUBLIC "-//W3C//DTD SVG 1.1//EN" "http://www.w3.org/Graphics/SVG/1.1/DTD/svg11.dtd">
<svg xmlns="http://www.w3.org/2000/svg" version="1.1" viewBox="0.00 0.00 536.00 155.00">
<path fill="#ffffff" d="
  M 265.13 0.00
  L 266.73 0.00
  C 274.89 1.24 270.43 8.38 267.13 11.63
  Q 253.72 24.85 239.78 37.51
  Q 234.71 42.11 230.41 47.65
  A 0.54 0.54 0.0 0 0 230.81 48.52
  C 260.36 49.94 289.74 48.88 319.33 47.47
  C 330.94 46.92 345.75 45.68 358.98 45.12
  C 364.04 44.91 369.83 44.20 374.00 44.00
  C 404.17 42.54 432.79 39.96 464.50 41.27
  Q 470.70 41.53 494.00 44.01
  C 503.86 45.06 518.60 48.64 534.32 50.35
  Q 534.38 50.36 534.39 50.43
  Q 534.41 50.57 534.31 50.66
  Q 534.27 50.70 534.19 50.71
  Q 528.72 51.25 524.25 50.95
  C 511.12 50.08 496.97 48.37 483.51 47.95
  Q 472.38 47.61 461.24 47.20
  Q 427.53 45.95 393.96 48.79
  Q 383.70 49.66 374.01 50.30
  C 365.10 50.88 356.04 51.83 347.33 52.27
  Q 333.40 52.97 319.50 54.02
  C 304.10 55.19 278.56 55.38 258.00 55.23
  Q 183.12 54.67 108.25 54.31
  C 81.84 54.18 62.63 54.86 38.35 59.45
  C 34.61 60.16 30.04 61.30 26.39 62.74
  Q 13.77 67.74 1.30 72.06
  Q -0.35 72.63 1.01 71.55
  C 11.38 63.31 23.95 58.22 36.79 55.34
  Q 40.11 54.60 43.44 53.80
  C 47.88 52.73 52.41 52.37 56.96 51.66
  Q 60.83 51.05 63.80 50.80
  C 94.89 48.24 125.22 48.37 159.00 49.25
  Q 172.99 49.62 185.59 42.12
  C 209.00 28.18 232.44 14.35 256.74 2.00
  Q 258.82 0.94 265.13 0.00
  Z
  M 187.37 49.19
  C 197.70 50.11 209.98 51.80 218.43 45.14
  Q 232.56 34.00 245.43 21.45
  C 248.84 18.14 254.95 12.97 259.36 7.76
  A 1.23 1.22 -61.8 0 0 258.77 5.79
  C 257.62 5.46 256.01 5.97 254.85 6.60
  C 234.14 17.92 213.70 29.71 193.02 41.08
  Q 188.83 43.38 184.93 46.65
  A 1.32 1.31 -59.9 0 0 185.54 48.95
  Q 186.29 49.09 187.37 49.19
  Z"
/>
<path fill="#ffffff" d="
  M 496.50 75.50
  C 488.45 70.17 483.35 67.52 474.72 64.47
  C 460.18 59.33 443.71 57.57 429.01 60.06
  C 415.95 62.28 408.15 66.75 397.96 72.51
  C 395.40 73.96 393.08 76.10 390.51 77.80
  A 1.15 1.14 -10.5 0 1 388.76 76.60
  Q 389.30 74.14 391.37 72.11
  C 401.84 61.83 413.12 57.19 426.94 54.36
  C 439.68 51.76 452.52 51.77 464.99 55.24
  C 477.77 58.79 487.29 64.06 499.11 74.30
  A 0.71 0.71 0.0 0 1 498.98 75.46
  L 498.71 75.60
  Q 497.57 76.21 496.50 75.50
  Z"
/>
<path fill="#ffffff" d="
  M 124.09 82.42
  C 113.49 76.86 103.07 70.46 90.74 67.84
  C 74.21 64.32 56.98 66.15 40.78 71.75
  Q 29.43 75.68 18.81 82.85
  A 0.94 0.94 0.0 0 1 17.41 82.42
  L 17.28 82.09
  Q 16.74 80.73 17.85 79.77
  C 38.82 61.74 68.58 53.42 95.09 62.82
  C 105.17 66.39 118.47 73.15 125.43 81.58
  A 0.64 0.64 0.0 0 1 125.20 82.57
  Q 124.76 82.77 124.09 82.42
  Z"
/>
<path fill="#ffffff" d="
  M 122.99 111.07
  L 119.70 119.48
  Q 119.51 119.98 119.03 120.23
  Q 118.06 120.74 117.53 121.72
  Q 117.28 122.19 116.76 122.26
  Q 113.29 122.75 109.81 122.85
  C 107.91 122.90 106.18 122.09 104.07 122.19
  A 1.09 1.08 67.3 0 1 103.20 121.83
  Q 101.30 119.72 101.17 116.85
  Q 101.15 116.29 101.45 115.83
  Q 102.54 114.18 102.19 112.15
  Q 102.09 111.62 102.52 111.31
  L 102.76 111.13
  Q 103.09 110.88 103.14 110.46
  L 104.11 101.39
  A 0.46 0.45 -2.8 0 0 103.56 100.90
  C 102.15 101.20 100.86 101.29 99.61 102.15
  C 95.32 105.10 91.43 107.69 87.91 111.78
  Q 81.92 118.74 75.37 125.17
  Q 74.91 125.62 73.46 126.69
  C 72.51 127.38 71.91 128.29 70.95 128.83
  Q 68.17 130.40 65.23 131.67
  A 1.18 1.18 0.0 0 1 64.47 131.73
  Q 61.79 131.03 59.01 131.29
  A 0.45 0.45 0.0 0 1 58.53 130.72
  Q 59.13 128.58 60.23 126.78
  Q 65.80 117.67 70.66 108.17
  C 71.39 106.72 73.09 105.34 74.05 103.90
  Q 77.02 99.47 80.51 95.42
  C 81.20 94.62 81.25 94.15 81.02 93.19
  Q 80.88 92.61 81.19 92.11
  Q 81.46 91.70 81.56 91.21
  A 0.84 0.84 0.0 0 0 80.90 90.21
  Q 78.73 89.79 76.89 88.58
  Q 76.40 88.25 76.06 88.73
  L 75.77 89.15
  Q 75.37 89.71 74.68 89.78
  Q 73.32 89.92 72.55 91.06
  A 1.64 1.60 6.6 0 1 71.73 91.69
  C 69.11 92.58 66.90 94.97 64.20 96.94
  Q 59.26 100.53 55.01 107.24
  Q 54.56 107.95 53.27 108.28
  Q 48.75 109.41 44.31 108.33
  Q 43.79 108.20 43.51 107.74
  Q 42.53 106.12 40.83 105.20
  A 0.62 0.61 18.9 0 1 40.51 104.56
  Q 41.69 96.89 49.48 96.60
  Q 50.05 96.57 50.13 96.01
  Q 50.43 93.93 52.50 93.36
  C 55.50 92.52 57.71 91.54 60.64 89.73
  Q 66.73 85.96 72.75 84.37
  C 73.75 84.10 77.09 84.29 78.23 83.14
  A 1.40 1.37 -67.5 0 1 79.22 82.72
  L 84.75 82.71
  Q 85.31 82.71 85.82 82.95
  Q 87.28 83.62 88.96 83.15
  A 1.39 1.39 0.0 0 1 90.71 84.66
  C 90.39 87.30 91.52 89.57 91.91 92.13
  Q 91.99 92.66 91.62 93.04
  L 80.37 104.93
  A 1.11 1.10 -71.2 0 0 81.28 106.79
  L 83.20 106.59
  A 0.88 0.88 0.0 0 0 83.95 106.01
  Q 84.54 104.38 85.82 104.05
  Q 89.12 103.22 91.35 101.49
  C 94.71 98.89 98.05 95.88 101.55 94.71
  Q 105.08 93.53 108.75 92.88
  Q 109.13 92.81 109.40 92.51
  Q 109.50 92.41 109.59 92.28
  A 0.41 0.39 -68.4 0 1 109.92 92.13
  C 114.31 92.40 116.05 94.94 116.69 99.00
  Q 116.95 100.57 115.97 102.84
  Q 114.77 105.65 114.00 109.36
  A 1.11 1.10 -74.4 0 0 114.71 110.63
  L 114.99 110.73
  A 0.46 0.46 0.0 0 0 115.58 110.45
  L 117.07 106.38
  A 0.83 0.82 -87.1 0 1 117.63 105.87
  Q 122.09 104.68 126.47 103.39
  Q 129.16 102.59 132.53 103.38
  C 135.22 104.02 136.11 105.76 137.35 107.99
  C 139.83 112.45 135.36 116.80 139.98 121.88
  Q 140.28 122.20 140.71 122.23
  C 143.23 122.41 144.86 122.53 147.33 121.44
  Q 151.70 119.51 156.39 119.64
  A 0.71 0.71 0.0 0 1 156.91 120.82
  Q 153.90 124.25 149.92 126.54
  C 148.93 127.10 148.68 127.64 148.02 128.50
  A 1.31 1.30 12.9 0 1 147.27 128.97
  Q 145.05 129.46 143.14 130.68
  Q 142.73 130.94 142.25 130.95
  L 133.97 131.27
  Q 133.46 131.29 133.03 131.02
  C 130.27 129.27 128.46 127.59 127.29 124.31
  C 126.43 121.88 124.17 118.39 126.82 116.30
  A 0.85 0.85 0.0 0 0 127.13 115.55
  Q 127.09 115.13 126.72 114.93
  Q 126.23 114.65 126.06 114.10
  C 125.58 112.52 125.64 111.08 123.60 110.73
  Q 123.15 110.65 122.99 111.07
  Z"
/>
<path fill="#ffffff" d="
  M 341.68 155.00
  L 341.00 155.00
  Q 340.91 154.44 340.55 154.21
  Q 340.10 153.91 339.88 154.40
  Q 339.77 154.66 339.50 154.77
  A 0.41 0.41 0.0 0 1 338.97 154.24
  Q 339.46 153.08 338.32 152.73
  Q 337.82 152.58 337.79 152.06
  C 337.45 146.90 343.06 144.52 344.57 140.06
  Q 345.51 137.25 346.16 134.36
  C 347.06 130.33 349.00 126.59 349.54 122.23
  Q 349.61 121.70 349.08 121.79
  C 346.68 122.17 343.65 122.09 341.53 123.45
  A 0.69 0.69 0.0 0 0 341.61 124.65
  L 343.55 125.55
  A 1.23 1.23 0.0 0 1 343.52 127.79
  C 339.66 129.48 333.59 132.17 329.81 128.52
  C 328.36 127.12 326.57 125.64 325.99 123.65
  Q 325.59 122.31 325.09 121.53
  C 323.20 118.61 324.76 113.57 321.69 111.99
  A 0.55 0.55 0.0 0 0 320.96 112.21
  C 319.13 115.51 314.78 121.33 311.24 122.77
  Q 309.38 123.52 308.93 124.17
  C 305.93 128.51 299.75 129.09 295.01 130.08
  C 293.62 130.37 292.09 129.70 290.89 130.11
  Q 287.47 131.30 285.89 128.39
  Q 285.65 127.95 285.14 128.00
  Q 282.94 128.23 281.04 127.13
  Q 280.57 126.85 280.22 127.27
  C 276.86 131.27 273.26 130.32 268.98 131.00
  Q 265.27 131.59 261.50 131.11
  A 1.19 1.18 77.2 0 1 260.65 130.57
  Q 259.81 129.23 258.29 128.93
  Q 257.73 128.82 257.73 128.25
  L 257.74 125.96
  Q 257.74 125.30 257.17 125.63
  C 252.63 128.28 248.79 130.24 243.43 130.62
  C 241.42 130.76 239.84 129.90 238.01 129.18
  C 236.25 128.49 235.38 127.08 234.04 125.83
  Q 233.65 125.46 233.56 124.93
  Q 233.30 123.30 232.02 122.25
  Q 231.60 121.90 231.56 121.36
  C 231.41 119.54 232.41 117.07 231.35 115.59
  Q 231.04 115.16 231.10 114.63
  L 231.85 107.50
  Q 231.97 106.30 230.77 106.22
  L 224.43 105.77
  A 0.66 0.63 -25.8 0 1 224.12 105.67
  C 220.95 103.51 218.17 104.40 214.85 104.70
  C 212.59 104.89 211.20 103.61 211.13 101.45
  Q 211.11 100.88 211.67 100.76
  C 212.97 100.46 213.98 99.86 215.30 99.77
  Q 219.13 99.50 222.58 97.88
  C 224.20 97.12 225.26 97.33 226.92 96.96
  Q 227.31 96.87 227.70 96.98
  L 233.14 98.42
  A 2.51 2.51 0.0 0 0 236.30 95.83
  L 236.03 91.69
  A 1.56 1.55 -73.5 0 1 238.51 90.34
  Q 240.16 91.56 242.24 92.02
  Q 242.69 92.12 242.81 92.57
  L 243.85 96.40
  A 2.30 2.30 0.0 0 0 245.69 98.06
  Q 246.74 98.24 248.00 98.67
  C 250.56 99.55 253.61 99.51 256.14 99.56
  Q 258.12 99.60 256.54 100.79
  Q 254.93 102.01 252.96 101.49
  Q 252.46 101.36 251.96 101.47
  C 250.37 101.82 246.96 102.19 246.09 103.66
  Q 245.83 104.10 245.43 104.42
  L 243.34 106.13
  Q 242.94 106.46 242.86 106.96
  Q 242.39 110.00 241.92 113.00
  Q 241.66 114.65 242.78 115.70
  Q 243.12 116.02 243.19 116.47
  Q 243.81 120.16 246.01 123.11
  A 2.59 2.59 0.0 0 0 249.93 123.39
  L 252.43 120.88
  A 0.90 0.88 21.6 0 1 253.07 120.61
  Q 255.85 120.64 257.21 118.20
  Q 257.51 117.66 258.14 117.70
  Q 259.86 117.83 260.54 116.79
  Q 263.52 112.28 267.89 110.82
  C 270.12 110.07 272.80 110.68 275.23 110.81
  Q 275.70 110.84 275.72 111.30
  L 275.78 112.30
  A 0.69 0.68 -0.4 0 0 276.45 112.95
  Q 277.49 112.99 278.48 112.90
  C 280.37 112.72 281.26 110.97 283.47 112.87
  A 1.15 1.12 17.8 0 1 283.85 113.59
  L 284.08 115.32
  Q 284.15 115.86 284.54 116.24
  Q 285.48 117.17 285.39 118.45
  Q 285.36 118.97 285.62 119.43
  Q 287.18 122.17 290.28 122.44
  Q 290.86 122.49 291.20 122.02
  L 291.72 121.27
  A 0.57 0.57 0.0 0 1 292.53 121.14
  L 293.48 121.85
  Q 293.92 122.18 294.42 121.94
  Q 301.83 118.41 306.51 111.61
  Q 306.72 111.30 306.54 110.98
  L 306.38 110.68
  Q 306.26 110.45 306.32 110.20
  Q 307.06 107.16 309.44 105.46
  C 311.71 103.85 312.64 102.58 313.57 100.30
  A 2.13 2.13 0.0 0 0 312.35 97.50
  Q 309.97 96.61 307.75 95.33
  C 305.69 94.14 304.49 94.14 302.26 94.00
  C 299.19 93.80 298.06 90.99 295.27 90.11
  Q 292.91 89.36 290.48 88.80
  A 0.71 0.71 0.0 0 1 289.95 88.27
  L 289.30 85.48
  A 0.80 0.80 0.0 0 1 289.57 84.67
  Q 292.72 82.09 296.55 83.55
  A 1.25 1.23 -43.7 0 0 297.40 83.56
  L 298.44 83.18
  Q 298.94 83.01 299.41 83.22
  C 304.04 85.28 308.52 84.12 311.70 88.72
  Q 312.02 89.18 312.55 89.36
  Q 314.95 90.15 316.49 92.15
  A 1.75 1.75 0.0 0 0 318.96 92.47
  C 323.89 88.62 325.54 83.99 332.66 82.91
  Q 333.18 82.83 333.65 83.06
  C 336.17 84.28 338.62 84.69 340.76 86.52
  A 0.57 0.57 0.0 0 1 340.72 87.41
  C 336.17 90.62 333.22 94.29 329.03 99.59
  C 327.92 101.00 327.39 102.66 326.12 104.13
  A 0.72 0.72 0.0 0 0 326.08 105.01
  L 337.30 120.63
  Q 337.71 121.21 338.30 120.80
  L 341.57 118.55
  Q 341.99 118.26 342.07 117.75
  L 342.77 113.18
  A 1.59 1.59 0.0 0 1 344.58 111.85
  C 346.28 112.12 347.33 111.13 348.82 110.98
  Q 351.48 110.71 354.13 110.77
  A 0.70 0.69 81.8 0 1 354.78 111.26
  Q 355.08 112.29 355.95 112.89
  A 1.37 1.34 -78.3 0 1 356.52 113.78
  L 357.31 118.51
  A 0.56 0.56 0.0 0 0 358.18 118.88
  Q 366.89 113.02 377.40 113.15
  C 378.67 113.17 379.52 113.72 380.77 114.03
  Q 381.22 114.15 381.39 114.59
  L 381.79 115.69
  A 0.64 0.63 75.4 0 0 382.48 116.10
  C 384.42 115.80 384.29 113.12 384.50 111.80
  Q 384.67 110.74 385.74 110.67
  C 389.13 110.44 393.67 109.52 396.52 110.60
  C 398.84 111.48 401.81 114.06 401.18 116.90
  Q 401.07 117.39 400.62 117.59
  L 396.39 119.50
  A 0.80 0.79 -10.8 0 0 395.93 120.17
  L 395.79 122.42
  Q 395.76 122.88 396.19 123.03
  L 398.73 123.91
  A 1.76 1.76 0.0 0 0 400.68 123.36
  Q 401.84 121.95 403.69 122.28
  Q 404.23 122.38 404.23 121.82
  Q 404.23 120.20 405.04 119.28
  C 409.94 113.68 411.73 109.12 420.25 110.18
  Q 424.44 110.71 427.26 112.72
  Q 427.68 113.02 427.64 113.54
  C 427.42 116.62 426.52 118.87 423.60 120.40
  C 421.44 121.54 417.22 122.65 415.64 124.24
  A 0.55 0.55 0.0 0 0 416.03 125.17
  C 422.04 125.13 427.38 122.26 432.83 120.21
  Q 433.19 120.08 433.58 120.11
  L 434.05 120.16
  Q 434.67 120.21 434.90 119.64
  C 435.47 118.17 438.56 117.58 439.88 116.26
  C 441.06 115.09 441.92 114.67 443.10 113.79
  Q 443.51 113.49 443.56 112.98
  Q 443.76 110.78 445.88 110.21
  Q 446.38 110.07 446.84 110.31
  C 449.85 111.87 452.44 112.90 454.83 115.88
  C 456.28 117.68 456.74 119.72 457.52 121.89
  C 458.41 124.39 457.78 125.86 456.39 127.84
  A 0.28 0.28 0.0 0 0 456.77 128.24
  L 460.27 125.99
  Q 460.80 125.65 460.59 125.06
  Q 460.26 124.12 460.38 123.13
  A 0.86 0.85 88.1 0 1 461.06 122.40
  C 463.45 121.90 467.51 121.78 468.47 119.19
  Q 468.65 118.70 469.14 118.52
  C 470.55 117.99 471.65 117.73 472.78 116.60
  Q 474.43 114.95 476.50 113.82
  A 0.93 0.92 -14.2 0 0 476.98 113.03
  Q 477.05 110.95 478.97 110.25
  A 1.04 1.01 -45.8 0 1 479.65 110.23
  C 484.05 111.68 488.34 114.64 489.86 119.18
  C 491.03 122.71 492.48 124.48 489.67 127.81
  Q 489.01 128.59 489.95 128.18
  Q 492.37 127.10 494.29 125.29
  A 1.17 1.13 17.1 0 1 494.92 124.97
  Q 498.17 124.43 501.50 124.47
  Q 503.78 124.50 501.92 125.82
  C 499.53 127.50 497.37 129.71 494.73 130.89
  Q 483.27 136.02 469.64 134.83
  A 0.93 0.92 86.6 0 1 468.82 134.09
  Q 468.54 132.74 467.16 132.46
  Q 465.90 132.21 466.87 131.37
  C 471.00 127.82 476.24 132.81 479.59 126.51
  Q 480.96 123.94 481.00 117.97
  Q 481.00 117.46 480.49 117.48
  Q 480.35 117.49 480.23 117.49
  Q 480.12 117.50 480.07 117.59
  Q 476.75 124.07 470.00 125.83
  Q 467.71 126.43 466.39 127.44
  C 464.95 128.54 463.67 129.83 462.05 130.58
  Q 449.88 136.29 436.41 134.75
  Q 435.88 134.69 435.69 134.20
  Q 435.12 132.73 433.49 132.32
  A 0.50 0.49 37.0 0 1 433.36 131.41
  L 435.36 130.27
  Q 435.71 130.07 436.10 130.07
  C 439.97 130.09 444.03 130.97 446.03 126.38
  Q 447.75 122.43 447.63 118.68
  Q 447.54 115.53 446.17 118.37
  Q 443.66 123.60 436.98 125.87
  Q 434.17 126.83 429.27 125.07
  A 1.27 1.23 42.9 0 0 428.33 125.09
  Q 424.97 126.48 421.96 128.37
  Q 420.22 129.47 418.21 129.77
  C 412.93 130.55 409.11 132.15 405.09 127.65
  Q 404.74 127.26 404.83 126.75
  Q 404.85 126.62 404.87 126.50
  Q 404.97 126.01 404.49 126.13
  Q 398.13 127.68 392.38 130.83
  A 1.85 1.85 0.0 0 1 390.24 130.58
  C 388.89 129.36 387.30 127.98 386.85 126.14
  C 385.43 120.36 391.10 121.32 390.83 117.74
  A 0.63 0.63 0.0 0 0 390.24 117.17
  C 387.33 117.00 386.25 119.22 384.38 121.03
  C 382.84 122.52 380.58 123.13 379.22 125.45
  A 1.12 1.10 -80.4 0 1 378.49 125.98
  Q 376.85 126.30 375.85 127.64
  Q 375.51 128.10 374.99 128.33
  Q 373.60 128.97 372.72 130.22
  Q 372.43 130.64 371.98 130.85
  C 369.99 131.79 368.73 132.65 366.37 133.05
  C 364.47 133.37 363.19 134.43 361.31 134.47
  Q 358.96 134.52 357.05 134.50
  A 2.99 2.99 0.0 0 0 354.08 136.93
  Q 353.01 142.55 349.54 147.73
  C 348.49 149.30 348.16 151.54 346.10 152.82
  C 344.66 153.72 343.01 152.94 341.68 155.00
  Z
  M 414.15 121.50
  C 416.00 120.58 421.70 117.51 421.41 114.90
  A 1.17 1.17 0.0 0 0 419.93 113.90
  L 415.87 115.06
  Q 415.40 115.19 415.11 115.58
  C 413.94 117.13 412.17 119.62 413.41 121.32
  Q 413.70 121.72 414.15 121.50
  Z
  M 267.76 124.91
  L 274.35 125.56
  A 1.20 1.20 0.0 0 0 275.62 124.72
  Q 275.96 123.64 276.75 122.84
  A 0.90 0.86 -24.0 0 0 277.00 122.23
  L 276.99 116.37
  Q 276.98 114.29 274.96 114.73
  C 274.06 114.93 272.80 115.73 272.03 116.53
  C 270.41 118.23 265.63 121.31 267.15 124.49
  Q 267.33 124.87 267.76 124.91
  Z
  M 368.25 127.11
  Q 369.03 127.04 369.41 126.66
  Q 370.81 125.26 372.39 123.99
  Q 372.87 123.60 372.87 122.98
  L 372.87 119.57
  Q 372.87 119.08 372.39 119.08
  Q 367.38 119.02 365.75 119.65
  Q 362.91 120.74 359.29 125.07
  Q 357.72 126.95 358.07 129.33
  Q 358.17 129.96 358.80 129.91
  L 363.41 129.58
  Q 363.91 129.54 364.26 129.19
  C 365.31 128.15 366.77 127.25 368.25 127.11
  Z"
/>
<path fill="#ffffff" d="
  M 154.70 103.78
  Q 157.83 102.05 161.41 101.97
  C 163.25 101.93 164.94 102.67 166.68 103.09
  Q 167.80 103.35 167.87 104.50
  L 168.08 107.81
  Q 168.16 109.00 166.96 108.92
  Q 159.70 108.41 152.77 106.13
  A 1.14 1.14 0.0 0 1 152.75 103.97
  Q 153.23 103.81 153.75 103.92
  Q 154.25 104.02 154.70 103.78
  Z"
/>
<path fill="#ffffff" d="
  M 179.57 123.77
  Q 179.57 123.40 179.75 123.12
  Q 180.02 122.71 180.51 122.72
  L 181.28 122.75
  Q 181.96 122.78 182.11 122.11
  Q 182.75 119.19 185.23 117.63
  Q 185.67 117.36 185.92 116.91
  Q 188.41 112.33 193.22 110.82
  C 195.49 110.11 197.99 110.63 200.42 110.84
  Q 200.96 110.89 201.02 111.44
  L 201.11 112.31
  Q 201.18 112.98 201.85 112.96
  C 203.31 112.91 204.08 112.96 205.57 112.30
  Q 207.28 111.54 208.91 112.86
  Q 209.24 113.13 209.28 113.56
  Q 209.45 115.46 210.46 117.07
  A 1.92 1.91 -62.2 0 1 210.77 118.08
  C 210.83 120.81 213.64 122.37 216.08 122.45
  Q 216.59 122.47 216.76 121.99
  L 216.94 121.47
  A 0.95 0.95 0.0 0 1 218.47 121.08
  Q 221.45 123.78 220.55 125.89
  A 1.17 1.15 -84.0 0 1 219.71 126.58
  Q 218.12 126.92 216.58 127.33
  C 215.76 127.55 214.68 127.30 213.76 127.82
  Q 213.31 128.08 212.80 128.13
  Q 209.32 128.42 206.16 127.10
  Q 205.55 126.84 205.30 127.46
  L 205.16 127.80
  Q 204.94 128.34 204.47 128.67
  C 201.22 130.97 197.35 130.54 194.38 131.00
  Q 190.85 131.54 187.24 131.15
  Q 186.73 131.09 186.36 130.73
  Q 185.69 130.06 185.03 129.40
  Q 184.05 128.41 183.07 129.29
  Q 182.69 129.64 182.18 129.69
  C 181.06 129.80 180.34 129.85 179.31 130.41
  C 176.00 132.20 170.21 131.75 167.50 131.58
  C 165.78 131.47 162.89 128.66 161.43 127.85
  A 1.88 1.88 0.0 0 1 160.48 125.93
  Q 161.09 121.91 160.13 118.07
  C 159.80 116.76 158.88 116.10 158.25 114.96
  A 0.52 0.52 0.0 0 1 158.67 114.18
  L 166.62 113.56
  Q 167.08 113.52 167.31 113.92
  Q 167.82 114.78 167.52 115.78
  A 0.94 0.93 -62.2 0 0 167.82 116.76
  C 169.20 117.89 169.77 118.39 170.14 120.29
  Q 171.06 125.09 176.12 125.33
  Q 176.66 125.36 176.96 124.91
  Q 177.69 123.85 178.99 124.20
  A 0.46 0.46 0.0 0 0 179.57 123.77
  Z
  M 202.54 121.84
  C 202.25 119.71 202.83 117.69 202.22 115.87
  A 1.90 1.90 0.0 0 0 199.10 115.10
  L 192.78 121.19
  A 2.19 2.19 0.0 0 0 194.05 124.95
  L 199.86 125.61
  A 0.87 0.87 0.0 0 0 200.76 125.10
  Q 201.33 123.78 202.28 122.71
  Q 202.61 122.34 202.54 121.84
  Z"
/>
</svg>
