<?xml version="1.0" encoding="UTF-8" standalone="no"?>
<!DOCTYPE svg PUBLIC "-//W3C//DTD SVG 1.1//EN" "http://www.w3.org/Graphics/SVG/1.1/DTD/svg11.dtd">
<svg xmlns="http://www.w3.org/2000/svg" version="1.1" viewBox="0.00 0.00 1291.00 1108.00">
<path fill="#ffffff" d="
  M 769.83 78.26
  C 766.46 77.64 762.94 78.23 759.82 76.47
  C 756.91 74.83 753.70 74.57 750.49 74.21
  Q 749.49 74.10 748.01 72.81
  Q 747.63 72.48 747.11 72.50
  Q 742.02 72.78 737.04 71.86
  C 734.95 71.47 733.51 69.74 731.34 69.80
  Q 722.78 70.02 714.50 67.78
  C 712.59 67.26 710.16 67.56 708.18 67.27
  C 703.78 66.63 699.22 66.85 694.96 65.65
  C 691.50 64.67 689.15 64.92 686.44 64.38
  Q 685.96 64.28 685.48 64.40
  Q 682.76 65.06 681.00 64.61
  Q 676.73 63.52 671.75 63.79
  C 670.28 63.87 668.84 63.27 667.39 63.27
  C 652.05 63.27 636.40 62.70 621.11 63.68
  C 617.38 63.92 613.53 63.59 609.99 64.01
  Q 600.50 65.13 591.06 66.59
  C 588.81 66.94 585.89 66.89 583.29 67.29
  C 580.92 67.64 578.57 67.25 576.17 67.92
  Q 573.50 68.66 572.28 68.78
  C 568.18 69.19 564.79 69.62 560.33 70.81
  C 555.63 72.06 550.90 71.86 546.32 73.09
  Q 541.02 74.51 535.59 75.25
  Q 533.89 75.49 532.13 76.52
  C 528.99 78.37 525.55 77.29 522.23 78.62
  C 519.11 79.88 517.58 80.19 514.78 80.68
  C 512.49 81.09 510.51 82.30 508.14 82.81
  C 504.30 83.63 500.20 85.02 496.62 86.69
  C 493.52 88.12 490.00 88.55 487.18 89.63
  C 477.58 93.32 467.33 96.74 458.41 100.55
  Q 451.06 103.69 443.79 106.97
  C 442.29 107.65 439.96 109.14 437.89 109.95
  Q 436.03 110.69 435.45 110.97
  Q 409.52 123.20 387.68 137.18
  C 375.22 145.15 360.40 155.11 348.02 164.78
  Q 293.23 207.52 251.77 263.33
  C 245.51 271.75 239.31 281.79 233.08 291.07
  Q 225.54 302.27 210.51 330.41
  C 206.59 337.75 203.23 345.59 199.75 353.26
  C 199.17 354.52 198.30 355.41 197.83 356.65
  Q 196.65 359.86 195.45 363.05
  C 194.53 365.50 192.48 367.41 191.96 369.82
  Q 191.15 373.57 189.28 376.94
  A 2.12 2.04 -31.3 0 0 189.01 377.96
  Q 188.97 380.67 186.88 382.37
  A 1.05 1.05 0.0 0 0 186.49 383.12
  C 186.26 386.69 184.66 389.99 183.85 392.92
  C 183.01 395.95 181.61 398.87 180.89 401.75
  C 178.19 412.64 174.30 423.72 172.12 434.13
  C 171.59 436.63 170.28 438.37 169.90 440.70
  C 169.29 444.45 167.82 447.60 167.70 451.49
  Q 167.59 455.31 165.90 458.78
  Q 164.66 461.35 164.73 464.15
  C 164.77 465.65 164.13 467.02 164.55 468.55
  A 0.77 0.77 0.0 0 1 163.98 469.50
  C 161.04 470.16 158.05 469.99 155.05 470.36
  C 149.00 471.09 142.94 470.11 137.04 471.62
  C 132.07 472.90 127.93 473.66 122.88 473.77
  C 119.48 473.84 117.48 475.85 114.75 476.42
  C 111.32 477.14 108.99 473.44 109.43 470.52
  Q 109.87 467.58 110.43 464.66
  C 111.15 460.97 111.03 456.54 112.30 452.50
  Q 113.18 449.70 113.49 447.39
  C 113.98 443.74 115.14 440.19 115.51 436.75
  Q 115.96 432.53 116.23 431.26
  C 116.62 429.45 118.11 428.05 118.52 426.35
  C 119.39 422.80 118.82 419.34 120.68 415.95
  Q 122.36 412.88 122.19 409.25
  C 122.07 406.88 123.62 405.96 124.07 404.15
  Q 124.63 401.86 125.29 397.77
  Q 126.15 392.41 129.64 385.13
  Q 130.24 383.88 130.19 381.46
  A 1.10 1.07 70.2 0 1 130.58 380.60
  C 131.95 379.44 132.55 378.56 132.50 376.61
  C 132.41 373.35 134.21 370.25 135.86 366.77
  Q 136.55 365.30 137.37 362.02
  C 137.96 359.64 139.20 357.67 139.91 355.75
  C 150.77 326.06 165.44 297.90 181.66 270.81
  C 205.34 231.30 233.73 196.62 266.18 164.28
  Q 266.26 164.19 269.40 161.32
  C 271.03 159.83 272.38 158.00 273.93 156.63
  C 285.88 146.03 295.18 137.27 310.68 124.93
  C 312.90 123.17 315.72 121.47 318.05 119.62
  C 344.91 98.43 372.94 82.55 401.71 66.80
  C 405.81 64.56 410.79 62.69 415.22 60.32
  C 418.60 58.51 422.33 57.77 425.84 56.04
  Q 431.04 53.48 431.35 53.35
  Q 434.17 52.15 437.02 51.03
  C 439.22 50.17 440.79 48.80 443.02 48.20
  C 448.05 46.85 450.98 45.64 453.84 43.45
  Q 454.25 43.14 454.76 43.09
  C 459.13 42.64 461.99 41.08 465.64 39.90
  C 468.89 38.85 471.78 37.50 474.96 36.77
  C 476.97 36.30 478.88 35.33 480.98 34.94
  C 484.24 34.34 486.98 32.48 489.74 31.89
  C 492.23 31.36 494.14 31.40 496.62 30.33
  Q 499.78 28.98 503.33 29.05
  A 1.37 1.35 -63.8 0 0 504.22 28.74
  C 508.07 25.51 511.18 26.91 515.20 25.31
  Q 519.80 23.48 524.75 22.98
  A 1.90 1.87 24.1 0 0 525.64 22.65
  C 528.15 20.93 533.28 20.79 537.00 20.61
  C 538.53 20.54 540.41 19.28 542.05 19.00
  Q 546.87 18.16 551.75 17.64
  C 553.26 17.48 554.55 16.51 556.13 16.31
  C 563.05 15.43 569.90 15.10 576.84 13.50
  C 578.40 13.14 580.45 13.58 582.16 12.58
  Q 582.60 12.32 583.11 12.35
  C 586.35 12.51 589.84 12.01 592.68 12.00
  Q 642.28 11.99 691.88 12.01
  C 701.99 12.01 710.08 12.62 719.23 14.32
  C 720.26 14.51 720.92 14.93 721.95 15.02
  Q 728.73 15.62 735.52 16.21
  Q 737.01 16.34 739.35 17.36
  C 742.01 18.52 745.28 18.17 747.53 18.56
  Q 753.41 19.56 759.25 20.76
  C 761.71 21.27 764.65 21.20 767.41 22.81
  Q 767.84 23.06 768.34 23.04
  Q 770.95 22.94 773.26 24.22
  Q 773.58 24.40 774.11 24.34
  Q 774.59 24.29 774.93 24.37
  Q 780.40 25.75 785.94 26.88
  Q 786.43 26.98 786.77 27.35
  Q 788.52 29.26 789.98 29.14
  C 795.06 28.70 798.61 31.96 804.00 32.13
  A 1.11 1.10 69.2 0 1 804.79 32.49
  Q 806.37 34.23 808.74 34.24
  Q 809.24 34.24 809.69 34.44
  C 811.31 35.19 812.98 35.08 814.50 35.80
  C 815.69 36.36 816.54 36.93 817.94 36.96
  C 820.94 37.04 821.94 38.07 824.01 39.27
  C 825.69 40.25 827.97 40.22 829.90 41.07
  Q 832.00 41.98 833.73 42.52
  C 846.38 46.45 858.50 52.21 870.64 57.48
  C 892.03 66.78 911.65 78.56 932.13 90.36
  Q 936.14 92.67 945.26 99.25
  C 947.00 100.50 949.32 101.47 950.80 102.45
  Q 953.63 104.34 962.79 110.95
  Q 1001.88 139.17 1035.56 173.56
  C 1045.82 184.04 1055.52 195.41 1064.91 206.83
  C 1075.53 219.72 1085.89 232.63 1095.19 246.67
  Q 1106.44 263.64 1112.13 273.12
  Q 1134.08 309.63 1149.99 349.16
  Q 1150.82 351.20 1151.83 353.15
  Q 1152.06 353.60 1152.04 354.10
  C 1151.91 356.73 1153.62 358.37 1154.24 360.35
  Q 1154.97 362.66 1155.87 364.90
  C 1156.85 367.35 1157.43 370.32 1158.71 372.90
  C 1160.34 376.19 1159.81 379.12 1161.72 382.31
  C 1163.08 384.59 1163.23 387.41 1164.04 389.55
  C 1165.20 392.62 1166.40 395.66 1166.74 398.94
  C 1166.88 400.24 1167.70 400.90 1167.96 402.05
  C 1168.56 404.62 1168.97 407.09 1169.83 409.59
  C 1171.20 413.54 1172.50 417.39 1173.42 421.57
  C 1174.93 428.51 1176.82 435.55 1177.90 442.55
  Q 1178.19 444.38 1179.18 446.02
  Q 1179.44 446.44 1179.37 446.93
  C 1179.04 449.16 1176.65 448.75 1175.06 449.16
  C 1172.94 449.72 1172.48 449.47 1170.50 449.00
  C 1167.77 448.36 1163.75 448.76 1160.27 447.90
  C 1154.21 446.42 1148.65 446.73 1142.46 446.75
  C 1141.43 446.75 1140.55 446.07 1139.75 446.06
  Q 1133.07 445.95 1126.33 446.09
  A 2.46 2.38 -25.8 0 1 1124.82 445.59
  C 1122.02 443.44 1121.94 439.51 1121.00 436.42
  C 1120.18 433.76 1120.49 431.24 1119.87 428.49
  Q 1119.67 427.60 1118.22 425.06
  C 1116.92 422.78 1117.16 420.03 1116.63 417.50
  Q 1116.52 416.99 1116.10 416.69
  Q 1115.08 415.95 1114.97 414.76
  Q 1114.69 411.70 1113.73 409.44
  C 1112.71 407.02 1111.59 404.66 1110.99 402.08
  Q 1110.06 398.13 1109.04 394.20
  C 1108.69 392.86 1107.63 392.24 1107.26 391.00
  C 1106.08 386.92 1104.67 383.61 1103.20 378.94
  Q 1101.92 374.84 1099.47 371.24
  Q 1099.21 370.85 1099.24 370.39
  Q 1099.51 366.28 1096.78 363.28
  Q 1096.42 362.88 1096.32 362.35
  C 1095.74 359.00 1093.63 355.63 1092.73 353.45
  C 1090.17 347.25 1087.70 341.55 1084.31 335.36
  C 1080.61 328.58 1077.04 321.19 1073.45 314.97
  Q 1064.35 299.17 1054.48 283.85
  C 1046.42 271.33 1036.77 259.04 1027.66 246.83
  Q 1019.55 235.95 1000.32 215.26
  C 998.12 212.90 995.39 210.66 993.01 208.25
  Q 972.45 187.46 964.50 181.29
  Q 959.43 177.36 954.52 173.23
  C 952.71 171.70 948.36 168.89 945.74 166.23
  Q 943.98 164.44 942.28 163.35
  Q 937.57 160.33 933.31 156.69
  C 931.32 154.99 928.68 153.77 926.54 151.72
  C 923.06 148.41 920.31 148.01 916.98 145.96
  A 1.62 1.62 0.0 0 1 916.32 145.18
  Q 915.49 143.12 913.27 142.87
  Q 912.77 142.81 912.36 142.52
  Q 904.36 136.88 892.83 130.17
  Q 850.31 105.40 805.43 89.70
  Q 805.38 89.68 800.98 88.67
  C 797.84 87.95 796.08 85.51 792.54 84.99
  C 787.96 84.32 783.04 82.75 778.58 81.11
  Q 775.12 79.82 771.37 79.62
  Q 770.86 79.59 770.66 79.13
  L 770.51 78.80
  Q 770.32 78.35 769.83 78.26
  Z"
/>
<circle fill="#ffffff" cx="1079.16" cy="350.82" r="0.54"/>
<path fill="#ffffff" d="
  M 561.90 479.68
  A 0.85 0.84 -39.3 0 0 561.76 481.04
  C 564.00 483.03 565.33 481.54 567.60 481.47
  Q 568.55 481.44 569.51 481.41
  Q 569.99 481.40 570.43 481.59
  Q 571.50 482.07 573.25 482.07
  Q 612.15 482.08 651.06 482.10
  Q 652.45 482.10 664.67 482.65
  C 671.58 482.97 679.36 482.10 685.28 482.07
  Q 695.39 482.02 705.50 481.88
  C 706.25 481.86 706.49 481.59 707.18 481.56
  Q 716.50 481.24 725.83 481.05
  C 727.14 481.03 728.24 480.12 729.37 480.13
  Q 734.44 480.13 739.49 479.92
  C 740.22 479.89 740.52 479.61 741.18 479.61
  Q 754.84 479.65 768.50 479.62
  Q 770.81 479.61 772.72 478.39
  A 1.41 1.39 30.5 0 1 773.60 478.17
  Q 776.83 478.40 780.02 478.08
  C 784.57 477.61 788.93 477.95 793.47 477.35
  C 795.47 477.08 797.52 477.34 799.49 477.09
  Q 802.10 476.77 804.72 476.87
  C 805.65 476.90 806.26 476.37 807.09 476.37
  Q 813.70 476.36 820.30 475.89
  C 820.75 475.86 820.92 475.73 821.30 475.53
  Q 821.50 475.42 821.71 475.41
  Q 826.48 475.31 831.25 475.04
  A 2.12 1.99 27.4 0 0 832.07 474.81
  Q 832.63 474.52 833.25 474.51
  Q 841.75 474.49 850.24 473.95
  Q 850.70 473.92 851.11 473.73
  Q 851.56 473.52 852.06 473.51
  C 857.30 473.46 862.66 473.85 867.83 472.86
  C 871.83 472.09 874.96 472.24 878.76 472.16
  C 879.44 472.14 879.68 472.00 880.16 471.61
  Q 880.54 471.29 881.04 471.29
  C 885.37 471.22 889.74 471.48 894.04 470.93
  C 896.93 470.56 899.81 470.77 902.82 470.51
  C 906.39 470.21 909.47 470.15 914.01 469.47
  C 919.87 468.59 925.93 468.86 931.81 468.90
  C 933.45 468.91 935.15 468.26 936.50 468.31
  Q 946.26 468.64 956.00 467.98
  C 957.53 467.87 959.16 467.13 960.62 467.13
  Q 966.96 467.16 968.75 467.12
  Q 969.19 467.11 969.68 466.85
  Q 970.11 466.61 970.60 466.59
  Q 978.68 466.26 986.74 466.19
  Q 987.03 466.19 987.60 465.86
  A 1.81 1.74 -57.8 0 1 988.49 465.64
  Q 997.06 465.67 1005.63 465.39
  Q 1008.83 465.28 1016.30 464.34
  Q 1021.67 463.67 1027.11 463.69
  Q 1027.61 463.70 1028.06 463.91
  C 1029.71 464.69 1030.89 463.74 1032.34 463.74
  C 1040.08 463.74 1048.30 464.26 1055.95 463.35
  C 1057.61 463.15 1059.15 463.77 1060.68 463.76
  C 1063.94 463.72 1066.96 463.86 1070.21 463.36
  C 1071.67 463.13 1072.82 463.63 1074.24 463.44
  C 1078.91 462.82 1085.08 464.52 1088.25 463.75
  Q 1091.63 462.93 1095.01 463.46
  C 1097.50 463.85 1099.70 463.47 1101.98 464.00
  Q 1104.65 464.61 1106.77 464.21
  Q 1112.15 463.19 1116.68 465.00
  Q 1117.14 465.18 1117.60 465.02
  C 1120.14 464.11 1122.17 465.48 1124.30 465.55
  Q 1127.62 465.65 1130.93 465.64
  Q 1133.59 465.64 1137.52 466.15
  C 1141.40 466.66 1145.48 466.06 1149.18 466.94
  C 1151.13 467.40 1153.05 468.03 1154.98 468.24
  Q 1162.14 469.02 1171.00 468.87
  C 1173.23 468.83 1175.80 469.92 1177.68 470.24
  Q 1184.58 471.40 1191.57 471.27
  Q 1192.10 471.26 1192.55 471.55
  Q 1193.93 472.45 1195.61 472.22
  Q 1196.12 472.15 1196.58 472.37
  C 1201.63 474.74 1206.03 473.52 1210.01 474.45
  Q 1216.46 475.96 1223.01 476.85
  C 1229.75 477.78 1236.22 479.20 1242.90 480.03
  C 1245.08 480.30 1247.09 480.98 1249.19 481.54
  C 1251.34 482.12 1253.97 481.89 1256.38 482.80
  Q 1256.85 482.97 1257.35 482.97
  Q 1258.64 482.95 1260.59 483.64
  Q 1264.31 484.96 1268.97 484.92
  C 1272.30 484.89 1274.97 486.16 1278.07 486.12
  Q 1279.00 486.11 1279.00 487.04
  L 1278.99 491.49
  A 0.56 0.56 0.0 0 1 1278.25 492.02
  Q 1276.78 491.51 1274.99 492.18
  C 1271.25 493.58 1269.36 491.66 1266.08 492.64
  A 1.09 1.06 48.2 0 1 1265.37 492.59
  C 1265.15 492.50 1264.97 492.35 1264.74 492.33
  Q 1259.60 491.80 1254.43 491.79
  C 1252.76 491.79 1251.22 491.10 1249.75 491.03
  Q 1233.47 490.25 1217.25 488.76
  C 1214.05 488.47 1210.01 487.19 1206.19 487.09
  Q 1197.11 486.84 1188.02 486.70
  C 1187.40 486.69 1186.91 486.35 1186.24 486.29
  Q 1181.64 485.90 1177.05 485.34
  C 1172.14 484.75 1167.58 484.86 1162.76 484.89
  C 1161.64 484.89 1160.67 484.35 1159.75 484.36
  Q 1149.31 484.43 1138.87 484.32
  C 1133.31 484.27 1126.62 483.40 1120.43 483.39
  Q 1119.52 483.39 1118.02 482.34
  Q 1117.61 482.06 1117.11 482.05
  C 1103.32 481.95 1089.54 481.80 1075.76 481.35
  C 1068.16 481.11 1060.85 481.07 1053.25 481.23
  C 1051.41 481.27 1049.62 481.62 1047.91 481.62
  Q 1031.62 481.63 1015.33 481.62
  C 1012.70 481.62 1009.08 482.07 1005.90 482.05
  Q 1004.01 482.03 1002.16 482.43
  Q 996.77 483.58 991.24 483.46
  C 989.28 483.42 987.68 484.24 985.90 484.25
  Q 980.32 484.31 974.75 484.41
  C 973.55 484.43 972.53 484.89 971.40 484.87
  Q 963.55 484.70 957.88 485.40
  C 956.12 485.61 954.61 486.65 952.64 486.71
  Q 943.54 486.96 934.44 487.08
  C 933.06 487.10 932.03 487.79 930.70 487.76
  Q 925.94 487.64 921.29 488.59
  Q 919.96 488.86 917.67 488.96
  C 915.95 489.04 914.46 489.61 912.78 489.54
  C 907.65 489.30 902.52 489.83 897.41 489.94
  Q 891.41 490.07 885.50 491.24
  Q 881.05 492.11 863.46 492.32
  C 862.51 492.33 861.63 492.89 860.88 492.88
  C 857.64 492.84 854.56 492.59 851.39 493.50
  Q 850.43 493.78 849.57 493.82
  Q 847.27 493.92 842.62 494.61
  Q 840.12 494.99 831.78 495.03
  Q 831.28 495.03 830.85 495.28
  Q 830.65 495.40 830.45 495.50
  Q 830.26 495.59 830.03 495.59
  Q 821.95 495.72 813.89 496.26
  C 802.04 497.07 790.20 498.23 778.30 497.96
  C 775.66 497.90 773.20 498.36 770.75 498.94
  C 768.28 499.51 765.88 499.08 763.39 499.42
  C 758.95 500.04 754.75 499.76 749.83 500.08
  Q 744.93 500.40 736.00 500.20
  C 735.15 500.18 734.09 500.84 732.97 500.83
  Q 716.59 500.55 700.24 501.08
  Q 699.82 501.09 697.03 500.85
  C 695.56 500.72 694.00 501.18 692.67 501.16
  Q 689.98 501.11 687.30 500.96
  C 685.01 500.83 683.52 501.99 681.37 501.99
  Q 610.05 502.01 538.74 502.00
  C 535.17 502.00 530.81 501.68 526.82 501.77
  Q 526.32 501.78 525.89 501.53
  Q 525.21 501.12 524.62 501.12
  C 519.64 501.12 514.58 501.32 509.60 500.94
  C 508.28 500.84 506.95 501.13 505.80 501.13
  Q 498.40 501.12 491.00 501.08
  C 490.18 501.08 489.39 500.78 488.65 500.78
  Q 430.20 500.77 371.75 500.78
  C 371.17 500.78 370.52 500.22 369.72 500.22
  Q 324.36 500.22 279.01 500.22
  C 278.03 500.22 276.90 499.80 276.00 499.80
  Q 261.00 499.77 246.00 499.79
  C 244.85 499.79 243.38 500.22 241.99 500.22
  Q 224.24 500.21 206.50 500.23
  Q 206.29 500.23 205.86 500.48
  Q 205.43 500.72 204.93 500.73
  Q 197.18 500.79 189.42 500.78
  C 185.92 500.77 181.11 501.27 176.75 501.07
  Q 175.81 501.02 174.85 501.52
  Q 174.41 501.75 173.92 501.77
  C 171.37 501.86 169.40 502.98 166.97 502.99
  C 164.44 503.01 162.14 502.73 159.65 503.46
  C 158.09 503.92 156.38 503.51 154.71 503.90
  C 151.46 504.66 148.61 504.68 145.47 504.96
  C 143.24 505.15 140.82 506.16 138.25 506.21
  Q 131.82 506.34 125.65 508.03
  C 122.86 508.79 120.63 508.80 117.88 508.85
  Q 115.46 508.89 110.14 510.59
  Q 106.09 511.87 99.56 511.88
  A 1.55 1.52 26.6 0 0 98.66 512.17
  C 96.64 513.60 94.82 513.47 92.74 514.19
  Q 90.07 515.12 89.44 515.29
  Q 77.41 518.45 65.81 522.91
  C 48.74 529.47 31.58 535.65 14.31 541.85
  Q 12.01 542.68 12.00 540.23
  L 12.00 536.31
  Q 12.00 535.78 12.43 535.47
  C 27.90 524.48 43.04 514.74 61.20 508.67
  Q 61.90 508.44 62.56 508.19
  Q 68.34 506.02 74.10 503.78
  Q 78.26 502.16 83.61 500.90
  Q 88.47 499.76 93.25 498.29
  Q 94.64 497.86 96.10 498.02
  Q 96.62 498.08 97.04 497.77
  Q 99.19 496.16 100.25 496.17
  Q 105.92 496.21 109.49 494.94
  Q 112.72 493.79 115.12 493.69
  Q 115.61 493.67 116.04 493.46
  C 117.70 492.63 120.09 492.63 121.93 492.34
  Q 122.15 492.30 125.99 491.32
  C 127.86 490.85 129.90 491.07 131.65 490.78
  C 135.47 490.15 139.22 489.95 143.09 489.25
  C 147.55 488.43 152.06 488.36 156.52 487.66
  C 161.35 486.91 166.00 486.99 171.00 486.00
  C 173.12 485.58 175.62 485.81 177.66 485.61
  Q 186.80 484.68 196.00 484.88
  Q 196.34 484.89 196.83 484.57
  Q 197.21 484.33 197.67 484.31
  L 205.94 484.01
  Q 206.44 483.99 206.84 483.70
  Q 207.01 483.57 207.19 483.45
  Q 207.34 483.36 207.52 483.35
  Q 214.95 482.96 222.40 483.00
  Q 222.86 483.01 223.21 482.69
  Q 223.86 482.08 224.50 482.08
  Q 295.12 482.03 365.75 482.10
  C 370.03 482.10 374.30 482.84 378.41 482.63
  C 381.06 482.50 383.44 482.28 386.18 482.57
  C 392.74 483.26 399.43 482.01 405.22 482.03
  C 406.76 482.04 409.53 481.40 411.07 480.91
  Q 416.40 479.20 422.04 479.13
  Q 422.55 479.12 422.92 478.78
  C 423.61 478.14 424.09 477.71 424.99 477.36
  Q 429.14 475.75 433.32 474.20
  Q 434.75 473.67 437.54 471.87
  C 440.10 470.22 443.37 469.89 445.62 468.82
  C 449.30 467.06 453.22 464.08 455.89 462.48
  C 469.07 454.55 482.43 446.86 495.50 438.77
  C 508.61 430.64 523.12 422.96 535.46 415.80
  Q 565.47 398.40 592.67 384.17
  C 602.87 378.83 609.63 374.58 619.23 370.98
  C 620.43 370.53 621.32 369.51 622.74 369.24
  C 626.76 368.45 630.91 367.94 634.70 366.32
  C 635.90 365.81 637.15 366.07 638.39 365.66
  C 641.48 364.66 643.81 365.61 646.52 365.98
  C 649.25 366.35 649.68 368.45 652.76 368.17
  A 0.93 0.91 71.7 0 1 653.63 368.62
  C 655.03 370.92 657.18 375.78 656.25 378.78
  Q 656.10 379.26 656.24 379.75
  C 656.98 382.44 653.99 388.16 652.95 389.70
  Q 650.35 393.55 644.41 399.40
  Q 635.62 408.05 626.81 416.67
  C 606.59 436.45 585.25 454.91 565.52 475.23
  C 564.23 476.56 563.67 478.65 561.90 479.68
  Z
  M 456.51 482.59
  Q 458.27 483.00 460.06 483.19
  C 461.17 483.30 461.62 484.21 462.91 484.22
  Q 468.86 484.27 474.82 484.24
  A 1.77 1.72 60.4 0 1 475.75 484.51
  Q 476.34 484.87 476.75 484.87
  Q 487.74 484.89 498.73 484.86
  Q 502.54 484.85 506.12 483.81
  Q 516.47 480.82 519.20 479.47
  Q 523.69 477.27 533.58 468.82
  C 550.76 454.14 568.13 440.02 584.40 424.30
  C 595.19 413.87 604.72 405.37 614.98 395.98
  Q 618.96 392.34 621.83 387.78
  Q 623.45 385.22 621.97 383.97
  A 1.27 1.26 51.0 0 0 620.55 383.82
  C 605.39 392.04 590.48 400.01 575.47 408.63
  Q 548.98 423.84 522.28 438.70
  C 504.82 448.42 487.57 458.48 469.94 467.93
  Q 466.06 470.01 460.03 473.79
  C 457.45 475.41 455.76 478.16 452.83 479.75
  A 1.25 1.25 0.0 0 0 452.91 481.98
  C 453.92 482.45 455.44 482.35 456.51 482.59
  Z"
/>
<path fill="#ffffff" d="
  M 1118.08 517.71
  Q 1115.72 517.47 1113.40 517.09
  Q 1112.61 516.97 1108.88 515.75
  C 1106.77 515.06 1104.64 515.28 1102.57 514.75
  Q 1099.38 513.91 1096.10 513.74
  C 1093.65 513.61 1091.86 512.41 1089.97 512.06
  Q 1086.11 511.35 1071.09 511.58
  A 1.52 1.44 -26.1 0 1 1070.23 511.31
  Q 1069.77 510.97 1069.50 510.96
  C 1066.26 510.88 1059.92 510.37 1054.20 511.25
  Q 1053.36 511.37 1052.00 511.43
  Q 1043.03 511.80 1034.06 511.94
  A 1.48 1.47 25.0 0 0 1033.17 512.26
  C 1030.23 514.55 1027.69 513.37 1024.64 514.17
  C 1021.85 514.91 1019.15 515.32 1016.42 516.38
  C 1014.44 517.15 1012.35 516.78 1010.55 517.48
  C 1009.25 517.99 1008.10 518.64 1006.77 519.01
  C 990.93 523.45 977.86 530.76 963.30 539.04
  C 955.76 543.33 948.49 548.49 941.15 553.41
  C 938.63 555.09 936.27 555.74 933.56 554.65
  A 2.35 2.35 0.0 0 1 932.10 552.74
  C 931.64 548.75 931.89 544.99 934.38 541.59
  Q 936.52 538.67 939.16 536.17
  Q 949.28 526.59 954.51 523.07
  C 958.11 520.65 960.88 518.25 964.40 516.41
  C 966.52 515.29 968.31 513.83 970.47 512.92
  C 975.54 510.79 980.32 508.15 985.40 506.05
  C 987.75 505.08 989.83 503.95 992.30 503.30
  Q 998.19 501.75 1004.00 499.93
  Q 1005.90 499.34 1007.88 499.12
  Q 1008.36 499.07 1008.73 498.76
  C 1011.08 496.80 1013.04 497.66 1015.26 497.03
  Q 1024.84 494.32 1027.76 494.17
  C 1030.70 494.02 1033.18 493.13 1035.27 492.93
  Q 1039.37 492.54 1043.47 492.12
  C 1044.86 491.98 1045.95 491.21 1047.50 491.16
  Q 1061.73 490.67 1075.96 490.98
  C 1081.52 491.10 1087.77 492.51 1094.00 492.86
  C 1095.70 492.95 1097.17 493.84 1098.90 494.02
  Q 1105.20 494.64 1110.50 496.24
  Q 1114.97 497.58 1118.32 498.17
  A 1.53 1.51 -21.4 0 1 1119.02 498.47
  Q 1119.79 499.07 1121.25 499.23
  Q 1122.73 499.40 1125.24 500.65
  Q 1126.95 501.50 1129.21 501.82
  C 1132.89 502.34 1136.78 504.60 1139.95 506.05
  C 1150.50 510.87 1161.04 515.90 1170.43 522.31
  C 1180.00 528.83 1189.63 535.97 1197.18 544.83
  A 2.75 2.75 0.0 0 1 1197.32 548.22
  Q 1196.28 549.67 1194.35 550.38
  C 1188.94 552.39 1176.39 543.13 1170.43 539.14
  C 1167.78 537.37 1164.88 536.43 1162.31 534.58
  C 1160.13 533.01 1157.66 532.95 1155.45 531.74
  C 1152.94 530.37 1149.95 529.60 1147.67 528.53
  C 1144.47 527.03 1141.23 525.27 1137.80 524.37
  C 1132.26 522.91 1127.17 521.00 1121.82 518.99
  Q 1121.33 518.81 1120.81 518.85
  Q 1119.70 518.93 1118.95 518.14
  Q 1118.60 517.76 1118.08 517.71
  Z"
/>
<path fill="#ffffff" d="
  M 248.39 533.75
  Q 239.46 533.49 237.25 532.52
  Q 234.49 531.33 231.53 531.08
  Q 228.94 530.86 226.00 530.46
  C 222.54 529.98 218.93 530.53 215.18 529.55
  Q 212.12 528.75 210.21 528.59
  Q 201.00 527.81 195.75 528.30
  C 188.06 529.01 180.26 529.50 172.62 530.67
  C 169.23 531.19 165.67 530.51 162.28 532.56
  A 1.77 1.69 29.1 0 1 161.36 532.80
  Q 154.84 532.59 148.81 534.80
  Q 147.28 535.36 144.61 535.92
  C 142.65 536.33 140.78 537.35 138.99 537.79
  C 133.03 539.27 127.60 541.74 121.73 543.35
  C 117.99 544.39 115.21 546.18 112.12 547.40
  C 101.35 551.67 90.80 557.80 81.15 564.16
  Q 78.97 565.59 76.91 565.83
  C 74.43 566.12 70.83 566.36 68.96 564.36
  Q 68.60 563.98 68.64 563.45
  Q 68.80 561.06 69.62 558.85
  Q 70.32 556.97 72.36 555.18
  C 75.73 552.24 78.95 549.27 82.57 546.68
  Q 97.99 535.66 103.99 532.79
  Q 111.93 528.98 119.65 524.75
  C 123.00 522.92 126.52 521.80 130.07 520.60
  C 133.02 519.59 136.70 517.47 140.52 516.80
  Q 141.09 516.71 141.53 516.34
  Q 143.47 514.76 145.98 515.25
  A 1.25 1.20 35.8 0 0 146.77 515.14
  Q 153.63 511.77 161.22 511.82
  C 163.22 511.84 164.06 510.85 165.80 510.51
  Q 174.66 508.75 183.68 508.53
  A 2.02 2.00 28.4 0 0 184.61 508.26
  C 187.28 506.68 189.80 507.78 192.16 507.56
  Q 196.81 507.12 201.46 507.17
  Q 203.87 507.19 208.95 508.05
  C 212.64 508.68 216.27 508.56 219.95 509.26
  C 222.54 509.76 225.23 509.29 227.95 510.32
  Q 230.50 511.29 232.22 511.51
  Q 236.37 512.04 240.48 512.80
  C 243.34 513.33 245.40 515.51 248.31 515.19
  Q 248.83 515.13 249.28 515.41
  C 252.52 517.44 256.65 518.02 259.25 519.44
  C 261.57 520.70 264.19 521.38 265.73 522.12
  Q 269.91 524.10 273.63 526.86
  Q 274.02 527.15 274.51 527.22
  C 277.83 527.66 280.22 529.90 283.11 531.36
  C 284.80 532.20 286.39 533.81 288.58 534.31
  Q 289.06 534.42 289.43 534.76
  Q 290.82 536.08 292.99 537.23
  C 297.14 539.43 300.16 542.82 305.02 544.89
  A 1.78 1.69 82.5 0 1 305.76 545.49
  Q 307.44 547.86 310.05 549.01
  C 311.74 549.76 312.43 550.44 312.95 552.09
  Q 313.11 552.57 313.54 552.82
  C 316.23 554.40 321.54 559.37 321.90 562.57
  Q 321.95 563.05 321.66 563.44
  Q 319.32 566.61 315.56 565.92
  C 314.04 565.64 312.35 564.38 310.51 563.73
  C 307.32 562.60 304.10 560.28 300.38 558.61
  C 297.88 557.48 295.76 555.73 293.47 554.65
  Q 285.06 550.68 276.85 546.35
  C 275.76 545.77 274.84 545.00 273.74 544.56
  Q 263.22 540.38 252.77 536.02
  Q 251.15 535.34 249.10 535.87
  Q 248.56 536.01 248.65 535.46
  L 248.84 534.30
  Q 248.93 533.76 248.39 533.75
  Z"
/>
<path fill="#ffffff" d="
  M 860.28 647.19
  C 864.15 647.62 865.16 645.72 867.99 643.77
  Q 869.19 642.94 871.75 642.30
  C 873.73 641.79 875.24 640.60 877.15 640.17
  C 881.25 639.24 883.48 638.11 886.60 636.90
  Q 887.97 636.37 890.23 636.41
  C 893.92 636.48 897.61 635.59 901.21 635.85
  C 903.95 636.05 906.88 635.81 909.36 636.06
  Q 911.78 636.30 914.11 636.50
  A 1.28 1.27 -1.4 0 1 915.26 637.59
  C 915.50 639.27 917.92 641.55 919.39 639.65
  Q 919.68 639.27 919.94 637.76
  Q 920.30 635.60 921.80 633.95
  Q 922.13 633.58 922.13 633.08
  Q 922.09 629.38 925.51 629.01
  C 928.96 628.63 935.17 628.64 940.76 628.14
  C 951.02 627.23 959.87 630.33 964.59 639.52
  A 0.57 0.49 -63.9 0 1 964.66 639.79
  L 964.84 647.71
  Q 964.86 648.27 964.54 648.75
  C 962.71 651.48 959.71 651.95 956.76 652.79
  C 953.90 653.60 954.23 658.19 955.02 660.34
  Q 955.20 660.84 955.71 660.97
  C 958.64 661.73 959.68 660.46 961.40 658.51
  Q 961.75 658.13 962.26 658.08
  C 963.55 657.97 964.71 658.19 965.82 657.55
  C 968.81 655.83 967.83 653.71 969.26 651.74
  C 972.21 647.67 974.22 645.46 976.42 642.23
  C 978.77 638.79 982.56 634.34 986.16 632.23
  C 987.83 631.24 988.66 630.00 990.63 629.49
  C 995.84 628.15 1000.76 626.97 1006.26 628.02
  Q 1009.71 628.67 1013.19 628.90
  C 1016.32 629.09 1018.83 630.85 1022.00 631.77
  C 1024.35 632.45 1025.86 634.57 1027.04 636.68
  C 1029.37 640.85 1027.07 645.41 1025.63 649.30
  C 1023.97 653.78 1021.04 654.68 1017.29 656.83
  C 1014.79 658.26 1011.83 657.99 1009.88 660.31
  Q 1008.08 662.45 1010.78 661.72
  C 1012.68 661.21 1014.75 661.83 1016.86 660.44
  C 1019.68 658.60 1023.11 657.56 1026.18 656.12
  Q 1028.96 654.81 1032.97 653.39
  C 1044.34 649.35 1057.42 642.04 1063.56 631.06
  Q 1064.43 629.49 1066.85 628.80
  C 1070.56 627.75 1077.40 630.41 1080.28 632.21
  C 1086.85 636.30 1094.08 642.77 1096.05 650.72
  Q 1096.21 651.37 1097.31 652.24
  A 1.39 1.38 11.6 0 1 1097.81 652.99
  Q 1098.79 656.69 1098.51 660.48
  Q 1098.37 662.32 1100.06 661.59
  Q 1102.66 660.47 1103.96 658.02
  Q 1104.17 657.62 1104.57 657.41
  Q 1107.97 655.65 1111.82 656.10
  Q 1112.34 656.16 1112.80 655.91
  Q 1114.36 655.08 1116.16 655.04
  Q 1116.74 655.03 1117.11 654.58
  Q 1117.79 653.78 1119.60 652.36
  C 1121.03 651.23 1121.86 648.82 1124.01 647.78
  C 1125.23 647.19 1126.43 646.99 1127.51 646.14
  C 1130.47 643.82 1133.34 640.78 1136.49 638.82
  Q 1137.46 638.21 1138.12 637.30
  Q 1141.12 633.18 1144.51 629.39
  A 1.34 1.32 17.4 0 1 1145.33 628.97
  C 1149.82 628.47 1153.47 628.84 1157.53 631.19
  C 1166.31 636.28 1173.49 643.12 1176.37 652.94
  Q 1176.69 654.03 1178.24 657.80
  Q 1179.81 661.62 1178.94 665.88
  Q 1178.86 666.30 1179.28 666.28
  L 1180.96 666.20
  A 1.03 0.99 -70.7 0 0 1181.69 665.83
  C 1183.55 663.55 1186.63 663.32 1189.09 662.65
  C 1192.24 661.80 1195.17 662.23 1198.35 661.98
  Q 1200.90 661.78 1204.06 664.20
  C 1206.96 666.41 1202.86 671.23 1200.59 671.99
  Q 1200.11 672.14 1199.77 672.51
  Q 1198.10 674.28 1196.28 675.87
  C 1194.14 677.74 1191.20 678.96 1188.70 680.71
  C 1186.42 682.29 1183.93 682.12 1182.11 683.09
  Q 1178.67 684.90 1176.47 685.64
  C 1174.52 686.29 1172.39 687.52 1170.75 687.78
  Q 1167.91 688.22 1159.49 690.30
  Q 1146.82 693.42 1133.76 692.70
  C 1126.57 692.30 1121.95 690.37 1117.45 684.68
  Q 1117.14 684.29 1117.15 683.79
  C 1117.24 681.08 1116.88 678.00 1120.41 677.36
  C 1122.35 677.00 1124.16 676.00 1125.90 675.71
  Q 1130.76 674.92 1135.68 675.06
  Q 1138.44 675.14 1140.15 674.23
  C 1146.67 670.75 1148.98 661.67 1150.03 654.93
  A 0.84 0.84 0.0 0 0 1149.51 654.01
  Q 1148.87 653.75 1148.26 654.53
  C 1147.07 656.03 1146.75 657.78 1145.43 659.07
  C 1141.20 663.20 1135.10 668.81 1129.61 669.00
  Q 1129.14 669.02 1128.73 669.27
  Q 1125.42 671.29 1121.72 672.21
  Q 1119.67 672.73 1118.40 673.79
  C 1115.97 675.82 1110.21 682.07 1107.10 682.18
  C 1103.99 682.28 1102.28 684.32 1099.33 684.88
  C 1096.23 685.47 1093.69 687.49 1090.51 687.82
  C 1086.49 688.24 1082.66 689.79 1078.99 690.50
  C 1076.51 690.98 1073.98 691.72 1071.64 692.03
  Q 1062.49 693.25 1053.24 692.66
  Q 1052.74 692.63 1052.32 692.35
  Q 1051.46 691.78 1050.98 691.79
  C 1045.68 691.95 1040.45 688.51 1037.61 684.20
  C 1036.85 683.04 1037.09 682.18 1036.92 680.99
  Q 1036.68 679.29 1038.22 678.52
  Q 1041.34 676.96 1044.55 675.63
  C 1046.10 674.98 1047.41 674.98 1049.07 674.81
  C 1051.24 674.59 1053.30 675.91 1055.26 675.65
  Q 1061.78 674.75 1065.93 669.74
  Q 1067.48 667.87 1068.34 663.26
  C 1068.78 660.91 1071.28 658.00 1070.97 654.38
  Q 1070.93 653.88 1070.44 653.94
  L 1070.03 653.99
  Q 1069.47 654.06 1069.19 654.53
  C 1067.79 656.88 1064.55 661.93 1062.15 663.16
  C 1058.47 665.05 1056.06 667.80 1052.61 668.60
  C 1049.17 669.40 1046.28 670.32 1042.78 670.69
  C 1038.71 671.12 1034.38 669.92 1030.32 669.02
  A 5.00 4.97 -49.2 0 0 1027.46 669.24
  Q 1025.21 670.13 1022.60 671.13
  C 1019.46 672.33 1017.22 674.73 1013.92 676.10
  Q 1013.09 676.45 1008.79 678.43
  C 1007.04 679.23 1001.40 679.70 1000.66 680.50
  A 1.02 1.01 -64.6 0 1 999.78 680.82
  C 996.37 680.33 994.16 681.98 991.20 682.07
  C 987.18 682.20 981.79 682.47 978.52 680.47
  Q 976.31 679.12 974.11 677.78
  C 970.77 675.76 970.56 670.52 965.31 672.49
  C 961.69 673.86 957.76 674.75 952.64 677.56
  Q 950.96 678.48 948.23 679.54
  C 944.32 681.06 941.15 683.76 936.61 682.08
  C 930.11 679.69 928.06 674.43 926.70 667.94
  C 925.18 660.70 927.63 657.30 932.96 652.98
  Q 933.70 652.38 933.46 651.46
  Q 933.35 650.99 932.87 651.06
  C 929.60 651.59 928.48 653.71 926.47 655.59
  Q 925.16 656.81 924.16 658.05
  C 922.60 659.97 920.32 661.04 918.77 662.47
  C 911.44 669.23 903.52 674.97 895.64 681.14
  Q 893.40 682.89 884.26 686.56
  C 881.11 687.83 877.36 688.22 873.94 689.50
  Q 871.28 690.49 868.87 690.66
  Q 865.63 690.90 862.42 691.35
  Q 861.94 691.42 861.50 691.21
  C 859.49 690.27 855.04 692.11 854.36 694.16
  Q 852.86 698.67 852.04 700.20
  Q 851.81 700.63 851.77 701.12
  C 851.56 703.97 849.75 706.09 848.79 708.75
  Q 847.66 711.90 846.70 713.57
  Q 841.45 722.77 836.21 731.97
  C 835.17 733.80 832.20 734.94 829.66 735.72
  Q 825.65 736.95 822.15 739.33
  Q 821.72 739.62 821.21 739.62
  Q 819.56 739.65 817.93 739.71
  C 814.33 739.86 814.79 737.67 813.41 735.45
  C 812.12 733.38 810.88 731.68 810.69 729.14
  C 810.06 720.34 815.28 714.63 821.35 707.83
  C 824.44 704.37 826.49 699.49 827.75 694.41
  Q 829.15 688.78 830.83 683.23
  Q 830.95 682.84 831.19 682.51
  Q 831.47 682.11 831.59 681.63
  Q 832.28 678.89 833.04 676.17
  C 833.63 674.07 834.94 672.01 835.55 669.70
  C 836.25 667.07 837.44 664.69 837.86 661.99
  A 1.07 1.06 -89.6 0 0 836.67 660.77
  C 832.81 661.30 829.24 660.37 825.80 662.69
  Q 823.15 664.47 826.30 665.00
  Q 826.88 665.10 828.72 669.07
  A 0.38 0.37 79.5 0 1 828.36 669.60
  Q 827.74 669.57 827.98 671.00
  Q 828.20 672.32 827.15 675.47
  Q 826.99 675.93 826.51 675.90
  C 824.80 675.77 823.67 675.78 822.08 676.65
  C 819.03 678.31 815.47 679.69 811.97 679.89
  Q 811.05 679.94 809.48 680.46
  C 799.85 683.61 790.16 677.02 784.72 668.99
  C 782.65 665.94 781.32 661.50 779.34 657.70
  Q 778.07 655.27 777.67 653.05
  Q 776.77 648.10 776.14 643.11
  C 776.00 641.97 775.37 640.88 775.25 639.74
  A 1.31 1.31 0.0 0 0 772.94 639.04
  Q 772.19 639.92 771.81 641.02
  Q 771.64 641.52 771.28 641.90
  C 768.67 644.69 767.14 648.12 764.67 650.64
  C 761.21 654.18 757.99 657.41 753.88 660.51
  Q 748.08 664.88 740.25 671.20
  C 736.48 674.24 732.71 675.22 728.05 676.53
  C 725.38 677.28 722.69 676.85 719.71 678.16
  Q 716.93 679.38 715.07 679.61
  Q 711.68 680.03 708.27 680.00
  C 702.58 679.94 697.14 680.64 691.38 679.71
  Q 690.90 679.63 690.56 679.28
  C 686.30 674.93 682.30 675.32 676.90 677.24
  C 675.00 677.92 673.04 677.60 671.37 678.48
  C 669.06 679.69 666.12 679.88 664.22 680.41
  Q 659.61 681.70 658.00 681.79
  C 654.61 681.98 651.21 682.74 647.98 682.75
  Q 640.78 682.77 633.60 682.73
  C 630.73 682.71 628.92 681.78 626.86 680.06
  C 624.73 678.26 621.51 676.64 620.36 673.48
  A 1.88 1.87 -18.0 0 0 618.09 672.33
  Q 615.05 673.18 612.92 675.42
  A 1.95 1.94 -75.4 0 1 612.04 675.94
  Q 607.58 677.18 603.43 679.17
  Q 602.62 679.56 600.97 679.84
  C 599.71 680.06 598.84 680.77 597.64 680.91
  C 593.96 681.33 587.72 682.79 584.99 682.02
  Q 582.14 681.20 579.33 680.34
  Q 571.40 677.91 567.58 673.42
  C 563.50 668.62 558.73 662.87 558.38 656.99
  C 558.20 653.85 558.63 645.88 556.54 643.66
  A 2.18 2.17 -50.0 0 1 556.31 640.97
  Q 558.29 637.98 557.07 634.40
  A 1.82 1.81 -46.7 0 1 557.04 633.33
  Q 558.24 628.98 557.85 624.47
  Q 557.79 623.84 557.16 623.86
  C 555.06 623.93 553.80 622.89 551.88 622.89
  C 549.03 622.88 544.19 623.67 542.06 621.40
  A 1.84 1.82 -13.0 0 0 541.30 620.93
  Q 539.05 620.25 536.76 619.79
  C 535.38 619.51 534.78 618.89 533.56 618.26
  A 1.30 1.23 49.5 0 0 532.62 618.16
  C 530.19 618.86 527.97 619.75 525.42 619.75
  Q 521.46 619.75 517.50 619.70
  C 515.41 619.68 513.23 617.46 511.66 616.50
  A 2.93 2.92 -74.7 0 1 510.26 614.04
  C 510.22 611.21 509.39 606.33 512.99 604.98
  C 516.95 603.51 520.54 604.52 524.18 603.22
  Q 528.22 601.78 532.40 600.92
  C 533.84 600.62 534.68 599.49 536.07 599.28
  C 539.45 598.77 541.51 598.35 545.79 597.23
  Q 549.84 596.16 554.03 597.32
  C 554.75 597.52 555.15 598.08 555.75 598.24
  Q 560.71 599.61 565.83 599.02
  Q 566.37 598.96 566.78 598.61
  L 568.81 596.92
  Q 569.20 596.59 569.20 596.08
  Q 569.21 593.55 569.19 591.06
  C 569.16 587.03 567.21 585.46 570.91 581.64
  Q 572.45 580.05 573.91 580.96
  A 1.25 1.24 -34.9 0 0 574.84 581.12
  C 576.38 580.78 579.51 582.06 582.03 582.88
  C 587.87 584.78 590.66 589.21 590.75 595.25
  Q 590.76 595.76 591.15 596.07
  Q 593.84 598.24 596.88 599.78
  C 600.87 601.79 606.32 602.19 610.96 603.34
  C 613.80 604.05 616.45 603.66 619.39 603.85
  Q 622.56 604.05 621.72 607.12
  L 621.24 608.87
  Q 620.48 611.64 617.61 611.82
  L 606.10 612.54
  Q 605.58 612.57 605.11 612.81
  Q 603.30 613.71 601.36 614.31
  C 597.90 615.38 594.61 618.62 591.66 620.74
  A 1.77 1.72 -8.7 0 0 591.06 621.53
  C 590.17 623.89 588.52 625.79 588.08 628.09
  C 587.48 631.25 588.45 634.38 587.27 637.42
  A 1.30 1.29 -44.7 0 0 587.26 638.34
  C 587.91 640.08 587.78 641.70 588.71 643.24
  C 589.56 644.69 590.49 645.83 590.95 647.52
  C 591.63 650.03 592.51 654.77 594.89 657.01
  C 596.35 658.39 596.68 658.77 596.93 660.61
  A 0.60 0.59 85.7 0 0 597.53 661.13
  L 600.46 661.10
  A 0.71 0.71 0.0 0 0 601.13 660.58
  C 601.85 657.99 604.73 657.62 606.68 656.23
  C 611.08 653.09 616.13 650.31 620.15 647.39
  Q 623.19 645.18 626.18 642.90
  C 632.61 637.97 638.38 630.04 647.61 629.28
  C 650.03 629.08 653.35 628.54 656.33 629.09
  C 658.12 629.42 659.63 629.26 661.43 629.44
  Q 661.90 629.49 662.27 629.80
  C 667.19 633.99 670.52 636.42 676.39 631.72
  A 2.39 2.39 0.0 0 1 679.58 631.89
  Q 681.55 633.86 684.33 634.48
  A 1.93 1.93 0.0 0 1 685.82 636.73
  C 685.22 639.93 687.66 642.27 688.48 644.32
  Q 689.01 645.62 689.50 646.93
  C 690.46 649.49 690.00 651.63 692.93 653.38
  Q 693.38 653.65 693.59 654.13
  L 693.73 654.47
  Q 693.85 654.74 694.10 654.90
  C 697.44 657.01 699.70 656.17 702.90 655.43
  C 706.76 654.54 709.09 656.66 712.98 653.98
  C 718.96 649.85 727.38 644.15 730.70 639.20
  Q 734.32 633.79 734.90 631.11
  C 735.62 627.81 736.97 623.65 739.06 620.97
  C 741.05 618.40 745.20 616.89 747.01 614.72
  C 748.95 612.40 753.54 605.71 750.29 603.23
  C 742.42 597.21 734.17 594.65 724.44 593.27
  C 722.54 593.00 719.10 591.94 718.08 590.93
  C 714.22 587.11 710.63 585.38 704.49 583.00
  C 698.37 580.62 694.22 578.13 694.04 571.48
  C 693.95 568.04 699.57 565.58 702.23 564.52
  Q 704.50 563.61 707.69 563.82
  Q 713.58 564.20 719.50 564.19
  Q 722.68 564.18 730.29 566.52
  C 733.13 567.40 735.52 566.98 738.66 568.18
  C 743.08 569.88 746.44 571.07 750.23 574.90
  Q 750.55 575.22 750.66 575.66
  Q 751.05 577.24 752.70 577.52
  Q 753.15 577.59 753.53 577.86
  L 760.84 583.15
  Q 761.28 583.46 761.54 583.94
  Q 762.46 585.66 764.59 585.92
  Q 765.08 585.98 765.50 585.73
  Q 771.34 582.42 775.28 577.08
  C 776.80 575.01 779.49 571.63 781.68 570.39
  C 783.84 569.17 787.62 565.85 790.30 565.99
  Q 790.80 566.01 791.22 565.72
  Q 793.34 564.23 794.25 564.20
  C 798.77 564.07 802.47 562.90 807.16 565.08
  C 809.59 566.22 812.83 566.34 814.73 567.91
  C 817.59 570.30 820.61 570.79 821.50 574.81
  C 822.36 578.73 817.34 580.30 815.35 582.46
  C 814.29 583.60 813.34 584.66 811.97 585.56
  C 807.56 588.47 805.35 593.45 802.01 596.96
  C 796.63 602.63 791.74 609.14 788.04 617.23
  Q 787.83 617.68 788.01 618.13
  C 788.58 619.54 789.08 620.79 790.11 621.98
  C 794.55 627.10 798.42 633.30 804.49 642.31
  C 806.37 645.12 808.78 647.35 811.02 649.92
  Q 811.35 650.30 811.85 650.25
  Q 813.00 650.14 813.80 650.98
  Q 814.21 651.40 814.79 651.29
  Q 816.33 651.00 817.62 650.05
  Q 817.98 649.78 818.06 649.33
  Q 818.41 647.10 820.53 646.21
  Q 821.05 646.00 821.13 645.44
  C 821.63 641.91 820.37 636.45 822.98 633.85
  C 824.07 632.76 827.30 631.81 828.91 631.67
  Q 833.86 631.24 836.13 630.40
  C 838.54 629.50 841.84 629.45 844.42 629.02
  Q 844.83 628.95 845.22 629.08
  Q 846.27 629.43 847.38 629.38
  Q 847.82 629.36 848.22 629.55
  Q 850.60 630.68 852.76 630.84
  Q 854.48 630.97 854.84 632.41
  Q 854.96 632.89 855.31 633.24
  C 857.11 635.04 858.54 636.57 858.96 639.23
  Q 859.56 642.93 859.80 646.69
  Q 859.83 647.14 860.28 647.19
  Z
  M 1006.4679 642.4043
  A 8.27 2.44 -39.1 0 0 998.5112 645.7264
  A 8.27 2.44 -39.1 0 0 993.6321 652.8357
  A 8.27 2.44 -39.1 0 0 1001.5888 649.5136
  A 8.27 2.44 -39.1 0 0 1006.4679 642.4043
  Z
  M 664.18 660.36
  C 664.86 657.93 665.06 654.55 664.51 652.09
  C 664.06 650.10 665.50 646.77 664.27 645.58
  C 660.84 642.26 654.97 651.86 653.45 652.71
  Q 648.74 655.37 647.53 660.66
  A 2.15 2.14 7.6 0 0 649.54 663.28
  Q 650.38 663.32 651.07 663.72
  Q 651.53 663.98 652.06 663.99
  L 660.90 664.23
  Q 661.39 664.24 661.59 663.80
  Q 662.31 662.22 663.67 661.14
  Q 664.05 660.83 664.18 660.36
  Z
  M 871.62 660.18
  C 869.12 662.37 866.97 663.77 865.03 666.61
  C 863.05 669.52 861.73 671.40 862.77 674.73
  Q 862.93 675.27 863.48 675.38
  C 866.68 676.01 868.91 675.02 871.88 675.08
  A 1.64 1.64 0.0 0 0 872.80 674.82
  Q 878.25 671.45 883.98 668.58
  C 889.57 665.77 894.03 662.39 892.78 655.41
  Q 892.68 654.84 892.16 654.59
  L 889.22 653.15
  Q 888.77 652.93 888.32 653.15
  Q 886.94 653.83 883.51 654.08
  Q 882.03 654.19 876.85 655.99
  Q 876.38 656.15 876.08 656.53
  C 874.76 658.18 873.12 658.87 871.62 660.18
  Z"
/>
<path fill="#ffffff" d="
  M 205.09 620.09
  Q 206.39 619.68 207.57 618.57
  Q 213.01 613.46 220.02 610.86
  C 223.02 609.76 226.70 606.58 230.51 603.51
  Q 241.55 594.60 254.90 589.87
  C 260.51 587.88 267.26 586.76 273.50 585.43
  Q 275.38 585.03 280.23 586.73
  C 284.93 588.39 289.47 598.43 289.87 603.32
  C 290.22 607.69 290.47 610.38 287.27 614.46
  A 1.22 1.20 64.0 0 0 287.01 615.24
  Q 287.04 617.49 285.99 619.44
  A 0.96 0.95 -4.5 0 0 287.41 620.65
  C 288.93 619.49 290.00 618.37 291.82 617.69
  Q 292.32 617.50 292.28 616.97
  L 292.18 615.65
  Q 292.11 614.79 292.85 615.24
  L 293.80 615.81
  Q 294.21 616.06 294.69 615.95
  Q 296.82 615.46 300.75 615.06
  C 302.83 614.85 304.54 613.28 306.50 612.88
  Q 311.44 611.87 316.49 611.76
  C 318.11 611.73 319.86 610.80 321.50 611.17
  C 325.78 612.15 328.92 612.23 332.35 614.58
  Q 332.77 614.87 333.01 615.32
  L 335.71 620.43
  Q 335.97 620.94 336.50 621.18
  Q 336.77 621.30 337.02 621.45
  Q 337.19 621.56 337.29 621.75
  Q 340.45 627.48 340.60 629.25
  Q 341.16 635.88 339.25 642.23
  C 338.41 645.03 340.30 647.99 340.96 650.60
  Q 342.58 657.00 348.53 657.07
  C 351.26 657.10 355.27 655.71 358.48 655.15
  A 1.85 1.82 19.0 0 0 359.36 654.73
  Q 360.72 653.54 362.38 653.14
  C 364.93 652.53 367.55 651.63 369.75 651.41
  Q 376.19 650.76 381.84 649.45
  A 1.63 1.62 -15.0 0 1 383.77 650.56
  Q 384.78 653.95 385.23 656.49
  Q 385.45 657.73 384.55 658.54
  Q 373.68 668.34 361.58 676.57
  Q 356.59 679.97 350.91 681.63
  C 344.76 683.44 336.83 682.75 329.93 682.76
  C 326.74 682.77 321.61 682.10 319.69 679.09
  C 318.30 676.91 316.62 676.78 315.27 674.99
  Q 310.57 668.74 309.19 662.53
  Q 308.50 659.37 307.62 657.21
  C 305.21 651.30 306.08 648.97 308.69 643.47
  C 309.19 642.41 309.12 641.71 308.23 641.02
  C 306.41 639.59 307.12 636.89 304.87 636.18
  A 1.53 1.53 0.0 0 0 302.89 637.82
  Q 303.12 639.87 301.59 641.25
  Q 301.19 641.62 301.09 642.15
  C 300.76 643.86 300.51 645.21 299.53 646.77
  Q 297.92 649.30 297.03 652.17
  C 295.93 655.70 292.80 657.22 290.73 660.12
  Q 290.43 660.54 289.93 660.66
  C 286.22 661.58 282.87 662.56 279.00 662.69
  C 273.45 662.87 266.26 664.15 261.48 661.30
  Q 261.05 661.04 260.54 661.04
  C 258.50 661.03 252.70 661.73 252.27 658.31
  Q 252.21 657.81 251.92 657.40
  C 250.40 655.21 249.19 653.45 249.14 650.63
  Q 249.07 647.15 249.15 643.69
  C 249.19 641.92 250.15 640.53 250.36 639.11
  C 251.02 634.75 252.88 630.33 253.46 626.55
  Q 254.32 620.87 254.25 615.12
  Q 254.24 614.59 254.48 614.13
  Q 254.98 613.15 254.33 612.20
  Q 254.03 611.76 253.49 611.78
  C 248.45 611.92 238.54 620.21 234.71 623.15
  C 224.59 630.95 216.75 640.56 207.79 651.02
  Q 200.96 658.97 190.16 668.98
  Q 189.55 669.55 187.43 671.06
  C 186.14 671.98 185.20 673.21 183.94 674.05
  C 178.02 678.07 173.18 682.79 165.55 683.04
  C 164.51 683.08 163.97 683.38 163.02 683.69
  Q 162.52 683.86 162.05 683.64
  Q 159.73 682.56 158.49 682.69
  Q 153.51 683.23 148.78 681.72
  A 1.98 1.97 10.6 0 1 147.41 679.74
  C 147.61 675.90 148.35 672.63 150.45 669.15
  C 156.61 658.98 162.64 649.03 168.31 638.57
  Q 168.67 637.90 172.02 632.12
  C 173.70 629.20 174.92 626.13 176.85 623.47
  Q 185.03 612.19 198.80 594.02
  Q 201.05 591.05 200.62 587.16
  Q 200.56 586.62 200.16 586.26
  Q 197.31 583.68 193.63 582.54
  Q 193.15 582.39 192.67 582.56
  Q 189.55 583.65 188.23 584.40
  Q 166.48 596.82 150.03 615.54
  C 147.09 618.90 144.04 623.40 140.95 627.26
  Q 140.62 627.67 140.10 627.74
  Q 137.77 628.03 135.55 628.61
  C 134.16 628.97 132.62 628.84 130.86 629.36
  Q 129.80 629.66 126.51 629.82
  C 124.06 629.93 121.56 631.66 118.89 629.14
  Q 118.51 628.78 117.99 628.85
  Q 112.63 629.47 110.07 624.82
  Q 109.83 624.37 109.40 624.08
  Q 107.13 622.54 105.42 620.48
  C 100.98 615.09 108.12 604.67 111.96 600.85
  Q 113.06 599.77 115.16 598.87
  C 116.86 598.15 117.99 597.11 119.83 596.83
  Q 122.64 596.39 125.43 596.06
  Q 125.99 595.99 125.99 595.44
  L 126.02 594.02
  Q 126.02 593.58 126.35 593.28
  C 128.72 591.10 131.23 588.36 134.23 587.50
  C 136.50 586.85 138.86 587.24 140.83 586.46
  Q 143.33 585.49 146.24 583.46
  Q 149.78 580.99 161.94 574.41
  C 167.18 571.58 173.22 570.03 178.88 567.54
  Q 181.04 566.59 183.46 566.43
  C 186.32 566.25 190.02 566.34 192.21 564.60
  Q 192.60 564.29 193.09 564.24
  C 202.03 563.33 211.52 563.31 220.44 564.41
  C 223.12 564.74 224.74 565.99 226.84 567.45
  Q 227.26 567.74 227.25 568.25
  Q 227.17 572.64 228.48 576.71
  Q 229.65 580.39 229.79 582.43
  C 230.16 588.09 229.81 591.45 225.86 595.52
  Q 217.78 603.85 209.59 612.09
  Q 206.39 615.31 204.55 619.49
  A 0.45 0.44 -87.1 0 0 205.09 620.09
  Z"
/>
<path fill="#ffffff" d="
  M 384.88 626.16
  Q 382.44 625.48 379.84 625.82
  Q 379.34 625.88 378.88 625.65
  C 376.37 624.37 371.41 622.77 370.44 620.16
  C 368.14 613.97 377.66 613.96 380.17 610.53
  Q 380.48 610.11 381.01 610.08
  Q 384.77 609.85 388.50 610.01
  C 389.89 610.07 390.63 609.36 391.87 609.37
  Q 395.26 609.38 398.64 609.37
  C 400.72 609.36 402.63 610.13 404.89 610.06
  A 1.25 1.23 -23.2 0 1 405.78 610.41
  C 407.59 612.20 409.91 613.67 410.96 616.16
  C 412.05 618.76 411.36 622.54 411.82 625.50
  A 2.22 2.21 -24.4 0 1 411.04 627.56
  Q 407.90 630.13 403.87 630.90
  A 0.88 0.85 -31.2 0 1 403.22 630.75
  L 400.96 629.08
  A 1.15 1.09 -25.7 0 0 400.30 628.87
  Q 393.78 628.95 389.87 628.38
  C 388.09 628.12 386.49 626.60 384.88 626.16
  Z"
/>
<path fill="#ffffff" d="
  M 490.44 634.02
  C 494.02 634.06 497.45 634.52 500.11 631.56
  A 1.50 1.50 0.0 0 1 502.63 632.04
  Q 502.84 632.61 504.07 633.17
  Q 506.91 634.45 509.43 636.30
  Q 509.82 636.59 509.69 637.05
  Q 508.56 641.09 511.16 644.08
  Q 511.57 644.55 511.66 645.16
  L 512.21 648.70
  Q 512.28 649.13 512.57 649.46
  Q 513.04 649.98 513.71 650.18
  A 1.26 1.26 0.0 0 1 514.50 650.86
  C 515.88 653.81 517.27 657.35 521.50 656.03
  Q 527.21 654.25 532.20 656.16
  Q 532.71 656.35 532.95 656.83
  L 534.44 659.81
  Q 534.65 660.23 535.13 660.23
  L 536.23 660.21
  Q 536.73 660.21 536.69 660.71
  Q 536.51 662.94 536.56 665.12
  Q 536.62 667.90 533.47 671.50
  Q 533.16 671.85 532.69 671.86
  C 529.14 671.92 526.55 673.63 523.26 673.89
  Q 518.78 674.26 514.37 675.15
  C 510.41 675.95 507.20 675.84 503.73 674.59
  C 501.65 673.83 500.51 673.77 498.74 675.31
  Q 496.17 677.55 493.41 679.55
  Q 492.99 679.85 492.48 679.80
  Q 491.10 679.67 489.96 680.47
  A 1.69 1.65 -60.1 0 1 488.93 680.76
  C 484.91 680.56 481.72 681.66 477.83 682.00
  C 476.13 682.15 474.67 682.75 473.04 682.76
  Q 465.03 682.81 457.03 682.72
  C 455.78 682.71 454.85 682.05 453.52 682.09
  A 1.74 1.72 59.8 0 1 452.59 681.84
  C 450.79 680.74 448.20 678.26 445.99 678.80
  Q 443.54 679.41 441.00 679.56
  C 439.68 679.64 438.33 681.14 436.93 681.54
  Q 431.68 683.06 426.20 683.08
  C 425.39 683.08 424.87 683.45 424.00 683.48
  C 418.99 683.66 413.72 684.14 408.77 683.18
  C 406.97 682.83 405.11 682.95 403.47 682.17
  C 398.14 679.62 389.28 675.29 389.35 668.64
  C 389.41 662.17 389.80 656.49 387.74 649.80
  C 386.96 647.27 384.63 645.66 384.10 643.22
  Q 383.09 638.54 387.36 637.13
  C 389.57 636.39 391.71 637.46 394.23 637.22
  Q 398.55 636.79 398.81 636.78
  C 401.02 636.66 404.33 635.36 406.13 637.06
  C 407.65 638.51 409.70 640.25 410.52 642.01
  Q 411.57 644.26 412.39 645.72
  C 414.07 648.73 415.01 652.43 416.65 654.81
  Q 418.70 657.81 419.19 660.34
  Q 419.29 660.84 419.57 661.26
  Q 420.17 662.15 421.30 662.13
  A 1.34 1.31 66.2 0 1 422.25 662.51
  Q 424.87 665.03 427.49 663.93
  Q 431.30 662.33 435.19 661.00
  Q 435.67 660.84 435.96 660.43
  Q 437.35 658.45 439.77 657.80
  Q 440.33 657.65 440.54 657.11
  Q 441.91 653.60 442.63 652.63
  C 449.06 644.08 457.88 631.72 468.50 629.49
  C 474.42 628.25 481.17 628.12 488.98 630.75
  Q 489.42 630.90 489.49 631.36
  L 489.77 633.43
  Q 489.85 634.01 490.44 634.02
  Z
  M 488.04 660.56
  Q 489.03 655.77 488.09 650.98
  A 2.29 2.25 -42.4 0 1 488.15 649.87
  Q 488.84 647.58 488.27 645.25
  A 1.45 1.45 0.0 0 0 486.31 644.25
  Q 483.06 645.56 480.82 647.83
  Q 477.60 651.09 477.04 651.55
  Q 475.16 653.09 473.34 654.74
  C 471.67 656.27 471.70 658.06 470.15 659.62
  A 1.71 1.70 42.6 0 0 470.26 662.11
  Q 473.64 664.98 477.23 664.00
  Q 478.70 663.60 481.17 664.80
  Q 481.61 665.02 482.10 664.96
  C 484.60 664.64 485.90 662.75 487.60 661.30
  A 1.39 1.32 77.2 0 0 488.04 660.56
  Z"
/>
<ellipse fill="#ffffff" cx="0.00" cy="0.00" transform="translate(881.10,663.52) rotate(4.3)" rx="0.84" ry="0.48"/>
<ellipse fill="#ffffff" cx="0.00" cy="0.00" transform="translate(1031.97,674.74) rotate(-10.5)" rx="0.65" ry="0.48"/>
<path fill="#ffffff" d="
  M 179.68 830.05
  C 179.19 829.40 179.14 828.70 178.73 828.06
  C 165.16 806.60 155.98 785.80 145.67 763.98
  Q 145.00 762.56 143.94 758.80
  Q 143.43 757.01 142.59 755.34
  C 141.02 752.25 140.79 749.10 139.03 745.97
  C 138.00 744.16 137.53 740.83 136.38 739.63
  Q 136.13 739.37 136.06 739.01
  C 135.46 735.97 133.96 733.60 133.39 730.58
  C 132.68 726.87 130.71 723.80 129.95 720.23
  C 129.33 717.32 127.73 714.45 127.18 711.97
  Q 126.62 709.44 126.12 706.90
  Q 126.06 706.59 125.77 706.24
  Q 125.50 705.90 125.41 705.60
  Q 123.99 700.99 122.12 696.51
  A 0.53 0.53 0.0 0 1 122.54 695.78
  Q 123.74 695.62 124.29 694.52
  A 1.98 1.97 18.4 0 1 126.40 693.47
  Q 129.52 694.03 131.89 696.06
  Q 132.28 696.39 132.80 696.41
  Q 136.19 696.56 139.30 697.68
  Q 142.49 698.83 144.39 698.98
  Q 155.05 699.84 165.67 698.50
  Q 166.87 698.35 168.60 697.42
  C 170.54 696.38 176.79 695.70 178.90 697.36
  C 181.99 699.77 179.64 702.27 181.12 704.96
  C 181.59 705.80 182.34 706.40 182.67 707.27
  C 183.53 709.50 183.76 714.07 185.42 715.50
  Q 185.80 715.83 185.82 716.33
  C 185.98 720.29 188.45 723.74 189.38 726.23
  Q 192.74 735.25 196.69 744.03
  C 197.02 744.77 196.96 745.61 197.28 746.27
  C 199.39 750.55 201.10 754.79 203.35 759.16
  C 205.59 763.51 207.38 768.32 209.57 772.38
  C 214.06 780.69 218.64 789.53 223.20 797.25
  C 240.06 825.77 258.22 850.60 279.78 875.75
  Q 282.40 878.80 287.45 883.94
  C 290.45 887.00 293.07 890.32 296.11 893.34
  Q 305.78 902.94 308.83 905.67
  Q 311.68 908.21 313.60 910.09
  C 324.47 920.72 336.89 930.40 348.93 939.69
  Q 349.06 939.79 351.61 942.31
  C 352.93 943.61 354.71 943.92 355.82 945.23
  Q 357.27 946.97 357.60 949.25
  Q 357.67 949.71 357.22 949.85
  Q 353.58 950.95 349.79 951.19
  Q 347.45 951.34 345.49 952.24
  C 342.63 953.55 339.48 954.52 336.96 955.77
  Q 324.13 962.16 315.17 973.28
  C 312.38 976.75 309.74 978.75 305.83 975.39
  C 284.06 956.67 260.14 935.43 241.33 913.44
  Q 237.50 908.96 233.41 904.72
  Q 233.24 904.54 233.14 904.28
  Q 233.02 903.94 232.92 903.82
  Q 231.04 901.61 225.40 894.89
  Q 211.75 878.63 195.31 854.69
  Q 191.71 849.44 189.82 846.21
  C 188.39 843.77 185.87 841.22 184.86 837.93
  C 184.29 836.04 180.90 833.90 180.10 830.91
  Q 179.97 830.44 179.68 830.05
  Z"
/>
<path fill="#ffffff" d="
  M 1152.44 706.96
  Q 1155.90 704.57 1160.18 705.06
  A 1.33 1.29 -55.0 0 0 1160.96 704.91
  C 1164.02 703.25 1166.99 705.69 1165.89 709.01
  C 1165.42 710.45 1165.17 711.66 1164.47 712.88
  C 1162.56 716.23 1163.48 719.56 1161.67 723.03
  Q 1160.87 724.58 1160.27 726.63
  C 1159.78 728.35 1158.92 729.94 1158.45 731.50
  C 1157.30 735.28 1156.45 738.35 1154.65 742.41
  C 1152.25 747.83 1151.07 755.14 1147.61 758.74
  Q 1147.26 759.10 1147.19 759.60
  Q 1146.78 762.45 1146.43 763.17
  C 1141.89 772.58 1138.16 782.88 1132.71 793.63
  C 1117.91 822.81 1100.60 851.75 1080.78 877.79
  Q 1063.40 900.62 1051.50 913.25
  C 1040.66 924.77 1030.34 936.50 1018.35 947.35
  Q 1005.87 958.64 993.15 969.65
  Q 993.10 969.69 990.02 971.93
  Q 988.03 973.38 985.82 976.06
  Q 984.76 977.34 982.85 977.51
  C 980.13 977.77 977.63 974.48 975.74 972.52
  Q 973.00 969.66 968.17 966.47
  C 965.19 964.51 961.45 963.37 957.75 961.76
  Q 952.83 959.62 946.20 958.78
  A 1.99 1.91 -23.0 0 1 945.33 958.45
  C 942.88 956.72 937.93 956.43 935.01 956.40
  Q 931.10 956.36 927.70 954.67
  A 1.31 1.31 0.0 0 1 927.29 952.65
  Q 927.84 952.01 928.16 951.21
  Q 928.35 950.72 928.81 950.46
  C 932.19 948.54 934.81 946.12 937.88 943.80
  Q 960.49 926.74 981.42 907.67
  C 982.45 906.74 983.40 905.46 984.54 904.46
  Q 988.57 900.92 994.73 894.48
  Q 1015.12 873.15 1028.94 855.67
  C 1037.64 844.67 1048.99 829.43 1057.45 815.87
  Q 1076.41 785.49 1091.73 753.09
  C 1092.30 751.88 1092.94 749.36 1093.93 747.72
  C 1095.35 745.38 1096.24 742.65 1097.38 740.15
  C 1099.11 736.39 1100.04 732.07 1101.97 728.16
  C 1103.37 725.34 1103.97 722.56 1105.22 719.68
  C 1107.03 715.51 1106.19 712.24 1111.55 710.44
  C 1112.52 710.12 1113.46 710.47 1114.50 710.51
  Q 1123.16 710.82 1131.74 709.75
  C 1134.12 709.45 1136.36 709.53 1138.75 709.48
  A 1.46 1.45 23.5 0 0 1139.63 709.14
  C 1141.72 707.38 1143.58 707.85 1145.77 707.54
  Q 1148.61 707.14 1151.53 707.23
  Q 1152.03 707.25 1152.44 706.96
  Z"
/>
<path fill="#ffffff" d="
  M 399.82 992.90
  Q 399.99 992.99 400.20 993.00
  Q 400.56 993.01 400.51 993.37
  C 400.34 994.73 400.32 995.87 399.73 997.21
  Q 398.41 1000.23 398.46 1004.50
  C 398.51 1007.65 394.85 1008.40 392.59 1009.44
  Q 392.08 1009.67 391.58 1009.42
  Q 389.69 1008.46 387.51 1008.78
  A 1.88 1.85 -38.4 0 1 386.58 1008.68
  C 384.34 1007.80 381.99 1007.91 379.88 1006.76
  C 377.06 1005.23 372.64 1005.09 369.49 1004.22
  C 361.38 1002.00 353.78 998.90 347.97 1000.66
  A 1.23 1.18 4.4 0 0 347.25 1001.25
  C 343.97 1007.39 341.88 1014.48 340.18 1021.21
  C 339.43 1024.17 340.19 1026.16 341.54 1028.65
  Q 341.78 1029.08 342.26 1029.23
  C 349.73 1031.51 357.02 1033.98 364.64 1035.83
  Q 374.22 1038.16 383.75 1040.69
  Q 386.01 1041.29 387.36 1042.42
  A 1.11 1.10 20.5 0 1 387.76 1043.29
  C 387.67 1048.79 385.76 1053.22 384.39 1058.22
  A 3.59 3.58 12.9 0 1 380.28 1060.79
  Q 375.19 1059.86 369.50 1058.23
  Q 364.04 1056.66 361.89 1056.47
  Q 361.40 1056.42 360.97 1056.19
  Q 358.16 1054.67 355.07 1053.99
  Q 349.51 1052.77 349.42 1052.75
  C 341.17 1050.54 330.27 1048.56 323.34 1045.44
  Q 320.04 1043.95 315.02 1039.34
  Q 314.69 1039.04 314.55 1038.60
  Q 313.66 1035.72 312.06 1033.18
  Q 311.80 1032.76 311.78 1032.28
  Q 311.57 1027.28 311.72 1022.26
  Q 311.78 1020.22 312.81 1017.63
  Q 314.27 1013.96 314.58 1009.96
  Q 314.62 1009.45 314.89 1009.02
  Q 316.52 1006.38 317.24 1002.74
  C 318.85 994.61 321.59 986.19 327.79 980.66
  C 331.50 977.36 336.91 975.16 341.24 975.90
  C 343.68 976.31 346.09 976.25 348.06 976.74
  Q 353.00 977.96 358.01 978.91
  Q 358.85 979.07 360.10 980.62
  A 1.05 1.03 68.8 0 0 360.94 981.00
  Q 363.00 980.94 364.25 981.24
  Q 372.38 983.20 387.23 987.29
  Q 389.06 987.80 390.11 988.23
  C 393.58 989.64 397.16 988.43 399.10 992.22
  A 1.83 1.24 9.2 0 0 399.82 992.90
  Z"
/>
<path fill="#ffffff" d="
  M 900.15 1054.37
  C 899.01 1053.45 897.39 1053.78 896.76 1052.23
  C 895.24 1048.44 893.05 1044.95 892.37 1041.06
  Q 891.42 1035.67 891.86 1032.99
  C 892.52 1028.98 892.60 1028.04 890.00 1024.61
  Q 886.81 1020.39 886.10 1015.08
  C 885.84 1013.16 884.79 1010.24 885.27 1008.25
  Q 886.12 1004.75 886.26 1002.46
  C 886.50 998.50 888.18 996.28 890.92 993.66
  C 892.55 992.10 893.83 990.15 896.46 989.42
  Q 900.16 988.39 900.44 988.28
  C 903.75 986.98 906.99 986.76 910.24 985.07
  C 912.43 983.93 914.92 983.85 916.90 983.14
  Q 926.19 979.84 935.69 977.20
  C 941.76 975.50 946.09 975.83 951.52 976.32
  C 955.01 976.63 957.29 977.79 960.06 979.57
  C 966.26 983.57 967.11 992.29 967.99 998.44
  C 968.83 1004.26 972.04 1009.71 975.04 1014.65
  C 978.03 1019.56 977.92 1023.65 977.72 1029.19
  Q 977.70 1029.68 977.44 1030.10
  C 976.00 1032.31 975.96 1034.80 974.83 1036.78
  C 972.88 1040.18 968.24 1044.24 964.65 1045.28
  Q 960.20 1046.57 955.74 1047.75
  C 953.35 1048.39 950.83 1050.06 947.99 1050.66
  C 944.76 1051.33 942.13 1051.48 939.00 1053.07
  C 937.26 1053.96 935.31 1053.91 933.71 1054.45
  C 931.24 1055.29 928.34 1056.88 925.77 1057.00
  C 921.41 1057.20 917.77 1059.86 913.55 1059.25
  Q 908.05 1058.46 902.78 1056.69
  Q 902.29 1056.53 901.96 1056.14
  Q 901.13 1055.16 900.15 1054.37
  Z
  M 924.62 1008.62
  Q 929.65 1008.21 932.19 1005.78
  A 0.58 0.53 -73.9 0 1 932.42 1005.64
  L 937.92 1003.96
  A 1.83 1.83 0.0 0 0 939.04 1001.42
  L 938.73 1000.75
  Q 937.76 998.70 935.61 999.42
  C 932.87 1000.34 930.74 1001.59 928.35 1002.12
  C 925.58 1002.73 923.66 1003.56 920.74 1003.48
  Q 918.70 1003.42 913.92 1007.21
  Q 912.47 1008.36 914.06 1009.29
  L 915.88 1010.36
  Q 917.31 1011.20 918.76 1010.43
  Q 921.73 1008.86 924.62 1008.62
  Z
  M 924.99 1035.92
  C 925.99 1035.53 927.12 1035.73 927.76 1035.45
  Q 932.68 1033.35 937.95 1032.39
  C 939.37 1032.13 939.94 1031.16 941.60 1031.00
  C 946.19 1030.54 946.03 1028.52 948.74 1025.79
  A 0.61 0.61 0.0 0 0 948.36 1024.76
  Q 945.89 1024.53 943.27 1024.61
  C 940.26 1024.69 937.85 1026.11 934.77 1026.78
  C 931.96 1027.40 929.94 1028.99 927.63 1029.64
  C 926.33 1030.00 924.64 1029.43 923.20 1030.23
  Q 921.02 1031.45 920.78 1034.20
  A 1.07 1.04 -65.7 0 0 921.08 1035.03
  Q 922.81 1036.77 924.99 1035.92
  Z"
/>
<path fill="#ffffff" d="
  M 885.77 1053.61
  C 885.97 1056.64 886.25 1059.21 886.88 1062.18
  Q 886.98 1062.69 886.72 1063.14
  C 886.00 1064.39 886.01 1066.31 885.00 1067.02
  C 884.11 1067.65 882.80 1067.29 882.00 1067.37
  Q 878.74 1067.72 875.55 1068.38
  C 874.55 1068.58 873.73 1069.12 872.25 1069.20
  Q 870.82 1069.28 867.29 1070.64
  Q 866.82 1070.82 866.35 1070.64
  C 864.54 1069.96 862.20 1070.36 860.97 1069.13
  C 859.51 1067.67 859.63 1064.93 859.35 1062.99
  C 858.99 1060.46 857.25 1057.36 857.23 1055.26
  Q 857.20 1051.52 856.70 1047.84
  C 856.18 1044.00 853.91 1040.87 854.10 1036.29
  C 854.23 1033.03 852.52 1030.61 852.03 1027.53
  Q 851.55 1024.53 849.28 1022.27
  Q 848.91 1021.91 848.41 1021.89
  Q 842.70 1021.71 840.31 1016.52
  Q 839.59 1014.96 838.92 1013.36
  C 837.93 1011.00 838.39 1008.60 837.66 1006.09
  A 2.72 2.71 -34.5 0 1 838.11 1003.69
  C 841.76 998.84 850.12 999.45 855.51 997.76
  C 859.53 996.51 862.95 997.73 866.77 995.34
  A 2.80 2.79 -39.6 0 1 870.16 995.66
  Q 870.78 996.23 871.57 996.46
  Q 872.07 996.60 872.30 997.06
  L 873.51 999.47
  Q 873.73 999.90 873.74 1000.39
  Q 873.77 1003.07 874.95 1005.53
  Q 875.18 1006.02 875.10 1006.56
  C 875.02 1007.17 874.90 1007.49 875.16 1008.11
  C 876.01 1010.15 875.45 1012.12 876.02 1013.91
  C 876.61 1015.78 877.74 1017.22 878.00 1019.15
  Q 878.33 1021.54 878.71 1023.92
  Q 878.95 1025.35 880.12 1029.12
  C 881.25 1032.73 880.60 1036.36 882.22 1039.72
  Q 883.38 1042.12 883.60 1043.49
  Q 884.22 1047.50 884.69 1051.51
  A 1.44 1.43 20.2 0 0 885.05 1052.28
  C 885.38 1052.65 885.73 1053.10 885.77 1053.61
  Z"
/>
<path fill="#ffffff" d="
  M 432.88 1021.97
  L 432.88 1022.36
  Q 432.88 1024.58 435.07 1024.93
  C 437.44 1025.31 439.11 1026.76 441.33 1027.03
  Q 443.13 1027.25 444.93 1027.28
  C 445.95 1027.29 446.42 1027.98 447.38 1028.07
  C 450.34 1028.35 453.09 1029.47 455.91 1029.78
  Q 463.95 1030.67 470.89 1034.08
  C 478.03 1037.59 478.81 1053.04 477.37 1059.51
  Q 476.17 1064.85 472.77 1069.10
  C 470.58 1071.84 467.90 1072.98 464.75 1074.61
  C 459.32 1077.43 451.96 1076.17 446.26 1074.81
  C 441.82 1073.75 438.12 1073.43 433.95 1072.75
  C 431.94 1072.42 429.69 1071.32 427.43 1071.07
  Q 424.94 1070.81 423.14 1070.37
  C 421.19 1069.90 419.19 1069.90 417.32 1069.42
  C 412.49 1068.16 406.97 1068.03 402.46 1066.09
  C 399.32 1064.74 396.24 1065.34 393.38 1062.72
  Q 393.03 1062.40 393.19 1061.96
  Q 395.27 1056.04 395.83 1049.75
  C 396.17 1046.08 398.40 1045.21 401.83 1045.59
  Q 409.29 1046.42 411.75 1046.98
  Q 431.59 1051.53 444.76 1053.79
  Q 447.07 1054.19 448.45 1052.11
  Q 448.70 1051.74 448.57 1051.30
  C 447.49 1047.62 444.67 1048.85 442.31 1048.23
  C 434.67 1046.23 426.91 1044.92 419.26 1042.93
  C 415.04 1041.84 407.11 1038.41 405.40 1034.04
  Q 404.52 1031.77 404.44 1031.01
  C 403.72 1023.30 403.16 1014.52 405.99 1008.58
  C 407.87 1004.62 415.17 998.67 419.23 997.44
  C 421.90 996.63 425.28 997.90 427.93 997.85
  C 431.97 997.78 434.52 997.98 438.86 999.30
  Q 442.61 1000.44 446.59 1000.21
  C 447.93 1000.13 450.72 1000.36 451.96 1000.92
  Q 456.23 1002.85 460.89 1003.23
  Q 461.84 1003.30 463.55 1003.79
  C 464.82 1004.15 465.88 1003.95 467.15 1004.45
  Q 469.76 1005.47 472.56 1005.23
  Q 473.10 1005.18 473.59 1005.40
  Q 475.52 1006.23 477.68 1005.75
  Q 478.18 1005.64 478.60 1005.93
  L 484.40 1009.88
  Q 484.83 1010.18 484.84 1010.70
  Q 484.89 1014.27 483.96 1017.63
  Q 483.51 1019.30 483.41 1020.92
  C 483.18 1024.64 480.82 1028.24 476.76 1027.41
  Q 469.74 1025.97 462.73 1024.55
  C 459.96 1023.99 455.77 1024.00 452.26 1022.25
  Q 451.28 1021.76 447.75 1021.94
  Q 441.26 1022.28 434.84 1020.49
  Q 432.88 1019.94 432.88 1021.97
  Z"
/>
<path fill="#ffffff" d="
  M 368.80 1031.06
  Q 353.73 1027.06 349.09 1025.70
  C 342.66 1023.82 347.54 1010.77 349.40 1007.20
  Q 351.13 1003.88 355.05 1005.94
  Q 358.03 1007.51 365.15 1009.00
  C 367.71 1009.54 370.34 1011.15 373.55 1011.09
  C 376.57 1011.03 377.41 1012.40 379.96 1013.01
  Q 383.86 1013.96 384.59 1018.14
  Q 384.67 1018.63 384.36 1019.00
  C 381.59 1022.34 381.86 1025.85 381.12 1029.93
  Q 381.04 1030.42 380.64 1030.73
  C 376.83 1033.70 374.00 1032.44 368.80 1031.06
  Z"
/>
<path fill="#ffffff" d="
  M 761.54 1014.33
  C 762.97 1013.92 765.00 1013.35 766.23 1012.50
  Q 766.54 1012.29 766.82 1012.22
  Q 772.54 1010.85 778.41 1010.95
  C 782.49 1011.02 785.31 1009.24 789.05 1009.05
  Q 798.21 1008.57 807.23 1006.91
  C 812.37 1005.96 819.22 1007.27 823.18 1009.90
  C 826.12 1011.84 827.83 1013.62 829.37 1017.06
  C 830.33 1019.22 831.37 1021.14 831.98 1023.42
  Q 836.21 1039.25 837.65 1055.57
  Q 837.93 1058.67 837.63 1061.43
  C 836.72 1069.72 832.89 1074.21 825.53 1076.85
  C 823.12 1077.72 821.47 1078.70 818.73 1078.79
  Q 816.72 1078.85 814.79 1079.30
  C 811.67 1080.03 809.06 1080.32 806.23 1081.00
  Q 803.08 1081.75 800.15 1081.85
  Q 795.56 1081.99 793.99 1082.66
  C 790.49 1084.13 787.02 1083.65 783.68 1084.06
  C 781.56 1084.31 779.60 1084.24 777.44 1084.56
  Q 769.65 1085.72 762.44 1082.35
  C 759.28 1080.87 756.79 1077.25 754.30 1074.48
  A 1.33 1.32 24.8 0 1 753.96 1073.57
  C 754.03 1068.33 751.64 1064.24 751.25 1059.07
  Q 750.88 1054.27 750.47 1049.48
  C 749.99 1043.83 750.06 1037.88 749.77 1032.06
  Q 749.68 1030.23 750.34 1028.04
  C 751.15 1025.37 751.15 1023.17 752.68 1020.34
  C 754.47 1016.99 758.06 1015.32 761.54 1014.33
  Z
  M 778.75 1055.33
  Q 778.40 1057.52 780.10 1058.86
  A 1.63 1.52 12.4 0 1 780.65 1059.66
  C 781.80 1063.42 787.65 1063.16 790.74 1062.15
  Q 791.22 1061.99 791.71 1062.09
  C 794.87 1062.73 797.77 1061.35 800.44 1061.01
  C 808.81 1059.92 810.65 1054.10 809.28 1046.63
  C 808.42 1041.98 806.80 1037.99 807.24 1033.85
  Q 807.29 1033.38 806.90 1033.09
  L 802.89 1030.12
  Q 802.50 1029.84 802.03 1029.81
  C 798.16 1029.59 794.71 1029.99 790.49 1029.97
  C 787.76 1029.96 785.90 1030.40 783.38 1031.53
  Q 782.20 1032.06 780.90 1032.24
  Q 779.14 1032.48 778.74 1033.25
  C 774.89 1040.69 778.43 1046.56 778.09 1053.49
  Q 778.08 1053.76 778.55 1054.43
  Q 778.83 1054.84 778.75 1055.33
  Z"
/>
<path fill="#ffffff" d="
  M 521.73 1012.54
  C 522.93 1013.37 523.21 1013.38 524.64 1013.49
  Q 531.10 1013.98 537.57 1014.26
  Q 538.11 1014.29 540.39 1014.67
  C 541.67 1014.89 542.92 1014.62 544.20 1014.94
  Q 549.85 1016.37 555.68 1016.19
  Q 557.84 1016.12 560.31 1016.39
  C 562.46 1016.62 564.54 1016.09 566.35 1017.28
  C 568.92 1018.96 569.61 1021.01 569.29 1024.19
  C 569.01 1026.96 569.28 1032.47 567.78 1034.67
  C 565.42 1038.17 563.10 1037.79 559.36 1036.96
  C 557.26 1036.49 555.63 1036.94 553.50 1035.92
  A 1.91 1.85 -33.6 0 0 552.59 1035.75
  C 550.89 1035.84 549.37 1035.22 547.82 1035.27
  Q 538.62 1035.55 534.50 1034.58
  Q 524.35 1032.20 513.94 1032.49
  C 512.34 1032.53 510.99 1031.76 509.24 1031.87
  Q 508.71 1031.91 508.31 1031.56
  C 506.99 1030.43 505.01 1031.00 503.35 1030.53
  C 499.37 1029.39 494.07 1031.42 492.27 1026.99
  Q 491.82 1025.86 492.20 1023.45
  C 492.46 1021.80 492.17 1020.12 492.48 1018.54
  Q 493.18 1014.94 494.43 1011.76
  A 2.81 2.80 -77.8 0 1 497.18 1009.98
  C 501.29 1010.20 505.32 1011.05 509.30 1011.01
  Q 514.66 1010.96 516.37 1011.37
  Q 519.50 1012.13 520.82 1012.22
  Q 521.32 1012.25 521.73 1012.54
  Z"
/>
<path fill="#ffffff" d="
  M 718.52 1090.86
  Q 718.36 1091.78 717.25 1091.80
  Q 690.57 1092.18 663.87 1091.94
  A 0.41 0.41 0.0 0 1 663.48 1091.43
  L 663.86 1090.00
  A 1.07 1.05 36.0 0 0 663.71 1089.12
  C 662.14 1086.92 662.46 1085.13 662.23 1082.87
  C 661.67 1077.57 661.27 1069.75 662.88 1064.66
  C 664.46 1059.67 664.04 1055.06 668.60 1051.54
  C 669.87 1050.57 670.52 1048.88 672.00 1048.35
  C 679.10 1045.82 685.68 1046.14 692.88 1045.24
  Q 693.39 1045.18 693.79 1044.87
  Q 695.12 1043.85 696.81 1044.14
  Q 697.37 1044.24 697.77 1043.84
  L 698.03 1043.59
  A 1.26 1.26 0.0 0 1 698.93 1043.21
  L 706.25 1043.20
  Q 706.87 1043.20 707.39 1043.54
  Q 709.46 1044.91 711.09 1042.87
  A 1.93 1.93 0.0 0 0 710.68 1040.10
  C 707.67 1037.99 705.95 1037.81 702.07 1038.41
  Q 696.84 1039.20 691.50 1038.80
  Q 690.75 1038.75 689.51 1039.42
  Q 689.06 1039.67 688.61 1039.43
  C 685.80 1037.93 684.57 1040.32 682.29 1040.68
  C 679.27 1041.16 676.76 1039.88 674.27 1039.80
  Q 672.13 1039.73 670.25 1039.83
  A 2.23 2.23 0.0 0 1 668.04 1038.38
  C 667.39 1036.60 666.55 1035.09 666.58 1033.11
  C 666.64 1028.76 665.73 1023.35 668.27 1019.50
  Q 668.54 1019.09 669.03 1019.10
  Q 683.78 1019.50 698.47 1019.04
  Q 699.36 1019.01 700.47 1018.66
  C 702.36 1018.05 704.41 1018.41 706.38 1018.02
  Q 709.33 1017.44 710.18 1017.40
  Q 716.03 1017.14 723.75 1018.25
  C 729.10 1019.02 733.64 1022.59 736.65 1026.57
  C 741.05 1032.40 740.29 1038.91 740.29 1045.77
  C 740.30 1053.31 735.94 1058.15 729.75 1061.70
  Q 728.04 1062.69 725.50 1062.78
  Q 720.82 1062.95 716.29 1064.08
  Q 712.66 1064.98 709.89 1064.99
  C 706.31 1065.00 702.44 1064.62 698.96 1065.45
  C 696.50 1066.04 694.27 1065.71 692.13 1067.61
  Q 691.74 1067.96 691.72 1068.48
  C 691.64 1071.23 694.11 1071.69 696.33 1071.18
  C 698.90 1070.58 701.04 1071.89 703.25 1071.46
  Q 707.78 1070.59 711.49 1070.62
  C 714.15 1070.65 716.74 1069.92 719.50 1070.12
  C 721.68 1070.28 723.91 1067.54 727.15 1068.29
  Q 729.01 1068.73 730.41 1068.57
  Q 735.60 1067.98 740.83 1068.22
  Q 741.31 1068.25 741.57 1068.65
  C 743.50 1071.72 744.31 1077.64 744.66 1080.96
  C 745.48 1088.67 740.58 1089.18 734.67 1089.56
  Q 726.88 1090.06 719.09 1090.36
  Q 718.60 1090.38 718.52 1090.86
  Z"
/>
<path fill="#ffffff" d="
  M 527.93 1087.08
  C 525.75 1086.65 523.84 1087.04 521.40 1086.35
  Q 519.14 1085.71 516.72 1085.97
  A 1.42 1.39 -32.1 0 1 515.85 1085.78
  C 513.92 1084.62 511.35 1083.63 510.75 1081.26
  C 510.00 1078.30 512.14 1074.47 512.17 1071.20
  Q 512.28 1059.74 513.25 1056.25
  Q 515.03 1049.86 515.12 1043.24
  Q 515.15 1041.18 517.48 1039.04
  Q 517.81 1038.73 518.25 1038.76
  C 520.21 1038.86 521.75 1038.03 523.60 1038.18
  Q 529.10 1038.64 534.58 1039.22
  C 537.20 1039.50 539.07 1040.54 541.31 1041.72
  Q 541.75 1041.96 541.81 1042.46
  Q 542.20 1046.23 541.77 1049.94
  Q 541.65 1050.99 540.49 1053.83
  C 539.59 1056.06 539.90 1058.81 539.65 1060.71
  Q 538.74 1067.51 538.82 1074.35
  C 538.85 1077.21 538.19 1079.97 537.88 1082.82
  Q 537.82 1083.31 537.54 1083.70
  C 536.50 1085.16 535.90 1087.94 533.76 1087.87
  Q 531.53 1087.80 527.93 1087.08
  Z"
/>
<path fill="#ffffff" d="
  M 580.43 1071.21
  C 582.54 1070.83 584.78 1071.46 586.54 1071.46
  Q 591.69 1071.47 597.15 1071.74
  A 4.59 4.58 2.3 0 1 601.51 1076.47
  L 601.01 1091.46
  Q 600.99 1091.96 600.48 1091.97
  C 593.51 1092.04 586.23 1091.58 579.33 1092.04
  Q 577.33 1092.18 576.77 1090.32
  Q 576.63 1089.85 576.25 1089.55
  C 575.47 1088.95 575.00 1088.42 574.91 1087.38
  Q 574.34 1080.31 575.21 1073.28
  A 1.25 1.23 74.9 0 1 575.69 1072.43
  C 577.02 1071.39 579.21 1071.43 580.43 1071.21
  Z"
/>
</svg>
