<?xml version="1.0" encoding="UTF-8" standalone="no"?>
<!DOCTYPE svg PUBLIC "-//W3C//DTD SVG 1.1//EN" "http://www.w3.org/Graphics/SVG/1.1/DTD/svg11.dtd">
<svg xmlns="http://www.w3.org/2000/svg" version="1.1" viewBox="0.00 0.00 536.00 155.00">
<path fill="#000000" d="
  M 261.81 0.00
  L 268.30 0.00
  C 280.71 2.17 259.17 20.40 256.83 22.57
  Q 246.98 31.72 237.24 40.99
  Q 234.03 44.04 231.24 47.52
  A 0.31 0.30 -70.1 0 0 231.47 48.02
  C 237.56 48.13 243.45 48.87 249.50 48.95
  Q 273.66 49.24 297.78 47.89
  C 313.79 46.99 330.49 46.58 346.85 45.07
  C 357.63 44.07 368.63 43.93 379.54 43.10
  Q 390.78 42.26 399.50 41.96
  C 412.83 41.50 427.05 40.27 439.40 40.09
  C 459.31 39.82 478.22 41.44 499.97 44.01
  C 503.39 44.41 506.65 45.15 510.00 45.88
  C 513.81 46.71 518.52 47.23 522.77 48.10
  C 527.13 49.00 531.61 49.26 536.00 50.48
  L 536.00 51.07
  C 534.06 51.24 532.24 51.74 530.33 51.63
  C 521.27 51.09 513.31 50.78 503.26 49.80
  C 493.71 48.86 483.26 49.12 474.60 48.44
  C 463.55 47.58 451.86 46.55 441.33 46.71
  C 427.56 46.92 413.85 48.47 400.10 49.14
  C 390.67 49.60 381.21 50.54 371.74 51.14
  Q 362.67 51.72 351.79 52.71
  C 336.85 54.06 321.91 54.23 307.00 55.30
  Q 296.40 56.06 291.50 56.05
  Q 240.12 56.00 188.75 56.07
  C 181.21 56.09 172.45 55.28 165.07 55.20
  Q 138.79 54.90 112.51 55.17
  C 104.76 55.25 92.53 54.67 82.50 55.33
  C 77.67 55.65 73.18 55.64 68.49 55.80
  C 62.86 56.00 56.51 57.32 50.40 57.96
  C 44.54 58.58 39.04 60.27 33.26 61.29
  Q 29.95 61.88 18.69 66.44
  C 17.92 66.76 17.36 67.24 16.75 67.46
  Q 8.46 70.35 0.00 72.83
  L 0.00 71.44
  Q 5.91 67.09 7.59 66.11
  C 20.55 58.59 31.42 55.60 46.18 52.57
  C 60.43 49.66 74.89 49.39 89.36 48.64
  Q 97.56 48.22 102.66 48.11
  Q 133.85 47.44 147.75 48.41
  Q 158.66 49.17 167.62 47.93
  C 181.66 46.00 194.20 36.00 206.16 29.07
  C 221.92 19.94 237.65 10.89 253.92 2.68
  Q 257.74 0.75 261.81 0.00
  Z
  M 254.37 7.56
  C 250.22 9.91 245.99 12.13 241.85 14.49
  Q 215.07 29.70 188.14 44.66
  Q 186.06 45.81 185.42 47.12
  Q 184.58 48.87 186.52 48.90
  Q 196.15 49.04 205.58 49.02
  C 213.92 49.00 218.99 44.49 225.68 38.68
  Q 231.60 33.55 250.87 15.62
  Q 254.30 12.43 257.88 8.62
  A 1.06 1.06 0.0 0 0 257.10 6.84
  C 256.26 6.85 255.18 7.09 254.37 7.56
  Z"
/>
<path fill="#000000" d="
  M 480.57 60.66
  C 486.24 63.52 490.41 66.72 495.28 70.19
  C 496.79 71.27 500.49 74.08 500.02 76.20
  A 1.21 1.21 0.0 0 1 498.29 77.02
  C 493.18 74.41 488.67 70.92 483.64 68.82
  Q 479.44 67.07 475.25 65.31
  Q 469.47 62.90 459.72 61.43
  C 447.99 59.66 435.11 59.27 423.50 62.01
  C 420.61 62.69 417.72 63.24 415.01 64.43
  Q 406.61 68.11 398.73 72.80
  C 396.55 74.09 393.85 76.85 391.79 77.74
  Q 386.10 80.19 388.76 74.59
  Q 390.07 71.84 393.65 68.89
  C 401.87 62.11 410.69 57.50 421.32 54.91
  Q 429.01 53.04 434.75 52.46
  Q 441.59 51.76 452.96 52.70
  Q 467.05 53.86 480.57 60.66
  Z"
/>
<path fill="#000000" d="
  M 35.95 66.93
  C 36.92 66.46 37.76 65.80 38.74 65.44
  C 44.29 63.39 49.36 61.57 55.42 60.32
  C 59.42 59.50 63.17 58.36 67.26 58.31
  C 72.43 58.24 77.39 57.65 82.52 58.82
  Q 86.58 59.74 90.62 60.77
  C 103.19 63.99 114.70 70.79 124.31 79.45
  Q 125.40 80.43 126.00 82.02
  A 0.84 0.84 0.0 0 1 125.03 83.14
  C 122.15 82.52 119.01 80.46 116.35 79.16
  Q 113.56 77.80 109.43 75.46
  C 101.84 71.15 95.04 68.95 87.62 68.01
  C 76.43 66.60 64.13 66.49 53.09 69.09
  C 50.25 69.76 47.35 70.24 44.68 71.09
  Q 33.61 74.64 25.55 79.33
  Q 20.29 82.38 17.99 83.55
  A 0.88 0.87 48.4 0 1 17.08 83.49
  C 15.25 82.24 15.81 80.77 17.23 79.49
  Q 25.70 71.89 35.95 66.93
  Z"
/>
<path fill="#000000" d="
  M 115.61 107.58
  Q 115.98 106.65 116.65 105.91
  Q 116.99 105.54 117.48 105.40
  C 123.24 103.74 128.18 101.99 134.61 103.33
  Q 135.11 103.43 135.38 103.85
  C 136.73 105.95 138.58 107.49 138.86 110.02
  Q 139.28 113.88 138.59 118.26
  C 138.01 121.95 143.11 121.13 145.35 120.91
  C 148.75 120.59 151.91 118.98 155.48 118.77
  A 1.64 1.64 0.0 0 1 156.86 121.42
  C 151.29 128.42 136.19 137.64 128.61 128.29
  Q 127.54 126.96 126.77 124.57
  C 125.82 121.62 123.93 118.53 126.26 115.66
  Q 126.52 115.34 126.12 115.24
  Q 125.44 115.07 125.30 114.45
  Q 124.86 112.56 124.15 111.40
  Q 123.81 110.83 123.55 111.44
  Q 121.98 115.07 120.52 118.71
  C 119.79 120.54 118.70 121.24 117.46 122.66
  A 1.90 1.85 -75.5 0 1 116.54 123.22
  Q 109.66 125.04 103.01 122.44
  A 2.99 2.99 0.0 0 1 101.15 120.11
  Q 100.74 117.46 101.00 114.59
  Q 101.09 113.54 102.37 109.61
  C 103.21 107.04 102.49 104.08 103.53 101.83
  Q 103.76 101.33 103.22 101.45
  C 101.99 101.72 101.08 101.91 100.03 102.67
  C 96.56 105.21 93.06 107.48 90.07 110.57
  C 82.26 118.64 76.41 127.54 66.69 131.68
  C 63.98 132.83 61.32 132.25 58.52 131.81
  A 0.78 0.78 0.0 0 1 57.90 130.81
  C 59.91 124.45 64.60 118.79 67.45 112.68
  C 69.66 107.94 72.09 105.77 74.43 102.11
  C 75.83 99.92 77.21 98.40 78.79 96.57
  C 80.15 94.99 80.13 93.55 80.54 91.62
  Q 80.65 91.06 80.13 90.85
  L 77.13 89.61
  Q 76.63 89.40 76.24 89.77
  Q 75.61 90.37 74.04 91.11
  Q 64.17 95.75 57.16 105.16
  Q 55.00 108.06 53.08 109.03
  C 48.67 111.26 39.37 109.58 39.78 102.74
  C 40.01 98.94 47.03 96.39 49.89 94.52
  Q 53.93 91.86 55.99 91.24
  C 59.72 90.12 61.83 87.68 65.04 86.35
  Q 68.25 85.01 71.61 84.18
  C 78.77 82.41 83.91 80.90 91.06 83.48
  Q 91.60 83.67 91.72 84.23
  Q 92.79 88.92 91.69 93.60
  A 1.75 1.70 77.0 0 1 91.12 94.54
  Q 85.53 99.33 81.43 105.43
  A 0.45 0.44 -69.4 0 0 81.74 106.12
  Q 83.37 106.33 84.13 104.90
  Q 84.37 104.45 84.82 104.21
  C 86.34 103.39 87.94 102.95 89.31 101.96
  C 94.05 98.51 99.67 94.14 105.49 92.93
  Q 106.29 92.76 108.76 91.77
  Q 110.75 90.98 112.77 91.86
  C 117.43 93.89 118.10 100.10 115.90 104.19
  Q 115.00 105.87 114.98 107.45
  A 0.33 0.33 0.0 0 0 115.61 107.58
  Z"
/>
<path fill="#000000" d="
  M 341.69 155.00
  L 339.16 155.00
  C 334.53 152.09 338.26 146.98 341.37 143.65
  Q 344.65 140.14 345.19 135.50
  C 345.50 132.88 346.36 131.33 347.19 129.03
  C 347.83 127.26 348.07 124.85 349.09 122.84
  A 0.31 0.31 0.0 0 0 348.74 122.40
  Q 346.44 122.99 343.94 123.22
  Q 343.35 123.27 343.13 123.53
  Q 342.93 123.78 342.93 124.12
  A 0.70 0.69 -85.9 0 0 343.50 124.78
  Q 345.28 125.11 345.02 126.94
  Q 344.94 127.46 344.49 127.72
  C 339.12 130.86 332.73 133.59 327.97 127.78
  Q 323.84 122.73 323.12 116.28
  C 322.95 114.74 322.42 113.66 321.78 112.35
  A 0.17 0.17 0.0 0 0 321.48 112.34
  Q 317.07 119.72 310.50 124.02
  C 308.74 125.17 307.13 127.39 305.34 128.01
  C 300.27 129.79 294.66 131.68 289.22 130.91
  C 286.84 130.57 284.36 128.85 281.69 128.06
  A 1.53 1.53 0.0 0 0 280.16 128.44
  Q 277.58 130.99 273.51 131.19
  C 269.56 131.38 264.31 132.79 260.64 131.40
  Q 260.33 131.28 260.02 131.41
  Q 259.86 131.48 259.70 131.55
  A 0.29 0.29 0.0 0 1 259.38 131.09
  L 259.68 130.79
  A 0.20 0.20 0.0 0 0 259.60 130.46
  Q 257.59 129.82 256.96 127.75
  A 0.92 0.92 0.0 0 0 255.68 127.18
  C 251.68 129.12 248.72 131.24 243.75 131.34
  C 238.25 131.45 231.68 126.43 231.05 120.70
  C 230.60 116.58 229.31 112.51 231.00 108.44
  A 0.88 0.87 14.3 0 0 230.28 107.23
  L 224.77 106.65
  Q 224.21 106.59 223.79 106.24
  C 221.94 104.71 217.50 104.95 213.53 104.94
  Q 211.11 104.94 210.99 102.52
  L 210.96 101.97
  Q 210.84 99.49 213.30 99.25
  Q 219.66 98.61 226.48 96.25
  C 228.13 95.67 231.09 97.52 232.79 98.14
  A 1.65 1.65 0.0 0 0 235.01 96.60
  C 235.02 94.38 234.00 89.66 238.00 90.14
  Q 240.31 90.42 242.97 91.31
  Q 243.90 91.63 243.93 92.60
  L 244.06 95.84
  A 1.90 1.90 0.0 0 0 245.68 97.65
  L 257.57 99.39
  A 0.54 0.54 0.0 0 1 257.90 100.27
  C 255.47 103.13 251.03 102.73 248.13 103.24
  Q 247.63 103.32 247.27 103.67
  C 243.81 106.99 242.39 108.51 242.70 113.62
  A 1.21 1.18 22.9 0 0 242.99 114.31
  Q 243.31 114.69 243.37 114.96
  Q 244.21 118.79 246.00 122.01
  A 2.21 2.21 0.0 0 0 249.17 122.77
  Q 253.60 119.79 258.44 117.08
  C 262.21 114.97 263.16 110.92 268.08 109.99
  C 271.12 109.42 274.88 109.84 277.63 111.61
  A 1.43 1.39 -35.1 0 0 278.74 111.79
  Q 280.92 111.24 283.03 112.02
  Q 283.55 112.21 283.75 112.72
  C 286.03 118.55 285.81 122.93 294.18 120.97
  C 298.67 119.91 302.72 115.97 305.01 112.11
  C 305.64 111.05 305.45 109.46 306.29 108.49
  Q 307.02 107.66 306.51 106.91
  Q 306.19 106.44 306.75 106.52
  Q 306.92 106.55 307.04 106.67
  A 0.24 0.23 -46.6 0 0 307.39 106.66
  C 309.61 104.18 312.42 103.18 313.00 99.29
  Q 313.07 98.84 312.66 98.62
  L 306.40 95.29
  A 0.82 0.75 -28.9 0 0 306.03 95.20
  Q 301.34 95.26 297.77 92.57
  Q 296.03 91.26 294.59 90.76
  C 292.84 90.15 289.80 89.46 288.95 87.80
  Q 288.16 86.25 289.21 84.73
  C 291.96 80.74 301.62 83.50 305.76 84.19
  C 306.89 84.38 308.88 85.68 309.52 85.71
  Q 309.85 85.73 310.14 85.56
  Q 310.50 85.35 310.48 85.77
  Q 310.48 85.99 310.36 86.26
  Q 310.21 86.61 310.53 86.84
  L 317.52 91.87
  A 1.00 1.00 0.0 0 0 318.85 91.74
  C 322.40 87.90 325.48 83.88 331.14 82.68
  C 334.08 82.06 336.59 83.57 339.38 84.37
  Q 339.94 84.53 340.12 85.08
  Q 340.35 85.78 341.12 85.35
  Q 341.99 84.86 341.75 85.82
  Q 341.27 87.69 339.05 89.56
  Q 333.06 94.61 326.64 104.28
  Q 326.39 104.66 326.70 105.01
  Q 329.72 108.40 332.06 112.38
  C 333.28 114.45 335.37 116.11 336.29 118.72
  A 1.71 1.71 0.0 0 0 338.27 119.81
  Q 342.86 118.81 341.96 114.06
  Q 341.65 112.43 343.19 111.82
  C 346.11 110.66 352.41 109.03 355.26 110.51
  C 357.10 111.47 357.01 114.67 357.14 116.54
  A 1.18 1.18 0.0 0 0 358.61 117.60
  Q 360.56 117.11 362.32 116.07
  C 365.91 113.95 368.56 113.61 373.00 112.51
  Q 378.71 111.09 382.66 114.37
  Q 383.10 114.73 383.40 114.25
  Q 384.24 112.91 383.99 111.22
  A 0.92 0.91 84.3 0 1 384.84 110.17
  Q 389.15 109.91 393.25 109.66
  Q 397.88 109.37 400.97 113.51
  Q 402.98 116.21 401.29 118.32
  A 1.19 1.15 -71.9 0 1 400.48 118.75
  Q 397.01 119.10 396.34 122.50
  Q 396.25 122.98 396.73 123.06
  Q 398.74 123.37 400.58 122.65
  C 401.29 122.37 402.01 121.40 403.06 121.37
  Q 403.51 121.36 403.70 120.96
  C 407.99 111.61 414.75 107.47 425.08 110.84
  C 430.25 112.53 428.20 118.08 424.75 120.22
  Q 420.83 122.65 417.27 123.87
  Q 414.68 124.76 417.42 124.63
  Q 420.58 124.48 424.00 123.03
  Q 427.60 121.51 430.25 120.62
  Q 433.80 119.42 437.02 117.47
  C 438.83 116.38 439.91 114.49 442.29 113.60
  Q 442.77 113.42 442.85 112.91
  Q 443.32 109.90 445.99 109.78
  C 449.73 109.62 456.80 116.20 457.80 119.77
  C 458.29 121.54 457.69 123.87 458.56 126.04
  A 0.45 0.45 0.0 0 0 459.37 126.09
  Q 460.13 124.75 460.05 123.20
  A 2.03 2.02 88.7 0 1 462.08 121.07
  C 463.93 121.08 466.62 121.34 467.74 119.30
  A 1.78 1.73 89.1 0 1 468.34 118.66
  Q 472.31 116.15 475.88 113.11
  Q 477.28 111.92 477.06 110.76
  A 1.05 1.05 0.0 0 1 478.27 109.53
  Q 483.66 110.44 486.80 113.47
  Q 491.52 118.04 491.99 124.65
  Q 492.02 125.15 491.81 125.61
  L 491.37 126.54
  A 0.24 0.24 0.0 0 0 491.77 126.80
  L 493.41 124.90
  Q 493.81 124.43 494.41 124.31
  Q 498.42 123.49 502.52 124.17
  A 0.82 0.82 0.0 0 1 502.94 125.58
  C 498.90 129.34 495.04 132.00 489.60 133.58
  Q 481.84 135.82 474.75 135.88
  Q 472.46 135.90 468.74 134.62
  Q 468.29 134.46 468.04 134.05
  Q 467.52 133.21 466.47 133.11
  A 0.58 0.58 0.0 0 1 465.95 132.57
  Q 465.86 130.49 467.41 130.36
  C 470.88 130.07 476.37 130.40 478.49 126.74
  Q 480.18 123.82 480.04 120.35
  Q 480.01 119.68 479.52 120.13
  C 476.30 123.14 474.82 125.54 469.61 126.34
  Q 467.19 126.72 464.45 130.06
  Q 464.12 130.46 463.63 130.59
  C 461.64 131.14 460.19 132.36 458.43 132.94
  C 452.25 134.98 442.47 137.25 435.99 134.69
  Q 435.53 134.51 435.22 134.13
  Q 434.52 133.25 432.77 132.97
  A 0.92 0.92 0.0 0 1 432.25 131.44
  C 433.48 130.10 436.87 130.07 439.26 129.93
  C 441.82 129.78 443.25 128.70 445.19 127.30
  A 1.07 1.07 0.0 0 0 445.62 126.63
  L 446.97 119.99
  Q 447.33 118.25 446.36 119.73
  Q 444.02 123.29 439.57 125.61
  C 437.46 126.71 431.89 125.80 429.18 126.05
  Q 426.67 126.29 424.18 127.80
  C 422.05 129.09 420.05 130.68 417.58 131.00
  C 413.31 131.54 407.17 131.54 404.23 127.81
  A 1.66 1.66 0.0 0 0 402.38 127.27
  C 398.37 128.68 393.88 132.09 389.54 130.73
  A 1.39 1.35 -9.5 0 1 388.83 130.24
  C 384.67 124.82 384.93 123.31 389.84 118.69
  A 0.30 0.29 -45.6 0 0 389.84 118.26
  L 389.61 118.05
  A 0.68 0.68 0.0 0 0 388.71 118.05
  C 386.62 119.92 384.89 122.04 382.27 123.14
  Q 381.79 123.33 381.40 123.71
  C 374.12 130.71 367.13 135.57 357.29 134.95
  A 1.87 1.85 -78.1 0 0 355.44 136.17
  Q 352.54 144.15 348.19 151.43
  Q 348.10 151.58 348.19 151.73
  L 348.38 152.05
  A 0.28 0.27 87.0 0 1 348.03 152.44
  L 347.75 152.31
  Q 347.57 152.23 347.43 152.35
  Q 345.02 154.29 341.69 155.00
  Z
  M 414.30 120.72
  C 415.98 119.96 418.53 118.26 419.30 117.25
  Q 421.42 114.44 417.96 115.10
  Q 416.02 115.47 413.87 118.12
  Q 412.97 119.23 413.46 120.39
  Q 413.71 120.99 414.30 120.72
  Z
  M 276.18 115.99
  A 1.00 0.99 62.9 0 0 274.74 115.52
  Q 271.01 117.81 268.34 121.35
  A 1.88 1.87 -62.8 0 0 269.27 124.27
  L 271.91 125.09
  A 2.79 2.79 0.0 0 0 275.26 123.63
  C 276.45 121.13 277.36 118.81 276.18 115.99
  Z
  M 365.69 120.67
  C 363.95 121.46 359.06 124.78 358.87 127.70
  A 1.26 1.26 0.0 0 0 359.99 129.03
  C 363.75 129.42 366.69 126.87 369.81 125.29
  Q 371.97 124.20 372.23 121.61
  A 1.46 1.44 -82.0 0 0 371.06 120.04
  Q 368.24 119.53 365.69 120.67
  Z"
/>
<path fill="#000000" d="
  M 160.66 109.03
  Q 157.25 107.95 153.74 107.25
  Q 151.91 106.89 151.79 104.96
  A 1.98 1.97 81.1 0 1 153.28 102.91
  C 156.68 102.05 167.57 99.75 168.95 105.32
  Q 169.43 107.28 168.49 109.01
  A 1.90 1.89 -75.6 0 1 166.83 110.00
  Q 163.71 110.00 160.66 109.03
  Z"
/>
<path fill="#000000" d="
  M 184.74 130.65
  A 1.22 1.20 63.4 0 0 183.41 130.20
  Q 176.11 132.42 168.50 132.00
  C 164.96 131.80 163.30 129.81 160.87 127.90
  A 2.75 2.74 -68.1 0 1 159.84 125.47
  C 160.24 121.49 160.66 117.91 157.34 114.68
  Q 156.98 114.33 157.48 114.26
  L 166.06 112.98
  Q 167.90 112.71 167.97 114.57
  Q 168.07 117.04 169.99 118.55
  A 1.35 1.31 -81.1 0 1 170.45 119.20
  Q 171.57 122.77 174.55 124.95
  Q 174.98 125.26 175.49 125.11
  C 179.39 124.01 184.39 117.77 187.62 113.87
  C 191.06 109.70 196.18 109.27 201.07 110.30
  A 1.32 1.26 -11.6 0 1 201.85 110.79
  Q 203.16 112.55 205.23 111.34
  A 1.03 0.98 -52.2 0 1 205.96 111.23
  L 209.28 112.02
  A 0.80 0.79 -86.0 0 1 209.89 112.73
  C 210.12 115.34 210.77 119.22 213.22 120.53
  C 215.23 121.60 219.93 120.00 220.74 122.36
  C 221.52 124.58 221.45 127.14 218.52 127.75
  Q 215.19 128.44 211.84 128.77
  C 209.11 129.04 207.29 127.11 204.61 129.03
  C 201.09 131.55 196.11 131.18 191.99 131.71
  C 190.19 131.94 185.97 132.33 184.74 130.65
  Z
  M 195.52 119.26
  Q 194.50 120.12 193.43 121.15
  A 1.65 1.64 -46.0 0 0 193.47 123.56
  C 195.38 125.27 199.12 125.77 201.05 123.69
  C 202.51 122.11 202.05 117.90 202.00 115.97
  A 0.94 0.94 0.0 0 0 200.69 115.14
  C 198.10 116.23 197.21 117.85 195.52 119.26
  Z"
/>
</svg>
